<svg width="30" height="30" viewBox="0 0 30 30" fill="none" xmlns="http://www.w3.org/2000/svg">
<path fill-rule="evenodd" clip-rule="evenodd" d="M29.1663 15C29.1663 22.82 22.8055 29.1666 14.9997 29.1666L14.6033 29.1612C6.96636 28.9511 0.833008 22.6874 0.833008 15C0.833008 7.19415 7.17967 0.833313 14.9997 0.833313C22.8055 0.833313 29.1663 7.19415 29.1663 15ZM12.1947 9.33331C11.7838 9.75831 11.7838 10.4241 12.2088 10.835L16.388 15L12.2088 19.165C11.7838 19.5758 11.7838 20.2558 12.1947 20.6666C12.6197 21.0916 13.2855 21.0916 13.6963 20.6666L18.6405 15.7508C18.8388 15.5525 18.9522 15.2833 18.9522 15C18.9522 14.7166 18.8388 14.4475 18.6405 14.2491L13.6963 9.33331C13.498 9.12081 13.2288 9.02165 12.9597 9.02165C12.6763 9.02165 12.4072 9.12081 12.1947 9.33331Z" fill="#FAAF04"/>
</svg>
