<svg width="34" height="34" viewBox="0 0 34 34" fill="none" xmlns="http://www.w3.org/2000/svg">
<path d="M28 16.2471C28 15.4946 27.3649 14.8788 26.5889 14.8788H7.41091C6.63488 14.8788 6 15.4946 6 16.2471C6 16.8868 6.46035 17.4235 7.07453 17.5713L9.02017 26.4969C9.02017 27.3238 9.71772 28.0002 10.5705 28.0002H23.6831C24.5359 28.0002 25.2334 27.3238 25.2334 26.4969L27.2003 17.4738C27.671 17.2516 28 16.7866 28 16.2471ZM12.3381 24.7526C12.3381 25.011 12.12 25.2222 11.8535 25.2222H11.72C11.4535 25.2222 11.2354 25.0108 11.2354 24.7526V19.2541C11.2354 18.9957 11.4535 18.7844 11.72 18.7844H11.8535C12.12 18.7844 12.3381 18.9957 12.3381 19.2541V24.7526ZM15.8852 24.7526C15.8852 25.011 15.6671 25.2222 15.4006 25.2222H15.2671C15.0006 25.2222 14.7825 25.0108 14.7825 24.7526V19.2541C14.7825 18.9957 15.0004 18.7844 15.2671 18.7844H15.4006C15.6671 18.7844 15.8852 18.9957 15.8852 19.2541V24.7526ZM19.432 24.7526C19.432 25.011 19.2142 25.2222 18.9475 25.2222H18.8142C18.5477 25.2222 18.3298 25.0108 18.3298 24.7526V19.2541C18.3298 18.9957 18.5477 18.7844 18.8142 18.7844H18.9477C19.2142 18.7844 19.4322 18.9957 19.4322 19.2541V24.7526H19.432ZM22.9791 24.7526C22.9791 25.011 22.7611 25.2222 22.4948 25.2222H22.3612C22.0948 25.2222 21.8767 25.0108 21.8767 24.7526V19.2541C21.8767 18.9957 22.0948 18.7844 22.3612 18.7844H22.4948C22.7613 18.7844 22.9791 18.9957 22.9791 19.2541V24.7526Z" fill="#FAAF04"/>
<path d="M10.7826 12.6008C11.2219 9.63473 13.8457 7.35261 17.0262 7.35261C20.2066 7.35261 22.8307 9.63473 23.2699 12.6008C23.334 13.6136 24.6795 13.4516 24.6795 12.6008C24.2314 8.88507 20.9785 6 17.0262 6C13.074 6 9.8209 8.88507 9.37305 12.6008C9.37305 13.6543 10.7998 13.6948 10.7826 12.6008Z" fill="#FAAF04"/>
</svg>
