<svg width="188" height="68" viewBox="0 0 188 68" fill="none" xmlns="http://www.w3.org/2000/svg">
<path fill-rule="evenodd" clip-rule="evenodd" d="M68.1146 34.0001C68.1146 47.9859 59.6563 59.998 47.5684 65.2198C46.4122 65.7193 45.2207 66.1576 44.0017 66.5276C40.8554 67.4857 37.5166 67.9999 34.0573 67.9999C32.1341 67.9999 30.2497 67.8409 28.4135 67.5338C25.7641 67.0954 23.2181 66.3482 20.8131 65.3345C15.2861 63.0019 10.5039 59.2562 6.92231 54.5504C2.5775 48.8422 0 41.7226 0 34C0 15.2215 15.2471 0 34.0573 0C52.8656 0 68.1145 15.2215 68.1145 34L68.1146 34.0001Z" fill="#F9B004"/>
<path fill-rule="evenodd" clip-rule="evenodd" d="M13.6578 48.2483C13.7968 48.2059 13.9005 48.0763 13.9005 47.9228C13.9042 47.7119 13.9617 47.4473 14.0265 47.155C14.0765 46.9294 14.1284 46.6889 14.1655 46.4319C14.3137 46.2617 14.5416 46.1228 14.9029 46.0508C15.468 46.0508 15.3846 46.2672 15.9961 46.0785C16.0145 46.1396 16.035 46.1949 16.0535 46.2468C15.9979 47.0847 16.9874 46.9553 16.4371 48.054C16.3202 48.4073 16.0831 48.5258 15.8478 48.879C15.2642 49.7538 15.5883 50.6232 13.7226 48.7605C13.5966 48.509 13.606 48.3926 13.6577 48.2482L13.6578 48.2483Z" fill="#35393F"/>
<path fill-rule="evenodd" clip-rule="evenodd" d="M63.0174 23.5821C46.7345 21.9469 40.1204 26.84 33.7132 36.4382C32.7923 37.6757 31.9622 39.026 30.8283 40.2339L26.2572 39.3701L25.19 39.0648L25.4569 38.3324L25.4624 38.3121L27.2522 31.888L27.2855 31.764C27.33 31.5772 27.217 31.3904 27.0298 31.3442L26.0071 31.0907C26.0533 29.696 26.2738 29.2632 26.5889 27.9054C26.739 27.3597 26.8352 26.816 26.8853 26.2702V26.2629C27.0243 24.6887 26.7594 23.1147 26.2351 21.5405C25.9368 20.7969 25.1994 19.1339 24.8121 18.0501C24.299 15.8416 24.273 13.6552 24.525 11.8793C25.3475 11.4688 25.9794 10.4754 26.0405 9.48394C26.1462 7.73405 25.1197 7.13477 23.58 6.98129C22.7221 6.89422 22.7629 5.64019 21.6253 5.75665C20.5376 5.83069 20.306 6.85548 18.972 7.05532C16.9673 7.64723 16.378 9.41544 17.6787 10.9452C18.6997 12.4714 18.9461 12.4954 18.3013 15.2533C18.0753 16.2279 17.8084 17.0327 17.525 17.6986C16.9302 18.7141 16.1001 19.7573 15.6111 20.2457C13.5312 22.0991 12.7882 24.7942 12.1536 27.4596L8.54797 26.5144C8.36257 26.4663 8.17188 26.5772 8.12359 26.7623C6.7062 32.1654 5.40922 37.4316 3.80642 42.6995C2.93001 42.7587 2.05557 42.8456 1.18469 42.9584C4.10671 53.6721 12.148 62.2808 22.5239 66.0043C24.6807 66.019 26.8411 65.8637 28.8978 65.5491C28.7439 66.2003 28.5791 66.8626 28.4031 67.534C30.2392 67.841 32.1235 68.0001 34.0469 68.0001C35.0029 66.3409 35.87 64.728 36.5056 63.2112C36.9261 63.0577 37.3004 62.9782 37.5654 63.0595C37.81 63.1344 41.8272 66.3367 42.6329 66.9088C44.7358 66.365 46.761 65.625 48.6844 64.7077C47.5188 63.1002 46.2867 61.4909 44.9896 59.8428C49.4384 56.9666 47.9338 49.9209 48.4286 43.4283C48.4304 43.4117 48.4304 43.395 48.4342 43.3784L57.3403 44.254L58.2037 44.4168C59.2037 46.8181 59.3585 47.1519 61.1617 46.9178C63.6716 46.5922 63.977 44.461 63.9949 42.1305C64.0433 35.8786 59.5056 27.3145 63.0175 23.582L63.0174 23.5821ZM27.734 42.5442C27.6616 42.4313 27.5987 42.3205 27.5357 42.2058L26.4425 40.6538L28.6084 40.959L29.8388 41.1754C29.2348 41.6842 28.5455 42.1466 27.7339 42.5442H27.734ZM48.6637 42.0245C49.264 39.5901 50.7592 37.1412 51.2633 36.3551C52.8197 38.1918 55.6262 40.7301 56.899 43.1701C54.4199 43.1626 51.1132 42.718 48.6637 42.0245Z" fill="#12374A"/>
<path fill-rule="evenodd" clip-rule="evenodd" d="M24.5245 11.2905C25.7385 10.947 25.6242 8.7888 25.3475 8.34337C25.1188 7.54793 23.6525 7.27959 22.5157 7.99779L22.5197 10.1192C23.302 10.2229 24.5233 10.216 24.5245 11.2905Z" fill="#FEFEFE"/>
<path fill-rule="evenodd" clip-rule="evenodd" d="M22.1245 7.9934C20.9575 7.49594 19.1073 7.08138 18.1474 8.23358C17.2044 9.41296 18.2687 11.1791 19.0952 11.5318C20.2689 10.1228 19.4554 10.1176 22.1283 10.1146L22.1261 8.08858L22.1243 7.99327L22.1245 7.9934Z" fill="#FEFEFE"/>
<path fill-rule="evenodd" clip-rule="evenodd" d="M24.2232 54.9715L25.4969 55.8417C26.0495 56.2191 26.1334 56.1575 25.6767 56.7891C25.4471 57.1062 25.1487 57.4326 24.9358 57.7159C24.2277 58.6584 23.6375 59.8368 23.2835 61.0151C23.0991 61.5674 22.8428 61.9042 22.6269 62.3053C22.5502 62.4482 22.4731 62.8058 22.1757 62.526C22.1226 62.4761 22.0912 62.3531 21.986 62.1337C21.7902 61.7256 21.503 61.5215 20.9673 61.6783C20.528 61.8073 20.5679 61.7847 20.5692 61.357C20.5699 61.1999 20.5973 61.0481 20.6229 60.9006C20.7469 60.1883 21.0408 59.5911 21.3246 59.1618C22.0428 58.075 21.9381 58.5632 22.4191 57.1228L22.5752 56.6551C22.759 56.2882 23.0803 55.4976 23.4048 55.018C23.7544 54.5002 23.7684 54.6608 24.2232 54.9714V54.9715Z" fill="#FEFEFE"/>
<path fill-rule="evenodd" clip-rule="evenodd" d="M26.0593 55.2618C25.6283 55.0522 25.0909 54.7413 24.7542 54.517C24.2368 54.1724 24.1621 54.2275 24.5215 53.5473C24.5994 53.3999 24.6882 53.2457 24.7719 53.0983C25.1669 52.3995 24.9528 52.4336 25.8752 52.7555C26.3043 52.9051 26.819 53.1124 27.2399 53.3212C28.1821 53.7887 28.15 53.8195 27.452 54.5949C27.3429 54.7159 27.2275 54.8373 27.1151 54.9527C26.5946 55.4854 26.709 55.5782 26.0593 55.262V55.2618Z" fill="#22A0B5"/>
<path fill-rule="evenodd" clip-rule="evenodd" d="M24.2187 61.8906C24.7687 62.2383 25.9956 62.8682 26.008 63.2463C26.02 63.6246 24.2674 63.6752 23.8273 63.4939C23.3876 63.3127 23.2896 62.9191 23.2896 62.9191L24.2187 61.8907V61.8906Z" fill="#FEFEFE"/>
<path fill-rule="evenodd" clip-rule="evenodd" d="M24.9958 40.3955L23.9865 44.3412C23.4996 46.1544 23.6522 45.6871 23.1249 47.652C23.1249 47.7765 24.7503 49.5858 25.0652 50.2151C25.5372 51.1576 24.818 51.2351 25.7622 51.8244C28.595 53.5917 28.595 53.4741 29.5394 52.0601C31.4277 49.7034 30.3655 49.4679 28.7131 46.4041C27.7687 44.6365 26.7606 42.1156 25.3441 40.7017C25.2143 40.5984 25.099 40.4962 24.9958 40.3956V40.3955Z" fill="#22A0B5"/>
<path fill-rule="evenodd" clip-rule="evenodd" d="M17.76 29.0415L25.1819 30.8674C25.7078 27.9148 26.754 24.5062 25.2937 21.6392C24.7733 20.6176 24.0631 19.7781 23.8009 19.7129C23.7734 23.026 23.0735 26.6256 22.8723 30.0629C22.8675 30.142 22.154 29.8988 22.0934 29.9393C23.0762 24.9245 21.2799 23.1121 18.5046 19.1533C15.5692 21.2152 14.5112 21.7006 13.555 25.4611C13.1879 26.9044 13.1925 26.8637 14.6358 27.2356C15.9845 27.583 17.59 27.9265 17.76 29.0415Z" fill="#22A0B5"/>
<path d="M26.5219 31.9333L17.4997 29.6924C16.8951 30.37 16.4682 33.8003 16.298 37.3861C16.1219 41.0972 16.2388 44.9305 16.73 46.0655C16.7606 46.1391 16.7916 46.1937 16.8208 46.2271C17.8614 47.4137 17.4407 48.0153 17.1059 48.4616L21.8596 49.7126L26.5219 31.9332V31.9333Z" fill="#C4C4C4"/>
<path d="M11.8423 28.0954L8.70809 27.2734L4.06262 44.988L13.1345 47.788C13.16 47.6361 13.3103 47.1719 13.3461 47.0088C13.4522 46.5248 13.5753 45.9653 13.4951 45.3535C13.465 45.122 13.5042 44.7327 13.3667 44.442C13.1431 43.9703 12.8969 43.4506 12.8891 42.7976C12.8761 41.714 12.5075 40.6052 12.3058 39.3714C11.5599 34.8154 11.9403 34.0043 12.5146 30.0212C12.5464 29.7998 12.5634 29.6422 12.5447 29.6395C11.752 29.5256 11.6993 29.003 11.7806 28.4408C11.7944 28.3435 11.8131 28.2474 11.8312 28.1536L11.8423 28.0956V28.0954Z" fill="#C4C4C4"/>
<path fill-rule="evenodd" clip-rule="evenodd" d="M13.1974 30.1593C12.8226 32.5569 12.3854 34.6064 12.6706 37.0869C12.877 38.8835 13.5279 44.1098 14.431 45.4612H15.848C15.5211 43.7329 15.455 40.4883 15.6037 37.3531C15.715 35.0057 15.9537 32.7029 16.3014 31.1138C15.2728 30.5016 14.3008 30.4342 13.1974 30.1592V30.1593Z" fill="#F8DEAA"/>
<path fill-rule="evenodd" clip-rule="evenodd" d="M13.3899 29.0691C14.0218 29.2309 14.6411 29.4818 15.2264 29.6865C15.5101 29.7856 15.786 29.8739 16.0514 29.9357C16.8445 30.1203 17.3303 29.2278 16.1698 28.7687C15.9769 28.6923 15.7799 28.6076 15.581 28.5214C14.9094 28.2294 14.2157 27.9161 13.5801 27.82C12.6369 27.6771 12.3813 28.8113 13.3899 29.0692V29.0691Z" fill="#22A0B5"/>
<path fill-rule="evenodd" clip-rule="evenodd" d="M51.4766 35.4C46.1072 40.2053 47.7243 46.3455 47.3057 52.5892C47.0364 56.605 45.8619 58.6455 43.9359 59.7608C43.2208 60.4822 44.3493 61.4199 45.6185 62.9959C46.2966 63.8394 47.0655 64.7753 47.7936 65.6577C46.6374 66.1571 45.4461 66.5954 44.2269 66.9655C43.0648 66.0571 41.2135 64.381 40.1394 63.6396C35.9001 60.3545 37.4972 63.4583 32.1461 64.2333C30.1655 64.5625 27.7532 64.2648 25.9669 61.9267C26.3893 61.6454 27.7159 61.1442 28.2923 60.2177C29.0871 58.9394 29.0687 58.9597 29.5466 57.3894C29.7264 56.7975 29.593 56.15 29.8654 55.6802C30.2749 54.9754 31.1346 54.4742 31.6274 53.5752C33.671 49.8481 30.7314 44.2457 30.2885 42.8436C32.646 41.2552 34.8873 38.1403 34.8481 37.2042C34.8451 37.1327 35.9025 37.0376 35.5779 39.3846C38.095 36.5725 38.0392 33.8281 38.4717 32.3661C38.3637 33.2028 40.1314 33.7804 39.8235 35.6808C41.9726 33.5631 41.4084 31.2107 42.8887 28.8466C43.2639 31.344 43.5634 31.2662 43.5155 32.2443C45.2998 30.1688 46.2918 29.1802 46.1531 26.9602C47.559 28.8926 47.5918 31.1278 47.39 31.5283C48.127 31.1905 50.5027 27.9638 50.6814 25.1893C51.3246 27.3347 50.8385 29.2108 50.7608 29.2108C51.9557 28.7307 52.7538 28.041 55.1448 24.9912C54.0665 32.5235 49.8569 32.8418 51.4765 35.3999L51.4766 35.4Z" fill="#F8DEAA"/>
<path fill-rule="evenodd" clip-rule="evenodd" d="M56.557 26.8258C56.8952 24.4848 59.0429 24.5108 61.167 24.374C60.8076 24.7213 59.4843 25.3591 58.6382 26.1073C57.5378 27.0803 58.0886 27.6903 58.6176 27.245C59.2105 26.7467 60.0472 27.4426 58.9168 28.0789C57.9237 28.6375 56.3678 28.1371 56.557 26.8258Z" fill="#F8DEAA"/>
<path fill-rule="evenodd" clip-rule="evenodd" d="M61.0826 43.3257C61.1735 42.9856 61.4281 42.7537 61.809 42.697C62.6119 42.5379 62.6768 42.8959 62.7113 43.4906C62.7381 43.9578 62.8362 44.1252 62.3652 43.7194C62.2333 43.6054 62.2204 43.5487 62.1918 43.4862C62.0356 43.1461 61.8003 43.2773 61.794 43.5961C61.7894 43.8295 61.8658 44.0659 61.9322 44.3023C62.1654 44.7376 62.4511 44.5508 62.6099 44.3869C62.7467 44.2458 62.8529 44.2207 62.9187 44.3964C63.352 45.5562 62.7166 45.9251 61.4682 44.5493C60.9221 44.0153 60.9178 43.9433 61.0826 43.3259V43.3257Z" fill="#F8DEAA"/>
<path fill-rule="evenodd" clip-rule="evenodd" d="M59.8657 45.8086C59.3335 45.268 59.4546 44.4542 59.834 43.8424C60.067 43.4671 60.5359 43.1077 60.527 43.8699C60.5232 44.2151 60.5246 44.6155 60.4961 44.9873C60.4744 45.2659 60.436 45.5288 60.3661 45.7406C60.2345 46.1389 60.1541 46.1015 59.8657 45.8087V45.8086Z" fill="#F8DEAA"/>
<path fill-rule="evenodd" clip-rule="evenodd" d="M55.9972 32.1238C54.2531 30.9211 54.2587 29.5356 55.8636 29.7631C56.0504 28.9161 56.4896 28.6877 56.9836 28.8584C58.3049 29.3143 57.959 30.5974 57.5107 31.6313C57.2073 32.33 56.7199 32.7687 55.9971 32.1239L55.9972 32.1238Z" fill="#F8DEAA"/>
<path fill-rule="evenodd" clip-rule="evenodd" d="M60.7212 39.9226C59.8888 38.1391 58.4258 34.7464 58.089 33.2592C57.895 32.4034 58.13 32.7292 58.4709 32.0657C58.5491 31.914 58.6159 31.7447 58.6707 31.5661C58.9282 30.724 58.8581 30.948 59.9274 30.8721C60.4073 30.8381 60.8456 30.8626 61.4305 31.1538C61.9439 32.3681 61.6293 33.6867 61.4635 34.9612C61.2574 36.5423 61.5224 37.1915 61.8977 38.6631C62.1288 39.5683 62.2881 40.4795 61.8632 40.8042C61.173 41.3318 60.927 40.3637 60.7212 39.9226Z" fill="#F8DEAA"/>
<path fill-rule="evenodd" clip-rule="evenodd" d="M54.7199 32.3213C55.6862 32.9878 55.9838 33.3835 56.3563 34.4953L57.7415 37.9772C58.0397 38.7264 59.6324 41.9461 59.4518 42.2724C59.0271 43.0384 58.3396 42.3516 58.0422 41.9262C57.3401 40.922 56.3802 39.0547 55.6656 38.1057C51.5648 37.5242 53.1332 33.0801 54.7196 32.3213H54.7199Z" fill="#F8DEAA"/>
<path fill-rule="evenodd" clip-rule="evenodd" d="M57.4954 33.3563C57.7163 33.7464 57.883 34.2252 58.0809 34.7777C58.3415 35.5048 58.5546 36.279 58.7995 37.0476C58.9449 37.5032 60.2809 40.4093 60.7186 41.5611C60.8453 41.8939 60.4283 42.152 60.2312 41.8158C59.4645 40.5052 58.6267 38.6725 58.1023 37.2289C57.7406 36.2314 57.4274 35.1135 57.022 34.255C56.9291 34.0581 56.8514 33.9314 56.7938 33.8406C56.4911 33.3653 57.1848 32.8074 57.4952 33.3562L57.4954 33.3563Z" fill="#F8DEAA"/>
<path d="M60.719 34.3708C60.8084 34.1649 60.8868 33.3595 60.3907 32.7709C59.7901 32.0581 58.9428 32.2435 58.982 33.3595C58.993 33.6767 59.085 34.0009 59.2421 34.2859C59.6618 35.0479 60.2442 35.1733 60.719 34.3707V34.3708Z" fill="#12374A"/>
<path fill-rule="evenodd" clip-rule="evenodd" d="M22.6275 65.3331C22.0031 65.3534 21.3936 65.3534 20.8024 65.3349C15.2755 63.0024 10.4933 59.2567 6.91162 54.5509C7.36377 54.3124 7.86212 54.157 8.47731 54.1217C9.19989 54.081 9.22766 54.1014 9.82049 54.438C10.4394 54.7858 11.0676 55.0189 11.6975 55.0504C12.913 55.1114 12.4554 54.5509 12.8407 56.001C13.3169 57.7917 14.3491 60.1409 15.3848 61.0046C16.7892 62.1755 17.9102 62.0699 19.374 62.2975C19.6501 63.6828 21.4213 64.0307 21.8864 63.9825L22.6275 65.3329V65.3331Z" fill="#F8DEAA"/>
<path fill-rule="evenodd" clip-rule="evenodd" d="M16.0581 46.0381C15.0413 46.2286 15.3621 45.7911 14.1885 46.3994C14.0828 46.9365 13.9969 47.2874 13.8866 47.6389C13.5623 48.6734 13.3176 48.435 14.1154 49.1487C15.2004 49.9732 15.1616 50.2745 15.7743 49.1206L16.2365 48.4958C16.7425 47.5907 16.8284 47.5211 16.2181 46.677L16.0581 46.0381Z" fill="#F8DEAA"/>
<path d="M47.93 41.8148C48.1764 41.885 48.421 41.9554 48.6636 42.0239C48.5506 42.4788 48.4691 42.9338 48.4339 43.3779L47.6187 43.2668C44.1593 43.1855 39.3975 42.5695 35.9049 42.109L32.7977 41.6983L29.8389 41.1748C30.1964 40.8752 30.5243 40.5589 30.8282 40.2334L30.9116 40.2501L36.1236 41.2304C40.2426 41.8278 43.7536 41.865 47.93 41.815V41.8148Z" fill="#12374A"/>
<path fill-rule="evenodd" clip-rule="evenodd" d="M22.5905 14.7778C22.6924 14.7778 22.7555 14.8222 22.8407 14.8369C22.9555 14.8165 23.0667 14.7406 23.2482 14.7962C23.4947 14.8702 23.7502 15.0237 23.9504 15.1624C23.9875 14.8183 23.9893 14.4189 23.9782 14.0378C23.9504 12.9963 23.9412 12.5968 23.9393 12.4767C23.9209 12.5265 23.8987 12.5764 23.8171 12.6302C23.7393 12.6709 23.3094 12.767 23.1797 12.3842C23.1389 12.3953 23.0981 12.4082 23.0556 12.4229L23.0092 12.2917C23.4002 12.151 23.7597 12.2011 23.9357 12.2418C23.9413 12.1289 24.0005 11.9532 23.4169 11.9532C22.8109 12.0123 22.8592 12.4378 22.9908 12.9502C23.0482 13.1758 23.0853 13.3497 23.1074 13.5273C23.1945 14.2321 23.2687 14.3395 22.5738 14.4115C22.1402 14.454 21.8845 14.1915 22.4385 14.1877C23.05 14.1859 22.9555 14.1896 22.8499 13.581C22.8166 13.3905 22.7758 13.1962 22.737 12.9984C22.6796 12.7025 22.6443 12.4138 22.6888 12.1919C22.7888 11.5907 23.5299 11.7202 23.8431 11.4705C23.8988 11.4261 24.0042 11.3373 23.8542 11.1394C23.2279 10.2163 22.4776 10.9581 22.3607 11.0766L22.1624 10.7159C21.5733 10.7176 20.8655 10.5991 20.6283 10.8361C20.5691 10.8953 20.1745 11.5279 20.3468 11.4705C20.8378 11.3058 21.6826 11.1246 22.4092 11.7739C21.957 12.4009 21.7976 11.3373 20.2764 12.0143C20.1598 13.4294 19.9244 14.3708 19.9263 15.786C19.9281 17.5523 19.1357 18.8353 19.1357 18.8353C19.7226 19.7763 22.2937 23.8135 22.6954 24.407C22.7833 23.7481 23.5642 18.5858 23.3502 17.3137C22.3478 17.4265 20.9527 16.9862 20.2412 15.9153C20.7062 16.2889 21.2251 16.7272 22.2885 16.844C22.9908 16.942 23.5243 16.4444 23.8116 15.786C23.856 15.6823 23.8893 15.5584 23.9154 15.4178C23.6819 15.3881 23.4077 15.34 23.2483 15.2698C23.1539 15.2273 22.9575 15.1292 22.8593 15.107C22.763 15.1256 22.561 15.2291 22.4646 15.2717C22.1516 15.4123 21.3806 15.4604 21.3806 15.4604C21.3806 15.4604 21.9439 14.9553 22.4646 14.7983C22.5129 14.7835 22.5535 14.7779 22.5906 14.7779L22.5905 14.7778ZM22.0718 12.3287L22.0643 12.3269L22.0699 12.3325C22.0218 12.4121 22.0311 12.4898 21.8698 12.5767C21.7605 12.6211 21.1565 12.7303 20.9897 12.2826C20.8897 12.2992 20.7897 12.3252 20.6914 12.3603L20.6432 12.2291C21.3176 11.9886 22.1032 12.194 22.1052 12.194L22.0719 12.329L22.0718 12.3287Z" fill="#F8DEAA"/>
<path fill-rule="evenodd" clip-rule="evenodd" d="M23.4688 15.5941C23.0781 15.9556 22.3119 15.8346 22.1238 15.5971C22.6628 15.4957 22.9252 15.3921 23.4688 15.5941Z" fill="#12374A"/>
<path d="M72.6783 52.0859V43.0312H76.9211C78.8927 43.0312 79.9669 44.3617 79.9669 45.9501C79.9669 47.5247 78.8791 48.8686 76.9211 48.8686H74.6094V52.086H72.6785L72.6783 52.0859ZM110.565 52.0859L110.008 50.5519H106.119L105.548 52.0859H103.345L106.853 43.0312H109.273L112.768 52.0859H110.565ZM108.063 44.959L106.649 48.8551H109.478L108.063 44.959ZM95.1037 52.0859V50.5248L99.387 44.7283H95.1037V43.0312H101.916V44.579L97.6328 50.3892H102.011V52.0859H95.1036H95.1037ZM86.2234 52.0859V50.5248L90.5068 44.7283H86.2234V43.0312H93.0359V44.579L88.7526 50.3892H93.1311V52.0859H86.2233H86.2234ZM81.994 52.0859V43.0312H83.925V52.0859H81.994ZM77.9953 45.9499C77.9953 45.1896 77.4241 44.7281 76.6624 44.7281H74.6093V47.1716H76.6624C77.4241 47.1716 77.9953 46.6966 77.9953 45.9499Z" fill="#FCFBFC"/>
<path fill-rule="evenodd" clip-rule="evenodd" d="M103.723 35.9018H108.005V16.4335H103.723V24.4379H96.478V16.4335H92.1953V35.9018H96.478V27.807H103.723V35.9018ZM87.2718 31.3245L87.1736 31.388C86.7381 31.689 86.1599 31.9193 85.658 32.0799C84.9801 32.2968 84.259 32.4411 83.5483 32.4872C83.3929 32.4973 83.2372 32.5026 83.0814 32.5026C81.3732 32.5026 79.879 31.953 78.666 30.742C77.4089 29.4872 76.9025 27.902 76.9025 26.1527C76.9025 24.4237 77.3981 22.8375 78.5989 21.5703C79.7758 20.3282 81.293 19.803 82.9906 19.803C83.8373 19.803 84.6649 19.9336 85.4637 20.2151C85.7948 20.3318 86.1278 20.4515 86.4522 20.5859C86.6484 20.6673 86.8818 20.7668 87.0561 20.8899L87.1692 20.9652L87.9032 17.0744L87.5596 16.912L87.5539 16.909C87.3313 16.7934 87.0729 16.704 86.8338 16.6293C86.4793 16.5184 86.1154 16.4294 85.7516 16.3551C84.8613 16.1732 83.9298 16.0713 83.021 16.0713C80.1675 16.0713 77.6404 16.9623 75.5708 18.9375C73.5043 20.9095 72.5898 23.3403 72.5898 26.1832C72.5898 29.038 73.3327 31.7072 75.5031 33.6639C77.6351 35.5855 80.2871 36.2948 83.1119 36.2948C84.0888 36.2948 85.0453 36.187 85.9919 35.943C86.3674 35.8463 86.7459 35.7457 87.1154 35.6276C87.2992 35.5688 87.5258 35.4959 87.6952 35.4023L88.1122 35.1643L87.2719 31.3248L87.2718 31.3245ZM156.961 28.2437L159.786 20.5033L162.61 28.2437H156.961ZM154.137 35.902L154.627 34.6417L155.749 31.5652H163.822L164.944 34.6417L165.434 35.902H169.99L162.008 16.4336H157.563L149.581 35.902H154.137ZM177.872 19.7726H178.665C179.881 19.7726 181.346 19.9913 182.119 21.0428C182.496 21.5563 182.636 22.1712 182.636 22.7998C182.636 25.2013 180.899 25.9782 178.726 25.9782H177.872V19.7726ZM173.589 35.902H177.872V28.7437H178.557L182.792 35.902H188L183.041 28.1344L183.839 27.8891C186.04 26.8815 186.998 24.9031 187.009 22.5266C187.022 19.8438 185.445 17.9437 182.967 17.0476C181.593 16.5508 179.965 16.4336 178.514 16.4336H173.589V35.902H173.589ZM140.324 19.9238H141.057C141.964 19.9238 142.898 20.155 143.632 20.7053C144.758 21.5502 145.118 22.8993 145.118 24.25C145.118 25.6205 144.66 26.934 143.447 27.6831C142.812 28.0751 142.071 28.2437 141.329 28.2437H140.324V19.9238ZM136.041 35.902H140.324V31.5828H141.42C143.288 31.5828 145.258 31.1006 146.757 29.9468C148.708 28.4447 149.4 26.1837 149.4 23.7969C149.4 20.5847 147.79 17.9658 144.7 16.9297C143.515 16.5322 142.087 16.4337 140.845 16.4337H136.041V35.9021V35.902ZM118.024 30.91C116.822 29.5739 116.327 27.9338 116.327 26.1527C116.327 24.3961 116.832 22.7642 118.025 21.4543C119.177 20.1898 120.632 19.5613 122.344 19.5613C124.066 19.5613 125.515 20.1964 126.688 21.4509C127.907 22.7543 128.418 24.3848 128.418 26.1527C128.418 27.9595 127.928 29.6026 126.69 30.9435C125.52 32.2111 124.067 32.8046 122.344 32.8046C120.633 32.8046 119.169 32.183 118.024 30.91ZM115.21 18.9335C113.196 20.9194 112.346 23.3747 112.346 26.1832C112.346 28.992 113.158 31.5465 115.208 33.5205C117.198 35.4371 119.618 36.2948 122.373 36.2948C125.125 36.2948 127.524 35.4174 129.508 33.4911C131.557 31.5019 132.399 29.0146 132.399 26.1832C132.399 23.3628 131.536 20.9203 129.507 18.9345C127.529 16.9981 125.141 16.0713 122.373 16.0713C119.594 16.0713 117.192 16.9801 115.21 18.9335Z" fill="#FCFBFC"/>
</svg>
