<svg width="375" height="30" viewBox="0 0 375 30" fill="none" xmlns="http://www.w3.org/2000/svg">
<g clip-path="url(#clip0)">
<path fill-rule="evenodd" clip-rule="evenodd" d="M-142.507 18.4018C-144.816 20.6336 -143.767 20.8462 -148.07 23.2906C-150.379 24.5659 -153.003 25.4161 -153.948 27.6479H-131.802C-132.327 26.0538 -132.641 26.16 -134.321 25.0973C-135.475 24.4596 -136.42 23.9282 -137.574 23.3968C-140.198 22.1215 -141.668 21.0587 -142.507 18.4018ZM-105.668 27.3291C-107.872 23.5031 -110.915 26.0538 -116.688 18.6144C-117.843 19.5709 -117.633 20.1022 -118.997 21.2713C-119.942 22.2278 -120.676 22.6529 -121.936 23.2906C-124.35 24.5659 -126.869 25.5224 -127.813 27.6479L-105.668 27.3291ZM-90.554 18.6144C-92.2332 20.1022 -91.2886 20.7399 -95.8018 23.3968C-97.9009 24.5659 -100.63 25.4161 -101.679 27.5416L-79.6385 27.6479C-80.0583 25.8412 -80.4781 26.0538 -82.0525 25.0973C-83.207 24.4596 -84.1516 24.0345 -85.3062 23.3968C-89.5044 21.165 -88.8746 20.6336 -90.554 18.6144ZM-64.4199 18.6144C-66.8338 21.0587 -66.0991 21.2713 -69.6677 23.2906C-72.1866 24.6722 -74.3907 25.4161 -75.5452 27.5416L-53.3994 27.6479C-54.1341 25.4161 -56.6531 24.7784 -58.9621 23.5031C-62.7405 21.3776 -62.1108 21.3776 -64.4199 18.6144ZM-38.3907 18.6144C-40.5948 21.0587 -40.0699 21.3776 -43.6385 23.3968C-45.7376 24.5659 -48.7814 25.4161 -49.4111 27.6479H-27.2653C-29.4694 23.6094 -31.6735 26.2663 -38.3907 18.6144ZM-12.2566 18.6144C-13.726 20.3148 -13.5161 21.2713 -17.5044 23.3968C-20.0233 24.7784 -22.0175 25.5224 -23.382 27.5416L-1.13123 27.6479C-2.39069 25.0973 -6.79883 23.7157 -9.73761 21.4839C-11.312 20.3148 -10.8922 19.8897 -12.2566 18.6144ZM13.8776 18.6144C11.7784 21.165 12.4081 21.2713 8.94458 23.1843C6.53058 24.5659 3.90668 25.4161 2.9621 27.3291C3.06708 27.3291 3.172 27.2228 3.27698 27.4354C3.59186 28.073 24.2682 27.6479 25.0029 27.5416C23.5335 24.7784 19.6501 24.2471 16.3965 21.4839C14.8221 20.3148 15.137 19.7834 13.8776 18.6144ZM39.8018 18.5081C38.7522 20.9525 37.3878 22.0152 34.7639 23.3968C31.7201 24.8847 29.5161 25.6287 28.9913 27.6479H51.0321C50.4023 24.8847 45.9942 24.3533 42.5306 21.4839C41.481 20.7399 41.9009 21.0587 41.1662 20.1022C40.7463 19.5709 40.9563 19.7834 40.5364 19.3583C40.1166 18.8269 40.2216 18.8269 39.8018 18.5081ZM66.0408 18.6144C63.8367 21.4839 64.3615 21.3776 60.793 23.3968C58.379 24.6722 55.7551 25.5224 55.0204 27.5416L77.2711 27.6479C75.9067 24.7784 71.3936 23.8219 68.5598 21.4839C67.3003 20.4211 67.3003 19.7834 66.0408 18.6144ZM91.965 18.5081C89.2361 24.7784 82.309 23.6094 81.2595 27.6479H103.3C102.146 24.7784 98.1574 24.3533 94.7988 21.4839C93.8542 20.7399 94.1691 20.8462 93.4344 20.1022C92.9096 19.4646 93.3294 19.7834 92.8047 19.252C92.1749 18.6144 92.6997 19.0395 91.965 18.5081ZM118.834 18.5081C116.735 19.7834 117.155 21.0587 113.376 23.1843C111.172 24.4596 108.128 25.5224 107.394 27.6479H129.539C127.965 24.0345 121.458 23.9282 118.834 18.5081ZM144.233 18.4018C142.449 23.3968 134.682 24.3533 133.528 27.6479H155.569C154.519 24.2471 150.006 24.991 145.808 19.996L144.233 18.4018ZM171.102 18.5081C170.997 18.5081 170.787 18.5081 170.787 18.7206C170.682 19.0395 167.429 22.1215 165.539 23.1843C163.125 24.5659 160.606 25.4161 159.662 27.6479H181.703C180.653 24.2471 172.886 23.2906 171.102 18.5081ZM197.236 18.5081C195.242 19.7834 195.872 20.8462 191.673 23.1843C189.259 24.5659 186.741 25.4161 185.796 27.6479H207.837C206.787 24.2471 199.65 23.8219 197.236 18.5081ZM223.055 18.6144L222.636 19.0395C220.641 20.9525 222.006 20.8462 217.808 23.1843C215.499 24.5659 212.665 25.6287 211.93 27.6479H233.971C232.606 23.7157 227.044 25.0973 223.055 18.6144ZM249.399 18.5081C249.294 18.5081 249.085 18.5081 249.085 18.7206C248.875 19.4646 245.621 22.1215 243.837 23.2906C241.528 24.6722 238.904 25.5224 238.064 27.6479H260.105C259.16 24.0345 251.289 24.0345 249.399 18.5081ZM275.534 18.5081C273.434 20.3148 274.799 20.4211 269.971 23.2906C267.557 24.6722 265.248 25.4161 264.093 27.5416L286.239 27.6479C285.085 23.8219 277.633 24.2471 275.534 18.5081ZM301.353 18.6144L300.303 19.7834C296.735 24.3533 291.907 24.1408 290.227 27.6479H312.268C311.114 23.6094 306.81 25.9475 301.353 18.6144ZM327.487 18.6144L327.067 19.0395C321.924 25.3098 318.041 24.0345 316.362 27.5416L338.612 27.6479C335.569 23.2906 332.42 25.4161 327.487 18.6144ZM353.621 18.6144C352.362 19.6771 352.676 20.2085 351.312 21.2713C348.583 23.6094 343.755 25.0973 342.496 27.5416L364.431 27.6479C363.697 24.0345 359.604 26.0538 353.621 18.6144ZM390.671 27.3291C388.886 23.7157 384.058 24.991 379.65 18.6144C377.761 20.5274 379.125 20.6336 374.402 23.2906C371.988 24.6722 369.784 25.5224 368.525 27.5416C369.784 27.6479 388.886 28.073 390.671 27.3291ZM405.784 18.6144C403.895 20.5274 405.259 20.6336 400.536 23.2906C398.227 24.5659 395.708 25.7349 394.659 27.5416L416.91 27.6479C415.965 25.7349 413.551 24.6722 411.347 23.5031C406.204 20.6336 407.883 20.6336 405.784 18.6144ZM431.918 18.6144C430.344 20.7399 429.609 21.6964 426.985 23.1843C424.571 24.5659 422.052 25.2036 421.003 27.3291L431.918 27.6479C435.487 27.6479 439.475 27.8605 443.044 27.5416C441.469 24.8847 437.376 23.9282 434.437 21.5901C432.863 20.3148 433.073 19.7834 431.918 18.6144ZM458.052 18.6144C455.743 21.2713 457.738 20.4211 452.805 23.3968C449.446 25.3098 447.662 25.3098 447.137 27.6479H469.178C468.233 25.7349 465.819 24.7784 463.615 23.5031C460.257 21.5901 460.257 20.5274 458.052 18.6144ZM484.082 18.6144C479.044 25.5224 475.37 23.6094 473.166 27.3291L495.207 27.5416C493.318 24.1408 489.224 24.8847 484.082 18.6144ZM510.216 18.6144C507.907 21.3776 508.746 21.165 505.283 23.1843C502.974 24.4596 500.35 25.5224 499.3 27.3291L521.341 27.6479C520.082 25.0973 515.883 23.9282 512.735 21.4839C511.16 20.3148 511.58 19.7834 510.216 18.6144ZM536.035 18.5081C533.621 24.3533 526.379 23.8219 525.434 27.6479H547.475C545.796 24.1408 542.962 25.7349 536.665 19.0395L536.035 18.5081ZM47.5685 10.9624C44 11.0687 40.7463 13.088 42.4257 16.4888C46.2041 17.339 45.4694 12.344 47.5685 10.9624ZM73.5977 11.0687C70.344 10.9624 66.3557 13.9382 68.4548 16.2763C69.7143 17.7642 71.1837 15.9574 71.7084 14.6821C72.3382 13.1942 72.4431 12.0252 73.5977 11.0687ZM152 10.9624C148.327 11.0687 145.913 12.8754 146.752 16.5951C150.741 17.1265 150.006 13.1942 152 10.9624ZM215.499 10.9624C216.338 12.5566 216.548 12.344 217.388 14.4696C217.808 15.6386 218.962 17.7642 220.536 16.3825C221.796 15.3198 221.586 11.0687 215.499 10.9624ZM246.461 16.7014C248.35 13.5131 245.516 11.2812 241.843 10.9624L242.787 12.8754C244.257 15.6386 243.627 16.7014 246.461 16.7014ZM320.14 10.9624C320.14 11.175 320.245 11.175 320.35 11.4938C320.35 11.4938 322.974 18.1893 324.968 16.4888C327.802 13.9382 323.184 11.175 320.14 10.9624ZM346.274 10.9624C351.102 23.7157 355.615 11.6001 346.274 10.9624V10.9624ZM439.16 11.0687C435.592 11.0687 432.758 13.3005 434.437 16.5951C436.117 16.9139 436.746 16.3825 437.376 15.0009C438.006 13.5131 438.741 12.2377 439.16 11.0687ZM465.294 10.9624C456.268 11.4938 460.781 20.6336 463.405 15.0009L465.294 10.9624ZM534.251 16.4888C535.09 12.8754 532.676 10.7499 528.793 11.0687C530.262 12.7691 529.948 11.8126 530.787 14.5758C531.522 16.7014 531.942 17.1265 534.251 16.4888ZM-161.399 11.0687C-164.653 10.8561 -169.166 13.7256 -166.542 16.3825C-164.968 17.8704 -163.813 15.8512 -163.394 14.5758C-162.554 12.344 -162.659 12.5566 -161.399 11.0687ZM-145.446 16.7014C-143.662 13.5131 -146.391 11.0687 -150.379 10.9624C-149.854 12.1315 -149.12 12.8754 -148.49 14.3633C-147.755 16.17 -147.65 16.7014 -145.446 16.7014ZM-135.265 11.0687C-144.711 10.1122 -139.883 22.1215 -137.259 14.5758C-136.63 12.7691 -136.21 12.0252 -135.265 11.0687ZM-119.207 16.4888C-117.423 13.3005 -120.781 10.8561 -124.245 11.0687C-123.51 12.4503 -123.09 12.4503 -122.356 14.3633C-121.726 16.17 -121.201 17.0202 -119.207 16.4888ZM-109.131 11.0687C-113.12 10.7499 -115.219 12.9817 -114.589 16.5951C-110.915 17.1265 -111.23 13.7256 -109.131 11.0687ZM-98.1108 11.0687C-97.4811 12.344 -96.9563 12.7691 -96.1166 14.6821C-95.5919 15.7449 -94.2274 17.8704 -92.863 16.2763C-90.7639 13.9382 -94.7522 10.9624 -98.1108 11.0687ZM-82.9971 11.0687C-86.0408 10.8561 -89.1895 12.6628 -88.6647 15.3198C-88.3499 16.7014 -88.2449 16.2763 -88.035 16.5951C-85.2012 17.1265 -84.6764 13.3005 -82.9971 11.0687ZM-71.9767 11.0687C-71.242 12.344 -70.8221 12.7691 -69.9825 14.6821C-69.4577 15.8512 -68.0933 17.8704 -66.7289 16.2763C-64.6298 13.9382 -68.723 10.9624 -71.9767 11.0687ZM-56.863 11.0687C-60.4315 10.9624 -63.7901 13.088 -62.0059 16.5951C-60.0117 16.9139 -59.5919 16.0637 -58.9621 14.6821C-58.0175 12.6628 -57.7026 12.344 -56.863 11.0687ZM-40.8047 16.5951C-39.0204 13.088 -42.274 10.9624 -45.8426 10.9624C-45.2128 12.2377 -44.688 12.4503 -44.0583 14.3633C-43.2187 16.3825 -43.3236 17.0202 -40.8047 16.5951ZM-30.8338 11.0687C-34.5073 10.8561 -37.551 13.1942 -35.8717 16.5951C-33.8776 16.9139 -33.4577 16.0637 -32.828 14.6821C-31.9883 12.7691 -31.5685 12.344 -30.8338 11.0687ZM-19.8134 11.0687C-18.554 12.7691 -18.6589 12.2377 -17.7143 14.6821C-17.2945 15.8512 -15.8251 17.7642 -14.4606 16.3825C-12.3615 14.0445 -16.14 10.8561 -19.8134 11.0687ZM-4.69971 11.0687C-8.05829 10.9624 -12.0466 13.9382 -9.94751 16.2763C-8.47815 17.8704 -7.11371 15.7449 -6.69391 14.6821C-5.95917 12.9817 -5.32947 12.1315 -4.69971 11.0687ZM11.3586 16.5951C12.5131 15.1072 12.0933 13.6193 10.9388 12.4503C9.88922 11.4938 8.2099 10.9624 6.42566 11.0687C9.67932 15.8512 8 17.2328 11.3586 16.5951ZM21.4344 11.0687C17.7609 10.9624 13.8776 14.3633 16.3965 16.4888C17.7609 17.6579 19.0204 15.8512 19.4402 14.6821C20.3848 12.4503 20.6997 12.5566 21.4344 11.0687ZM32.4548 11.0687C33.3994 12.2377 33.8192 12.6628 34.449 14.5758C34.8688 15.7449 36.0233 17.9767 37.7026 16.2763C39.8018 14.0445 35.7084 10.8561 32.4548 11.0687ZM63.9417 16.5951C64.7813 12.7691 62.3673 10.9624 58.5889 11.0687C59.5335 12.4503 59.7434 12.4503 60.5831 14.6821C61.3178 16.7014 61.6327 17.0202 63.9417 16.5951ZM84.6181 11.0687C87.4519 14.3633 86.2974 15.4261 87.6618 16.3825C91.1254 18.9332 92.3848 10.431 84.6181 11.0687ZM99.7318 11.0687C95.9533 10.9624 92.9096 13.4068 94.7988 16.7014C97.0029 16.7014 97.1079 16.17 97.8426 14.4696C98.6822 12.5566 99.207 12.2377 99.7318 11.0687ZM110.857 11.175C111.907 11.9189 112.327 12.7691 112.851 14.4696C113.271 15.6386 114.426 17.9767 116 16.3825C118.414 14.0445 114.426 10.6436 110.857 11.175ZM126.076 11.175C124.292 10.8561 123.032 11.3875 121.878 12.344C120.618 13.3005 120.198 14.5758 120.618 16.5951C125.341 17.2328 123.347 12.4503 126.076 11.175ZM136.991 11.175C138.776 12.2377 139.615 18.8269 142.134 16.3825C144.443 14.257 140.455 10.6436 136.991 11.175ZM168.583 16.7014C169.318 13.088 166.904 10.6436 163.125 11.175C166.064 13.3005 163.86 17.1265 168.583 16.7014ZM178.344 11.175C174.671 10.6436 170.682 14.0445 173.096 16.3825C174.776 17.8704 175.825 15.6386 176.245 14.5758C176.98 12.8754 177.399 11.9189 178.344 11.175ZM194.297 16.7014C195.872 13.3005 192.828 10.5373 189.155 11.175C191.883 12.2377 189.889 16.7014 194.297 16.7014ZM204.478 11.175C201.015 10.6436 197.026 14.1507 199.23 16.3825C201.749 18.7206 202.799 12.4503 204.478 11.175ZM230.507 11.175C227.149 10.6436 223.265 14.257 225.364 16.3825C226.939 17.9767 228.093 15.7449 228.618 14.5758C229.248 12.7691 229.143 12.2377 230.507 11.175ZM256.641 11.175C253.073 10.6436 249.19 14.0445 251.499 16.3825C253.073 17.8704 254.227 15.8512 254.647 14.5758C255.277 12.9817 255.802 11.8126 256.641 11.175ZM272.595 16.7014C274.379 13.5131 271.545 10.8561 267.767 11.0687C268.187 12.0252 269.026 12.9817 269.551 14.3633C270.286 16.2763 270.496 16.7014 272.595 16.7014ZM282.776 11.0687C278.892 10.6436 276.478 12.9817 277.318 16.5951C281.096 17.4453 280.362 13.9382 282.776 11.0687ZM298.729 16.7014C300.408 13.3005 297.259 10.431 293.586 11.175C296.315 11.9189 294.216 16.5951 298.729 16.7014ZM308.91 11.0687C299.359 10.3248 304.396 21.909 306.915 14.5758C307.65 12.4503 307.545 12.6628 308.91 11.0687ZM334.939 11.0687C331.055 10.7499 328.746 12.8754 329.586 16.5951C333.155 17.339 332.84 13.6193 334.939 11.0687ZM361.073 11.0687C357.609 10.7499 353.726 14.0445 355.93 16.3825C357.294 17.7642 358.659 15.7449 359.079 14.5758C359.918 12.6628 360.023 12.4503 361.073 11.0687ZM377.236 16.5951C378.915 13.1942 375.662 10.9624 372.093 11.0687C372.933 12.2377 373.353 12.7691 373.982 14.3633C374.717 16.0637 375.137 16.9139 377.236 16.5951ZM387.207 11.0687C383.848 10.8561 379.755 13.9382 381.959 16.3825C383.324 17.8704 384.688 15.8512 385.213 14.6821C386.157 12.5566 386.367 12.5566 387.207 11.0687ZM403.265 16.5951C405.05 13.1942 401.901 10.9624 398.227 11.0687C398.962 12.2377 399.382 12.5566 400.117 14.3633C400.851 16.0637 401.271 16.9139 403.265 16.5951ZM413.341 11.0687C409.773 10.8561 406.414 13.1942 408.303 16.5951C410.192 16.9139 410.717 16.17 411.347 14.6821C412.187 12.7691 412.606 12.4503 413.341 11.0687ZM424.362 11.0687C426.251 14.1507 427.72 18.4018 429.609 16.3825C430.974 14.8947 429.504 10.7499 424.362 11.0687ZM450.496 11.0687C451.545 12.4503 451.755 12.6628 452.49 14.6821C453.015 15.8512 454.274 17.7642 455.743 16.3825C457.948 14.0445 454.064 10.7499 450.496 11.0687ZM481.983 16.4888C482.822 12.7691 480.408 10.7499 476.63 11.175C478.939 13.8319 478.204 17.4453 481.983 16.4888ZM491.638 11.0687C488.28 10.9624 484.396 13.9382 486.391 16.2763C487.755 17.7642 489.12 15.9574 489.644 14.6821C490.379 12.9817 491.114 12.2377 491.638 11.0687ZM508.117 16.4888C508.851 12.8754 506.647 10.8561 502.764 11.0687C504.023 12.9817 503.708 12.2377 504.653 14.5758C505.388 16.3825 506.227 16.9139 508.117 16.4888ZM517.773 11.0687C514.519 11.0687 510.426 13.8319 512.525 16.2763C513.994 17.8704 515.254 15.7449 515.778 14.6821C516.513 12.9817 517.248 12.1315 517.773 11.0687ZM544.117 11.175C540.128 10.431 537.294 13.7256 538.974 16.7014C543.487 16.5951 541.388 11.9189 544.117 11.175ZM44.1049 8.62432C43.4752 6.3925 41.7959 5.96739 39.9067 5.11717C37.9125 6.49877 36.863 6.17994 35.9183 8.62432L40.4315 11.8126C40.4315 11.7064 40.7463 11.3875 40.8513 11.2812C41.586 10.431 40.8513 11.175 41.6909 10.3248C41.7959 10.3248 44 8.62432 44.1049 8.62432ZM-142.822 12.6628C-141.563 10.1122 -141.563 10.5373 -138.834 9.04943C-139.044 6.28622 -140.828 6.60505 -142.717 5.11717C-144.606 5.86111 -146.286 6.3925 -146.915 8.62432C-145.551 10.6436 -146.391 8.19921 -142.822 12.6628ZM-116.688 12.5566C-115.219 9.89964 -115.429 10.5373 -112.805 9.04943C-112.91 6.81761 -115.534 4.26695 -118.892 6.28622C-120.676 7.34899 -120.257 6.92388 -120.781 8.62432C-119.522 10.2185 -119.312 8.94315 -116.688 12.5566ZM-86.5656 8.62432C-87.1953 6.49877 -88.6647 6.28622 -90.554 5.11717C-92.3382 6.17994 -94.0175 6.28622 -94.6472 8.62432L-93.7026 9.47453C-93.1779 9.89964 -93.0729 9.79337 -92.5481 10.2185C-92.0233 10.6436 -92.0233 10.5373 -91.6035 11.0687C-91.6035 11.175 -91.4985 11.2812 -91.3936 11.2812C-91.3936 11.3875 -91.2886 11.4938 -91.1837 11.6001L-90.7639 12.1315C-90.7639 12.1315 -90.6589 12.344 -90.554 12.344C-88.035 8.62432 -87.9301 10.6436 -86.5656 8.62432ZM-60.4315 8.62432C-61.0612 6.3925 -62.5306 6.17994 -64.4199 5.11717C-66.519 6.28622 -67.7784 6.28622 -68.5131 8.62432L-68.0933 9.04943C-66.414 10.431 -66.6239 9.58081 -65.0496 11.6001L-64.4199 12.344C-64.3149 12.344 -64.3149 12.0252 -64.2099 12.1315L-63.6851 11.2812C-62.5306 9.79337 -62.7405 10.431 -61.586 9.68709C-60.5364 9.04943 -61.1662 9.68709 -60.4315 8.62432ZM-34.2974 8.62432C-35.0321 6.28622 -36.2916 6.28622 -38.3907 5.11717C-40.1749 6.07367 -41.7493 6.49877 -42.379 8.62432C-41.5394 9.58081 -40.3848 9.89964 -39.3353 10.9624L-38.3907 12.344C-38.2857 12.2377 -38.1808 12.0252 -38.1808 12.1315C-38.0758 12.1315 -37.9708 11.9189 -37.9708 11.8126C-36.1866 9.58081 -36.6064 10.5373 -34.9271 9.26198C-34.2974 8.73059 -34.8221 9.26198 -34.2974 8.62432ZM-8.16327 8.62432C-9.00293 6.07367 -11.7318 5.22345 -12.2566 5.32973C-12.5714 5.32973 -15.4053 6.17994 -16.3499 8.62432L-15.6152 9.26198C-15.5102 9.26198 -15.4053 9.36826 -15.3003 9.47453C-13.8309 10.5373 -14.0408 9.89964 -12.6764 11.8126H-11.8367C-9.52771 8.94315 -9.31781 10.1122 -8.16327 8.62432ZM17.9708 8.62432C17.1312 5.96739 14.1924 5.22345 13.8776 5.32973C13.6677 5.32973 10.6239 6.17994 9.78424 8.62432C11.2537 10.6436 11.6735 8.62432 13.8776 12.5566C16.8163 9.26198 13.4577 12.344 17.2361 9.26198C17.9708 8.73059 17.446 9.26198 17.9708 8.62432ZM70.2391 8.62432C68.9796 4.58579 63.4169 4.26695 62.0525 8.62432C63.6268 10.8561 63.5219 8.30549 66.0408 12.4503C68.7697 8.83687 68.9796 10.431 70.2391 8.62432ZM96.3732 8.62432C95.6385 6.28622 94.274 6.3925 92.1749 5.11717C90.2857 6.3925 89.0262 6.28622 88.1866 8.62432C89.551 10.5373 90.3907 9.1557 92.1749 12.5566C94.9038 9.36826 92.9096 11.4938 95.6385 9.36826C96.3732 8.73059 95.7434 9.36826 96.3732 8.62432ZM122.507 8.62432C121.563 4.90462 116.315 3.94812 114.321 8.62432C115.895 10.6436 117.05 9.68709 117.994 12.5566L122.507 8.62432ZM148.641 8.62432C147.907 6.60505 146.332 6.17994 144.863 5.11717C142.764 5.75483 141.085 6.60505 140.56 8.62432C142.029 10.8561 143.079 9.47453 144.128 12.5566C144.233 12.4503 144.443 12.2377 144.443 12.2377L146.332 10.5373C147.382 9.68709 147.802 9.89964 148.641 8.62432ZM174.671 8.09293C174.041 6.49877 172.466 5.75483 170.472 5.22345C168.373 6.28622 167.219 6.49877 166.589 8.62432L171.102 12.5566C172.362 9.04943 172.781 11.8126 174.671 8.09293ZM200.91 8.62432C200.175 6.81761 198.81 6.07367 197.026 5.11717C194.297 6.07367 193.248 6.60505 192.723 8.62432L197.236 12.4503C198.391 9.89964 199.545 10.431 200.91 8.62432ZM226.939 8.62432C226.309 6.28622 224.84 6.49877 223.055 5.11717C221.061 6.07367 219.487 6.3925 218.857 8.62432C220.222 10.6436 220.012 8.62432 223.055 12.5566C224.525 10.2185 226.099 10.0059 226.939 8.62432ZM249.19 12.5566C250.344 9.89964 250.344 10.6436 253.073 9.04943C252.968 6.92388 251.708 6.28622 248.77 5.11717C246.776 6.60505 245.726 6.07367 244.991 8.62432C246.776 10.9624 246.671 8.83687 249.19 12.5566ZM275.219 12.5566C276.478 10.0059 276.478 10.5373 279.207 9.04943C278.997 6.3925 277.108 6.3925 275.324 5.11717C273.434 5.75483 271.755 6.49877 271.125 8.62432C272.28 10.2185 272.28 9.47453 273.539 10.431C274.694 11.2812 274.274 11.4938 275.219 12.5566ZM305.341 8.62432C303.452 3.73557 298.204 5.01089 297.259 8.62432C298.204 10.0059 297.889 9.1557 299.359 10.2185L300.723 11.6001C300.828 11.7064 300.933 11.8126 301.038 11.9189L301.668 12.4503C302.822 10.2185 304.187 10.3248 305.341 8.62432ZM331.475 8.62432C330.741 6.3925 329.271 6.3925 327.487 5.11717C325.388 6.28622 324.128 6.17994 323.394 8.62432C324.023 9.58081 324.968 9.79337 327.172 11.9189L327.802 12.4503C328.956 10.431 330.426 10.2185 331.475 8.62432ZM357.609 8.62432C356.77 6.3925 355.615 6.28622 353.621 5.11717C352.886 5.436 352.152 5.86111 351.312 6.28622C349.843 7.24271 350.052 6.71133 349.423 8.62432C350.367 9.89964 350.787 9.58081 351.837 10.431C353.096 11.3875 352.571 11.4938 353.621 12.5566C355.825 8.73059 356.245 10.5373 357.609 8.62432ZM379.65 5.11717C377.761 6.07367 376.292 6.49877 375.662 8.62432L380.07 11.8126C381.329 10.2185 381.434 10.1122 383.743 9.1557C383.324 6.49877 381.854 6.28622 379.65 5.11717ZM409.878 8.62432C409.143 6.49877 407.673 6.07367 405.784 5.11717C404 6.07367 402.426 6.60505 401.691 8.62432C402.95 10.3248 403.265 9.04943 405.155 11.4938C405.259 11.6001 405.364 11.7064 405.364 11.8126H406.204C408.408 9.04943 408.723 10.1122 409.878 8.62432ZM436.012 8.62432C435.382 6.49877 433.808 6.07367 431.918 5.11717C429.714 6.28622 428.245 6.49877 427.825 9.1557C430.029 10.0059 430.659 10.7499 431.918 12.344L435.382 9.36826C435.907 8.73059 435.487 9.26198 436.012 8.62432ZM462.146 8.62432C461.516 6.81761 461.831 7.34899 460.571 6.49877C459.627 5.86111 458.787 5.436 458.052 5.11717C456.058 6.3925 454.274 6.49877 454.064 9.04943C456.898 10.6436 456.373 9.89964 458.052 12.5566C458.997 11.4938 458.472 11.3875 459.732 10.431L461.411 9.36826C462.146 8.73059 461.516 9.47453 462.146 8.62432ZM483.767 12.4503C483.977 12.344 484.082 12.0252 484.082 12.1315L485.866 10.431C486.915 9.58081 487.335 9.89964 488.175 8.62432C487.65 6.60505 486.181 5.96739 484.082 5.22345C482.192 6.07367 480.723 6.81761 480.093 8.62432C481.248 10.2185 482.612 10.3248 483.767 12.4503ZM514.309 8.62432C513.889 7.13644 513.994 7.24271 512.735 6.3925C510.321 4.90462 510.006 5.11717 508.012 6.3925C506.752 7.24271 506.752 7.03016 506.227 8.62432C507.172 10.0059 507.277 9.26198 508.536 10.3248C509.586 11.0687 509.481 11.3875 510.216 12.5566L514.309 8.62432ZM540.443 8.62432C539.813 6.49877 538.449 5.96739 536.35 5.22345C534.356 6.07367 532.991 6.71133 532.362 8.62432C533.201 10.2185 534.671 9.89964 536.035 12.4503L537.19 11.3875C538.029 10.431 537.085 11.175 538.134 10.431C539.079 9.58081 539.603 9.89964 540.443 8.62432ZM-153.003 2.14141L-158.671 2.35397L-168.536 2.24769C-166.857 5.64856 -163.708 2.46024 -162.239 8.73059C-159.615 9.04943 -158.776 9.36826 -157.516 10.6436C-158.88 13.6193 -158.356 9.58081 -161.19 15.4261C-162.764 18.7206 -164.128 18.2955 -165.388 19.6771C-161.504 22.2278 -159.405 23.078 -155.627 25.8412C-153.738 23.6094 -149.015 21.4839 -146.496 19.3583C-148.805 17.6579 -149.12 18.7206 -150.484 15.5323C-151.848 12.5566 -151.743 12.9817 -154.262 11.2812C-153.633 9.58081 -151.953 9.04943 -149.434 8.73059C-148.7 3.52301 -145.236 5.22345 -143.242 2.24769L-153.003 2.14141ZM-126.974 2.24769H-132.536H-142.402C-141.563 3.94812 -140.513 3.73557 -138.624 4.90462C-136.945 5.96739 -136.945 6.81761 -135.895 8.51804C-133.901 9.58081 -132.641 9.1557 -131.487 11.2812C-138.204 15.6386 -132.117 15.0009 -138.309 19.0395C-139.149 19.4646 -138.624 18.9332 -139.254 19.6771C-137.994 20.5274 -136.63 21.6964 -134.531 22.6529C-132.117 23.8219 -131.172 24.5659 -129.598 25.8412C-126.869 22.9717 -122.566 22.0152 -120.362 19.1458C-122.671 18.5081 -123.405 17.6579 -124.35 15.5323C-125.924 12.2377 -125.504 13.1942 -128.128 11.2812C-127.289 9.47453 -125.819 8.94315 -123.3 8.83687C-122.776 3.73557 -118.997 5.11717 -117.108 2.24769H-126.974ZM-100.84 2.24769H-106.507C-108.082 2.24769 -109.656 2.24769 -111.23 2.24769C-112.07 2.24769 -113.224 2.14141 -113.959 2.24769L-116.268 2.88535C-107.767 7.45527 -112.175 6.3925 -109.761 8.51804C-107.872 9.47453 -106.297 9.36826 -105.353 11.2812C-108.082 13.088 -107.557 12.1315 -108.921 15.4261C-109.971 17.9767 -110.076 17.7642 -111.65 18.6144L-112.28 18.9332C-112.91 19.4646 -112.595 19.0395 -113.12 19.5709C-110.496 21.4839 -105.668 23.8219 -103.569 25.8412C-101.889 23.2906 -99.2653 23.3968 -94.2274 19.4646C-96.3265 17.5516 -96.7463 18.8269 -98.3207 15.5323C-100 12.1315 -99.2653 13.3005 -101.994 11.2812C-101.469 10.3248 -101.469 10.2185 -100.42 9.58081C-98.9504 8.73059 -98.1108 9.04943 -97.4811 8.30549C-96.2216 6.71133 -97.1662 6.07367 -94.7522 4.79834C-92.968 3.73557 -91.9184 3.73557 -90.9738 2.24769H-100.84ZM-74.7056 2.24769H-80.3732H-90.2391C-89.2945 3.84185 -88.2449 3.62929 -86.3557 4.79834C-84.7814 5.86111 -84.6764 6.92388 -83.6268 8.51804C-81.8426 9.58081 -80.1633 9.36826 -79.2187 11.2812C-81.9475 12.9817 -81.5277 12.1315 -82.8922 15.4261C-83.312 16.5951 -83.6268 17.4453 -84.3615 18.083C-85.2012 18.8269 -86.0408 18.7206 -86.9854 19.5709C-84.5714 21.2713 -79.2187 23.9282 -77.5394 25.8412C-76.2799 24.0345 -75.3353 23.9282 -73.0262 22.7592C-70.9271 21.6964 -69.4577 20.4211 -68.0933 19.4646C-69.9825 17.6579 -70.7172 18.6144 -72.1866 15.5323C-73.8659 12.1315 -72.9213 13.4068 -75.86 11.2812C-75.0204 9.58081 -73.7609 8.83687 -71.0321 8.83687C-70.5073 3.52301 -66.7289 5.22345 -64.8397 2.24769H-74.7056ZM-48.5714 2.24769H-54.2391H-64.105C-63.1603 3.84185 -61.9009 3.84185 -60.2216 4.69206C-57.9125 5.86111 -58.8572 6.49877 -57.5977 8.41176C-55.8134 9.58081 -54.1341 9.36826 -53.0845 11.2812C-56.0233 13.1942 -55.0787 12.2377 -56.758 15.4261C-57.2828 16.5951 -57.7026 17.2328 -58.4373 17.8704L-60.8513 19.5709C-56.6531 22.5466 -52.9796 23.8219 -51.4053 25.8412C-49.3062 23.1843 -43.2187 21.8027 -42.1691 19.0395C-46.4723 17.5516 -45.6326 14.7884 -47.5219 12.8754C-48.6764 11.4938 -48.8863 12.4503 -49.621 10.8561C-47.7318 9.04943 -46.9971 9.58081 -45.2128 8.41176C-44.0583 6.81761 -44.3732 5.96739 -42.4839 4.79834C-40.6997 3.73557 -39.6501 3.84185 -38.7056 2.24769H-48.5714ZM-22.4373 2.24769H-28.105H-37.9708C-37.0262 3.73557 -35.9767 3.73557 -34.1924 4.79834C-32.3032 5.96739 -32.6181 6.60505 -31.4636 8.41176C-29.7842 9.58081 -28.7347 9.04943 -27.0554 10.8561C-28.2099 13.3005 -28 10.1122 -30.6239 15.5323C-31.5685 17.4453 -31.8834 17.6579 -33.3528 18.6144C-33.4577 18.7206 -33.7726 18.9332 -33.8776 18.9332C-34.5073 19.3583 -34.1924 19.0395 -34.7172 19.5709C-33.0379 20.7399 -32.6181 21.3776 -30.0991 22.5466C-27.5802 23.8219 -26.6356 24.0345 -25.2711 25.8412C-23.9067 24.0345 -19.6035 22.2278 -15.8251 19.5709C-17.1895 18.083 -18.449 18.6144 -19.8134 15.8512C-21.5977 12.344 -20.3382 13.3005 -23.5919 11.2812C-22.4373 9.04943 -20.863 9.68709 -19.1837 8.41176C-17.9242 6.81761 -18.1341 5.96739 -16.4548 4.79834C-14.5656 3.62929 -13.5161 3.84185 -12.5714 2.24769H-22.4373ZM3.69678 2.24769H-1.97083H-11.8367C-10.8922 3.73557 -9.84259 3.73557 -8.05829 4.79834C-4.90961 6.71133 -7.32361 7.66782 -4.06995 8.94315C-3.54517 9.1557 -3.33527 9.1557 -2.70557 9.47453C-1.55103 10.0059 -1.34113 10.431 -0.816345 11.2812C-3.75513 13.4068 -2.70557 11.9189 -4.48981 15.5323C-5.95917 18.5081 -6.58893 17.6579 -8.58307 19.4646C-7.00873 20.6336 -6.37903 21.3776 -3.96503 22.5466C-1.44604 23.8219 -0.606445 23.8219 0.757996 25.8412C2.7522 23.7157 5.90088 22.7592 10.309 19.5709C8.83966 18.083 7.7901 19.4646 6.32068 15.7449C4.85132 12.344 5.3761 13.1942 2.5423 11.2812C3.48688 9.36826 5.1662 9.58081 6.95044 8.51804C8.10498 6.81761 8 5.96739 9.67932 4.90462C11.4636 3.73557 12.723 3.84185 13.4577 2.24769H3.69678ZM29.726 2.24769H24.1633H14.2974C15.242 3.84185 16.1866 3.62929 18.0758 4.79834C21.2245 6.71133 18.8105 7.7741 21.9592 8.94315C23.7434 9.58081 24.4781 9.47453 25.3177 11.2812C22.7988 13.088 23.2186 12.0252 21.7493 15.2135C20.6997 17.339 20.1749 18.2955 17.6559 19.0395C19.1254 22.1215 25.1078 22.9717 26.8922 25.8412C29.2012 23.5031 32.035 22.7592 36.4431 19.5709C34.8688 17.9767 34.0292 19.4646 32.4548 15.7449C30.8804 12.2377 31.5102 13.088 28.6764 11.2812C29.8309 9.1557 31.0904 9.58081 33.0845 8.51804C34.1341 6.92388 34.1341 6.07367 35.4985 5.01089C36.758 4.16068 38.5423 3.41674 39.5918 2.77907L29.726 2.24769ZM55.86 2.24769H50.1924H40.3265C41.2711 3.73557 42.4257 3.73557 44.2099 4.79834C46.0991 5.96739 45.6793 6.60505 46.8338 8.41176C48.3032 9.47453 49.7726 9.1557 51.3469 10.8561C50.1924 13.088 50.0875 10.6436 47.8834 15.2135C46.7289 17.5516 46.309 18.2955 43.7901 19.0395C45.0496 22.0152 51.242 23.078 53.0262 25.7349C55.6501 23.1843 57.9592 22.9717 62.4723 19.6771C62.3673 19.5709 62.2624 19.3583 62.1574 19.3583C62.1574 19.4646 59.5335 18.1893 58.4839 15.7449C57.1195 12.344 57.5394 13.088 54.8105 11.2812C55.7551 9.47453 57.2245 9.47453 59.2187 8.51804C60.2682 6.92388 60.3732 5.86111 61.9475 4.90462C63.7318 3.73557 64.8863 3.84185 65.726 2.24769H55.86ZM81.9942 2.24769L76.3265 2.14141L66.4606 2.24769C68.6647 5.22345 71.0787 2.99163 72.9679 8.83687C75.5918 8.94315 76.7463 9.58081 77.481 11.2812C74.9621 13.1942 75.3819 12.2377 73.8076 15.5323C72.2332 18.8269 71.8134 17.5516 69.8192 19.4646C71.1837 20.4211 72.1283 21.4839 74.3324 22.5466C76.7463 23.7157 77.9009 23.8219 79.0554 25.8412C80.3148 24.6722 81.7842 23.7157 83.9883 22.6529C86.0875 21.6964 87.8717 20.8462 88.3965 19.0395C82.0991 17.0202 87.5569 15.5323 80.9446 11.2812C82.0991 8.94315 83.2536 9.58081 85.2478 8.51804C87.4519 6.60505 83.3586 7.45527 91.86 2.88535C90.4956 1.82258 84.1982 2.24769 81.9942 2.24769ZM108.338 2.24769H102.461H92.5948C93.5394 3.62929 94.6939 3.73557 96.3732 4.69206C100.047 6.92388 97.0029 7.66782 100.257 8.94315C102.146 9.58081 102.88 9.36826 103.615 11.2812C101.096 12.9817 101.306 12.4503 99.9417 15.5323C98.4723 18.8269 98.1574 17.6579 95.9533 19.3583C97.2128 20.3148 98.3673 21.4839 100.466 22.5466C102.776 23.7157 103.93 24.0345 105.19 25.8412C107.079 24.3533 107.079 24.0345 109.808 22.8655C112.222 21.6964 113.061 20.9525 114.741 19.6771C112.956 17.5516 112.431 19.5709 110.647 15.4261C108.233 9.79337 108.233 13.5131 106.974 10.7499C108.233 9.36826 108.968 9.04943 111.487 8.73059C113.901 4.16068 110.122 7.13644 117.994 2.88535L113.271 2.24769C111.592 2.35397 110.017 2.35397 108.338 2.24769ZM134.367 2.35397L128.595 2.24769L118.834 2.35397C121.983 5.436 124.187 3.62929 125.026 8.62432C127.755 9.04943 128.49 9.26198 129.854 10.7499C128.7 13.5131 128.91 9.58081 126.286 15.3198C125.761 16.3825 125.341 17.339 124.711 17.8704L123.032 18.9332C122.297 19.5709 122.822 18.9332 122.192 19.7834C123.977 21.0587 124.501 21.4839 126.915 22.6529C129.015 23.6094 130.274 24.2471 131.324 25.8412L140.875 19.7834C138.985 17.5516 138.671 19.5709 136.781 15.3198C136.362 14.4696 135.837 13.1942 135.417 12.6628C133.948 11.175 134.052 12.6628 133.108 10.7499C134.472 9.26198 135.312 9.04943 137.936 8.62432C138.671 3.84185 140.98 5.32973 144.233 2.35397H134.367ZM160.606 2.24769H154.624L144.968 2.35397C150.006 6.81761 149.271 2.6728 151.37 8.73059C153.994 8.94315 154.834 9.47453 156.093 10.7499C154.729 13.4068 154.729 9.79337 152.42 15.3198C150.636 19.4646 150.006 17.6579 148.327 19.7834L157.878 25.8412C159.032 23.9282 164.91 21.2713 167.009 19.7834C166.064 18.6144 167.219 19.6771 165.854 18.8269C164.385 17.8704 164.07 18.083 163.02 15.6386C161.341 11.7064 162.391 13.4068 159.347 11.2812C159.872 9.47453 161.236 9.04943 163.755 8.73059C164.805 6.81761 164.385 5.86111 166.379 4.90462C168.373 3.84185 168.793 3.84185 170.367 2.35397L160.606 2.24769ZM186.741 2.24769H180.758L171.207 2.35397C173.411 5.86111 176.56 2.99163 177.294 8.62432C180.023 9.04943 180.653 9.1557 182.122 10.7499C180.968 13.5131 180.968 9.79337 178.554 15.4261C176.77 19.5709 176.245 17.6579 174.356 19.6771C178.344 22.4403 180.338 23.078 184.012 25.8412C185.796 23.2906 189.155 22.4403 193.143 19.7834C191.464 17.7642 190.624 19.0395 189.155 15.6386C187.475 11.6001 188.42 13.3005 185.481 11.2812C186.111 9.26198 187.58 9.04943 190.204 8.73059C191.044 3.41674 193.668 5.436 196.396 2.35397L186.741 2.24769ZM212.77 2.24769H206.892L197.341 2.35397C199.65 5.96739 201.749 2.24769 203.638 8.73059C206.262 8.94315 206.997 9.36826 208.257 10.7499C207.522 12.4503 205.843 12.5566 204.583 15.3198C203.009 19.0395 203.324 17.5516 201.329 18.9332C200.595 19.4646 201.12 19.0395 200.49 19.6771C204.163 22.0152 207.522 23.7157 210.146 25.8412C211.72 23.6094 216.968 21.3776 219.277 19.7834C218.542 18.9332 218.962 19.3583 218.017 18.7206C217.703 18.5081 217.283 18.4018 216.863 18.083C216.023 17.4453 215.708 16.8077 215.289 15.6386C214.029 12.7691 214.554 12.2377 211.51 11.7064C212.245 9.36826 213.085 9.1557 215.918 8.73059C215.918 8.62432 216.023 8.30549 216.023 8.41176C216.548 9.79337 215.603 6.60505 218.542 4.90462C220.117 3.94812 221.376 3.62929 222.531 2.35397L212.77 2.24769ZM238.904 2.24769L233.236 2.35397L223.475 2.24769C224.525 3.94812 225.679 3.84185 227.254 4.90462C229.038 6.07367 228.828 7.03016 229.983 8.51804C232.187 9.58081 233.131 9.04943 234.286 11.2812C231.662 13.088 232.292 11.9189 230.717 15.4261C229.248 18.7206 229.458 17.7642 227.464 19.0395C226.729 19.4646 227.254 19.0395 226.624 19.6771C230.927 22.6529 233.866 23.5031 235.44 25.7349C237.434 24.991 238.379 23.7157 240.583 22.6529C242.577 21.5901 244.047 20.3148 245.411 19.3583C242.787 17.4453 242.997 19.1458 241.423 15.6386C240.898 14.5758 240.478 13.7256 239.953 12.9817C238.484 11.3875 238.484 12.344 237.749 10.8561C239.009 9.26198 239.953 8.94315 242.472 8.73059C243.102 3.41674 246.566 5.22345 248.665 2.35397L238.904 2.24769ZM265.038 2.24769L259.16 2.14141L249.399 2.35397C249.924 2.6728 252.023 4.0544 253.073 4.69206C254.857 5.75483 254.857 6.92388 256.117 8.51804C257.901 9.47453 259.475 9.47453 260.525 11.2812C257.796 13.088 258.216 12.0252 256.851 15.4261C255.802 17.9767 255.802 17.7642 254.227 18.6144L252.758 19.6771C256.746 22.5466 259.265 23.1843 262.204 25.7349C263.359 23.7157 267.662 22.4403 271.545 19.8897C270.601 18.7206 271.545 19.6771 270.286 18.7206C265.038 14.8947 270.076 15.8512 263.778 11.2812C264.618 9.36826 265.878 8.94315 268.606 8.73059C269.341 3.52301 272.49 5.22345 274.799 2.35397L265.038 2.24769ZM291.067 2.24769L285.294 2.14141C281.726 2.56652 277.213 1.61003 275.638 2.88535C278.787 4.69206 280.676 4.47951 281.936 8.73059C284.56 9.04943 285.294 9.36826 286.659 10.6436C285.399 13.3005 285.19 10.1122 282.985 15.4261C281.936 17.8704 282.146 17.5516 280.257 18.6144L279.627 18.9332C278.997 19.4646 279.417 19.0395 278.787 19.6771C280.152 20.6336 281.306 21.5901 283.51 22.6529C286.239 24.0345 286.554 24.4596 288.338 25.7349C289.388 24.0345 290.542 23.8219 292.851 22.6529C294.845 21.6964 296.315 20.4211 297.574 19.3583C295.37 17.6579 295.16 18.8269 293.586 15.5323C292.222 12.6628 292.431 12.9817 289.913 11.2812C291.172 8.41176 293.481 9.47453 294.426 8.30549C295.79 6.28622 294.426 6.3925 297.155 4.79834C298.939 3.73557 299.988 3.62929 300.933 2.35397L291.067 2.24769ZM317.201 2.24769H311.534H304.082C303.557 2.24769 303.347 2.24769 302.822 2.35397C301.668 2.6728 302.402 2.35397 301.773 2.88535C309.959 7.24271 306.076 6.49877 308.28 8.51804C310.274 9.58081 311.009 8.94315 312.688 10.6436C311.743 12.7691 310.799 11.175 309.015 15.4261C307.23 19.6771 306.706 17.7642 304.921 19.6771C308.175 21.8027 312.583 24.1408 314.577 25.8412C316.991 23.2906 322.554 21.3776 323.708 19.0395C318.041 17.2328 322.134 15.5323 316.047 11.2812C316.781 9.58081 318.146 8.94315 320.875 8.83687C321.504 3.62929 324.863 5.22345 327.067 2.35397L317.201 2.24769ZM343.335 2.24769H337.668H327.802C328.641 3.73557 329.796 3.62929 331.685 4.90462C333.364 5.96739 333.259 6.81761 334.309 8.51804C336.408 9.58081 337.668 9.1557 338.717 11.2812C332.735 15.2135 337.038 16.2763 332.525 18.7206L331.055 19.5709C335.044 22.3341 338.507 23.8219 340.501 25.8412C342.286 22.9717 348.478 22.1215 349.843 19.0395C345.434 17.6579 346.169 14.8947 344.385 12.8754C343.23 11.4938 343.02 12.4503 342.286 10.8561C343.02 10.1122 342.915 10.0059 344.07 9.36826C344.7 9.1557 344.91 9.1557 345.434 8.94315C345.539 8.83687 345.749 8.83687 345.749 8.83687C348.058 7.7741 346.694 6.3925 349.423 4.79834C351.207 3.73557 352.152 3.73557 353.201 2.24769H343.335ZM369.469 2.24769H363.802H353.936C354.776 3.73557 355.93 3.84185 357.819 4.79834C359.918 5.75483 359.289 6.60505 360.443 8.51804C362.227 9.58081 363.907 9.36826 364.956 11.2812C359.604 14.6821 362.227 16.0637 359.813 18.083C358.974 18.6144 359.289 18.2955 358.659 18.6144L357.189 19.5709C358.764 20.7399 359.499 21.4839 361.808 22.6529C364.327 23.9282 365.166 24.1408 366.636 25.7349C368 23.8219 371.464 22.9717 375.977 19.4646C374.087 17.6579 373.458 18.5081 371.988 15.5323C370.309 12.0252 371.044 13.3005 368.315 11.2812C369.469 9.1557 370.939 9.79337 372.828 8.41176C373.982 6.71133 373.668 5.86111 375.452 4.79834C377.446 3.62929 378.286 4.0544 379.335 2.24769H369.469ZM395.604 2.24769H389.831H380.07C380.91 3.84185 381.959 3.62929 383.848 4.79834C385.633 5.96739 385.423 6.71133 386.577 8.41176C388.257 9.58081 390.041 9.36826 390.985 11.2812C385.213 15.0009 389.411 15.5323 384.688 18.6144C383.638 19.3583 384.268 18.6144 383.324 19.5709C384.583 20.5274 385.843 21.5901 387.942 22.6529C390.356 23.8219 391.405 24.1408 392.77 25.8412C394.134 24.0345 394.869 23.9282 397.283 22.7592C399.802 21.4839 400.431 20.8462 402.111 19.4646C400.327 17.6579 399.487 18.4018 398.122 15.5323C397.598 14.5758 397.283 13.6193 396.653 12.8754C395.079 11.175 395.394 12.7691 394.344 10.5373C395.813 9.36826 397.493 9.47453 398.962 8.41176C400.012 6.71133 399.802 5.96739 401.586 4.79834C403.37 3.73557 404.525 3.84185 405.469 2.24769H395.604ZM421.738 2.24769H416.07H406.204C407.044 3.84185 408.198 3.62929 409.983 4.79834C413.866 7.24271 409.458 7.34899 415.02 9.26198C416.385 9.68709 416.385 9.79337 417.224 10.5373C415.755 13.7256 416.28 9.68709 413.551 15.5323C412.292 18.1893 411.137 17.7642 409.458 19.5709C414.391 23.2906 416.91 23.3968 418.904 25.8412C420.478 23.9282 424.362 22.4403 428.245 19.5709L427.72 19.1458C426.251 18.083 425.411 17.9767 424.362 15.8512C422.577 12.344 423.732 13.3005 420.583 11.2812C421.528 9.36826 423.312 9.58081 424.991 8.41176C426.251 6.71133 425.936 5.96739 427.72 4.79834C429.714 3.62929 430.554 4.0544 431.499 2.24769H421.738ZM447.872 2.24769H442.204H432.338C433.388 3.94812 434.122 3.62929 436.117 4.79834C438.006 5.96739 437.586 6.60505 438.845 8.41176C440.735 9.79337 442.204 9.1557 443.359 11.2812C440.63 13.1942 441.259 12.0252 439.58 15.5323C438.216 18.5081 437.481 17.6579 435.592 19.4646C440.525 23.3968 443.254 23.3968 444.933 25.7349C446.507 24.1408 451.02 21.909 454.379 19.5709L452.07 18.1893C449.341 16.3825 452.07 14.6821 446.717 11.2812C447.662 9.36826 449.341 9.58081 451.125 8.41176C452.49 6.49877 451.44 5.86111 453.749 4.69206C455.429 3.84185 456.793 3.84185 457.633 2.24769H447.872ZM473.901 2.24769H468.233H458.472C459.417 3.73557 460.466 3.73557 462.251 4.79834C465.19 6.60505 463.195 7.7741 466.134 8.94315C467.918 9.58081 468.548 9.47453 469.388 11.2812C466.974 13.088 467.394 12.0252 465.924 15.2135C464.77 17.5516 464.455 18.1893 461.831 19.0395C463.3 22.2278 469.283 22.9717 471.067 25.8412C472.956 23.9282 476.735 22.2278 480.513 19.5709C479.044 18.083 477.994 19.3583 476.525 15.7449C475.055 12.1315 475.895 13.1942 472.851 11.2812C473.691 9.58081 475.055 9.04943 477.469 8.73059C478.729 2.56652 481.983 5.75483 483.767 2.24769H473.901ZM500.035 2.24769H494.367H484.501C485.446 3.73557 486.601 3.73557 488.28 4.79834C491.324 6.60505 489.224 7.7741 492.268 8.94315C493.948 9.58081 494.682 9.47453 495.522 11.2812C492.583 13.4068 493.633 12.0252 491.848 15.5323C490.379 18.6144 489.749 17.7642 487.755 19.4646C490.484 21.3776 494.682 23.7157 496.991 25.8412C500.665 22.7592 502.134 23.078 506.647 19.5709C504.968 17.8704 504.233 19.4646 502.659 15.7449C501.19 12.2377 501.819 13.088 498.88 11.2812C500.14 8.83687 501.294 9.68709 503.394 8.51804C504.443 6.92388 504.548 5.86111 506.017 4.90462C507.907 3.62929 508.956 3.94812 509.901 2.24769H500.035ZM526.169 2.24769H520.501H510.636C511.685 3.94812 512.525 3.62929 514.414 4.79834C515.778 5.54228 517.353 8.51804 517.353 8.51804L517.983 8.83687C518.087 8.83687 518.192 8.83687 518.297 8.94315C520.082 9.58081 520.921 9.47453 521.656 11.2812C519.032 13.088 519.452 12.344 517.983 15.5323C516.408 18.9332 516.093 17.5516 513.994 19.4646C515.254 20.4211 516.408 21.4839 518.507 22.5466C520.921 23.8219 522.076 23.9282 523.23 25.7349C526.064 23.2906 528.583 22.7592 532.781 19.5709L530.577 18.083C527.534 15.6386 530.262 14.5758 525.015 11.2812C526.274 8.94315 527.324 9.58081 529.423 8.51804C531.942 6.28622 526.694 7.56155 536.035 2.88535C534.566 1.82258 528.688 2.24769 526.169 2.24769ZM548 4.37323C545.481 1.50375 548.525 2.24769 536.77 2.24769C537.714 3.62929 538.764 3.73557 540.548 4.79834C543.697 6.71133 541.388 7.7741 544.431 8.94315C546.95 9.89964 545.796 9.1557 548 11.0687V11.4938C545.481 12.2377 545.166 13.1942 544.117 15.5323C542.437 18.9332 542.332 17.5516 540.023 19.3583C542.122 21.0587 544.746 22.7592 548 24.2471V29.986H-172V27.6479H-157.936C-158.671 25.4161 -161.294 24.6722 -163.604 23.3968C-166.857 21.6964 -166.962 21.4839 -168.851 18.6144C-170.426 19.8897 -169.901 20.5274 -172 21.6964V16.7014C-170.006 15.9574 -170.741 13.8319 -172 12.7691V9.68709C-169.691 10.6436 -170.216 11.2812 -168.536 12.4503C-167.277 9.68709 -166.227 10.5373 -164.863 8.62432C-165.703 6.3925 -166.962 6.3925 -168.851 5.22345C-170.006 5.64856 -170.426 6.17994 -172 6.71133V4.0544C-170.636 3.52301 -170.006 3.20418 -169.376 2.35397H-172V0.0158691H548V4.37323Z" fill="#13354A"/>
<path fill-rule="evenodd" clip-rule="evenodd" d="M53.0264 20.6328C55.7552 18.9323 57.3296 12.5557 51.0322 14.2561C50.7173 16.2754 50.7173 17.8696 52.0818 19.57L53.0264 20.6328ZM50.1925 2.24683C50.9272 4.37237 51.3471 4.90375 53.0264 5.64769C54.9156 5.01003 55.1255 4.58492 55.8602 2.24683H65.7261C64.8864 3.84098 63.7319 3.73471 61.9476 4.90375C60.3733 5.86025 60.2683 6.92302 59.2188 8.51718C57.2246 9.47367 55.7552 9.47367 54.8106 11.2804C57.5395 13.0871 57.1197 12.3432 58.4841 15.744C59.5337 18.1884 62.1576 19.4637 62.1576 19.3574C62.2625 19.3574 62.3675 19.57 62.4724 19.6763C57.9593 22.9709 55.6503 23.1834 53.0264 25.7341C51.2421 23.0771 45.0497 22.0144 43.7902 19.0386C46.3092 18.2947 46.729 17.5507 47.8835 15.2126C50.0876 10.6427 50.1925 13.0871 51.3471 10.8553C49.7727 9.15484 48.3033 9.47367 46.8339 8.4109C45.6794 6.60419 46.0993 5.96653 44.21 4.79748C42.4258 3.73471 41.2713 3.73471 40.3267 2.24683H50.1925Z" fill="#FCFBFC"/>
<path fill-rule="evenodd" clip-rule="evenodd" d="M81.2597 14.1499C76.2218 11.5993 75.802 17.5508 79.0556 20.6328C81.3647 19.3575 81.6795 16.488 81.2597 14.1499ZM76.3268 2.14062C76.9565 4.26617 77.3763 5.22266 79.5804 5.64777C81.1548 4.79755 81.4696 4.47872 81.9944 2.2469C84.1985 2.2469 90.4959 1.82179 91.8604 2.88456C83.3589 7.45448 87.4522 6.60426 85.2481 8.51725C83.2539 9.58002 82.0994 8.94236 80.9448 11.2805C87.5571 15.5315 82.0994 17.0194 88.3968 19.0387C87.872 20.8454 86.0877 21.6956 83.9886 22.6521C81.7845 23.7149 80.3151 24.6714 79.0556 25.8404C77.9011 23.8212 76.7466 23.7149 74.3326 22.5458C72.1285 21.4831 71.1839 20.4203 69.8194 19.4638C71.8136 17.5508 72.2334 18.8261 73.8078 15.5315C75.3821 12.237 74.9623 13.1934 77.4813 11.2805C76.7466 9.58002 75.5921 8.94236 72.9681 8.83608C71.0789 2.99084 68.6649 5.22266 66.4608 2.2469L76.3268 2.14062Z" fill="#FCFBFC"/>
<path fill-rule="evenodd" clip-rule="evenodd" d="M316.361 14.3624C312.373 12.9808 311.323 14.8938 312.478 18.2947C313.423 20.739 314.262 20.5265 314.472 20.6328C316.046 18.9323 316.991 17.3382 316.361 14.3624ZM311.533 2.24683C312.163 4.58492 312.478 4.79748 314.052 5.75397C316.046 5.22259 316.466 4.47865 317.201 2.24683L327.067 2.3531C324.863 5.22259 321.504 3.62843 320.874 8.83601C318.146 8.94229 316.781 9.57995 316.046 11.2804C322.134 15.5315 318.041 17.2319 323.708 19.0386C322.554 21.3767 316.991 23.2897 314.577 25.8404C312.583 24.1399 308.175 21.8018 304.921 19.6763C306.705 17.7633 307.23 19.6763 309.014 15.4252C310.799 11.1741 311.743 12.7683 312.688 10.6427C311.009 8.94229 310.274 9.57995 308.28 8.51718C306.076 6.49791 309.959 7.24185 301.772 2.88449C302.402 2.3531 301.667 2.67193 302.822 2.3531C303.347 2.24683 303.557 2.24683 304.081 2.24683H311.533Z" fill="#FCFBFC"/>
<path fill-rule="evenodd" clip-rule="evenodd" d="M366.636 13.831C363.592 13.831 364.117 17.0193 365.271 19.0386C365.271 19.1449 365.796 19.8888 365.796 19.8888C366.426 20.6328 365.901 20.1014 366.636 20.6328C367.161 20.2077 366.951 20.4202 367.37 19.8888C367.475 19.8888 367.895 19.1449 368 19.0386C369.05 17.2319 369.994 13.7248 366.636 13.831ZM363.802 2.24683C364.537 4.58492 364.747 5.01003 366.636 5.64769C368.42 5.01003 368.735 4.47865 369.47 2.24683H379.335C378.286 4.05354 377.446 3.62843 375.452 4.79748C373.668 5.86025 373.983 6.71047 372.828 8.4109C370.939 9.7925 369.47 9.15484 368.315 11.2804C371.044 13.2996 370.309 12.0243 371.989 15.5315C373.458 18.5072 374.088 17.657 375.977 19.4637C371.464 22.9709 368 23.8211 366.636 25.7341C365.166 24.1399 364.327 23.9274 361.808 22.652C359.499 21.483 358.764 20.739 357.19 19.57L358.659 18.6135C359.289 18.2947 358.974 18.6135 359.814 18.0821C362.228 16.0629 359.604 14.6813 364.956 11.2804C363.907 9.36739 362.228 9.57995 360.443 8.51718C359.289 6.60419 359.919 5.75397 357.819 4.79748C355.93 3.84098 354.776 3.73471 353.936 2.24683H363.802Z" fill="#FCFBFC"/>
<path fill-rule="evenodd" clip-rule="evenodd" d="M342.496 14.3624C339.137 13.0871 337.353 14.575 338.612 18.1884L339.662 19.9951C340.397 20.739 339.662 20.1014 340.501 20.6328C340.606 20.5265 340.816 20.3139 340.816 20.4202C340.816 20.4202 341.026 20.2077 341.026 20.1014C342.601 18.2947 343.02 16.7005 342.496 14.3624ZM337.668 2.24683C338.192 4.47865 338.612 5.01003 340.501 5.75397C342.391 4.79748 342.601 4.37237 343.335 2.24683H353.201C352.152 3.73471 351.207 3.73471 349.423 4.79748C346.694 6.39163 348.058 7.77324 345.749 8.83601C345.749 8.83601 345.539 8.83601 345.434 8.94229C344.91 9.15484 344.7 9.15484 344.07 9.3674C342.915 10.0051 343.02 10.1113 342.286 10.8553C343.02 12.4494 343.23 11.4929 344.385 12.8745C346.169 14.8938 345.434 17.657 349.843 19.0386C348.478 22.1207 342.286 22.9709 340.501 25.8404C338.507 23.8211 335.044 22.3332 331.055 19.57L332.525 18.7198C337.038 16.2754 332.735 15.2126 338.717 11.2804C337.668 9.15484 336.408 9.57995 334.309 8.51718C333.259 6.81674 333.364 5.96653 331.685 4.90375C329.796 3.62843 328.641 3.73471 327.802 2.24683H337.668Z" fill="#FCFBFC"/>
<path fill-rule="evenodd" clip-rule="evenodd" d="M105.294 20.739C108.023 18.5072 109.598 12.2369 103.3 14.3624C102.671 17.4445 103.93 18.9323 105.294 20.739ZM102.461 2.24683C103.3 4.58492 103.51 4.58492 105.189 5.75397C106.974 5.01003 107.603 4.05354 108.338 2.24683C110.017 2.3531 111.592 2.3531 113.271 2.24683L117.994 2.88449C110.122 7.13558 113.901 4.15981 111.487 8.72973C108.968 9.04856 108.233 9.3674 106.974 10.749C108.233 13.5122 108.233 9.7925 110.647 15.4252C112.431 19.57 112.956 17.5507 114.74 19.6763C113.061 20.9516 112.222 21.6955 109.808 22.8646C107.079 24.0336 107.079 24.3525 105.189 25.8404C103.93 24.0336 102.775 23.7148 100.466 22.5458C98.3673 21.483 97.2128 20.3139 95.9533 19.3574C98.1574 17.657 98.4723 18.8261 99.9416 15.5315C101.306 12.4494 101.096 12.9808 103.615 11.2804C102.88 9.3674 102.146 9.57995 100.257 8.94229C97.0029 7.66696 100.047 6.92302 96.3731 4.6912C94.6938 3.73471 93.5393 3.62843 92.5947 2.24683H102.461Z" fill="#FCFBFC"/>
<path fill-rule="evenodd" clip-rule="evenodd" d="M1.70237 19.9951C1.70237 19.8888 2.01724 19.57 2.01724 19.4637C2.43707 18.8261 2.64698 18.5072 2.8569 17.8696C3.27672 16.488 3.17177 15.4252 2.8569 14.2561C1.70237 13.5122 -0.0818901 13.9373 -1.23641 14.2561C-1.65624 16.8068 -1.13146 19.1449 0.757763 20.6328C1.49246 20.2077 1.07263 20.6328 1.70237 19.9951ZM-1.97111 2.24683C-1.34137 4.37237 -1.0265 4.90375 0.757763 5.75397C2.75194 5.01003 3.06681 4.47865 3.69655 2.24683H13.4575C12.7228 3.84098 11.4633 3.73471 9.67908 4.90375C7.99977 5.96653 8.10473 6.81674 6.95021 8.51718C5.16594 9.57995 3.48664 9.3674 2.54203 11.2804C5.37586 13.1934 4.85107 12.3432 6.32047 15.744C7.78986 19.4637 8.83943 18.0821 10.3088 19.57C5.90064 22.7583 2.75194 23.7148 0.757763 25.8404C-0.606673 23.8211 -1.44633 23.8211 -3.96529 22.5458C-6.37929 21.3767 -7.00903 20.6328 -8.58338 19.4637C-6.5892 17.657 -5.95946 18.5072 -4.49007 15.5315C-2.70581 11.918 -3.75537 13.4059 -0.816586 11.2804C-1.34137 10.4302 -1.55128 10.0051 -2.70581 9.47367C-3.33555 9.15484 -3.54546 9.15484 -4.07024 8.94229C-7.3239 7.66696 -4.9099 6.71047 -8.0586 4.79748C-9.84286 3.73471 -10.8924 3.73471 -11.837 2.24683H-1.97111Z" fill="#FCFBFC"/>
<path fill-rule="evenodd" clip-rule="evenodd" d="M290.542 16.2755C290.647 13.2997 288.443 13.6186 286.239 14.1499C285.4 17.4445 286.659 18.401 287.604 20.7391C289.388 19.9952 290.437 18.401 290.542 16.2755ZM285.295 2.14062C286.134 4.05361 286.554 4.90383 288.338 5.64777C289.913 4.79755 290.332 4.26617 291.067 2.2469L300.933 2.35318C299.988 3.6285 298.939 3.73478 297.155 4.79755C294.426 6.39171 295.79 6.28543 294.426 8.3047C293.481 9.47375 291.172 8.41098 289.913 11.2805C292.432 12.9809 292.222 12.6621 293.586 15.5315C295.16 18.8261 295.37 17.6571 297.574 19.3575C296.315 20.4203 294.846 21.6956 292.851 22.6521C290.542 23.8212 289.388 24.0337 288.338 25.7341C286.554 24.4588 286.239 24.0337 283.51 22.6521C281.306 21.5893 280.152 20.6328 278.787 19.6764C279.417 19.0387 278.997 19.4638 279.627 18.9324L280.257 18.6136C282.146 17.5508 281.936 17.8696 282.986 15.4253C285.19 10.1114 285.4 13.2997 286.659 10.6428C285.295 9.36747 284.56 9.04864 281.936 8.72981C280.676 4.47872 278.787 4.69128 275.639 2.88456C277.213 1.60924 281.726 2.56573 285.295 2.14062Z" fill="#FCFBFC"/>
<path fill-rule="evenodd" clip-rule="evenodd" d="M133.528 14.4687C131.639 13.6185 131.429 13.5122 129.54 14.4687C128.805 17.4445 129.959 18.9323 131.429 20.739C132.898 19.57 134.053 17.1256 133.528 14.4687ZM128.595 2.24683C129.435 4.26609 129.854 4.58492 131.324 5.6477C133.003 5.11631 133.528 4.37237 134.368 2.3531H144.233C140.98 5.32886 138.671 3.84098 137.936 8.62346C135.312 9.04856 134.472 9.26112 133.108 10.749C134.053 12.662 133.948 11.1741 135.417 12.662C135.837 13.1934 136.362 14.4687 136.782 15.3189C138.671 19.57 138.986 17.5507 140.875 19.7826L131.324 25.8404C130.274 24.2462 129.015 23.6085 126.916 22.652C124.502 21.483 123.977 21.0579 122.193 19.7826C122.822 18.9323 122.298 19.57 123.032 18.9323L124.712 17.8696C125.341 17.3382 125.761 16.3817 126.286 15.3189C128.91 9.57995 128.7 13.5122 129.854 10.749C128.49 9.26112 127.755 9.04856 125.026 8.62346C124.187 3.62843 121.983 5.43514 118.834 2.3531L128.595 2.24683Z" fill="#FCFBFC"/>
<path fill-rule="evenodd" clip-rule="evenodd" d="M159.662 14.4687C158.297 13.6185 156.933 13.831 155.568 14.4687C154.939 17.5507 156.198 19.4637 157.772 20.739C158.822 19.1449 160.291 17.2319 159.662 14.4687ZM154.624 2.24683C155.568 4.26609 155.253 4.15981 156.618 5.6477L158.612 5.54142C159.977 4.05354 159.662 4.47865 160.606 2.24683L170.367 2.3531C168.793 3.84098 168.373 3.84098 166.379 4.90375C164.385 5.86025 164.804 6.81674 163.755 8.72973C161.236 9.04856 159.872 9.47367 159.347 11.2804C162.391 13.4059 161.341 11.7055 163.02 15.6377C164.07 18.0821 164.385 17.8696 165.854 18.8261C167.218 19.6763 166.064 18.6135 167.009 19.7826C164.909 21.2704 159.032 23.9274 157.877 25.8404L148.326 19.7826C150.006 17.657 150.635 19.4637 152.42 15.3189C154.729 9.7925 154.729 13.4059 156.093 10.749C154.834 9.47367 153.994 8.94229 151.37 8.72973C149.271 2.67193 150.006 6.81674 144.968 2.3531L154.624 2.24683Z" fill="#FCFBFC"/>
<path fill-rule="evenodd" clip-rule="evenodd" d="M183.907 20.739C186.006 18.1884 188.525 12.4494 181.808 14.1499C181.073 16.9131 182.437 19.4637 183.907 20.739ZM180.758 2.24683C181.808 4.6912 181.493 5.43514 184.746 5.6477C185.901 4.26609 185.901 4.26609 186.741 2.24683L196.396 2.3531C193.668 5.43514 191.044 3.41587 190.204 8.72973C187.58 9.04856 186.111 9.26112 185.481 11.2804C188.42 13.2997 187.475 11.5992 189.154 15.6377C190.624 19.0386 191.464 17.7633 193.143 19.7826C189.154 22.4395 185.796 23.2897 184.012 25.8404C180.338 23.0771 178.344 22.4395 174.356 19.6763C176.245 17.657 176.77 19.57 178.554 15.4252C180.968 9.7925 180.968 13.5122 182.122 10.749C180.653 9.15484 180.023 9.04856 177.294 8.62346C176.56 2.99077 173.411 5.86025 171.207 2.3531L180.758 2.24683Z" fill="#FCFBFC"/>
<path fill-rule="evenodd" clip-rule="evenodd" d="M261.574 20.7391C262.939 20.1015 262.414 20.7391 263.464 19.3575C263.988 18.6136 265.878 14.3625 262.729 13.8311C257.586 12.9809 261.05 19.4638 261.574 20.7391ZM259.16 2.14062C260.105 4.05361 260.315 4.79755 262.204 5.64777C263.988 4.69128 264.198 4.47872 265.038 2.2469L274.799 2.35318C272.49 5.22266 269.341 3.52223 268.606 8.72981C265.878 8.94236 264.618 9.36747 263.778 11.2805C270.076 15.8504 265.038 14.8939 270.286 18.7199C271.545 19.6764 270.601 18.7199 271.545 19.8889C267.662 22.4396 263.359 23.7149 262.204 25.7341C259.265 23.1835 256.746 22.5458 252.758 19.6764L254.227 18.6136C255.802 17.7634 255.802 17.9759 256.851 15.4253C258.216 12.0244 257.796 13.0872 260.525 11.2805C259.475 9.47375 257.901 9.47375 256.117 8.51725C254.857 6.9231 254.857 5.75405 253.073 4.69128C252.023 4.05361 249.924 2.67201 249.399 2.35318L259.16 2.14062Z" fill="#FCFBFC"/>
<path fill-rule="evenodd" clip-rule="evenodd" d="M26.8921 20.6328C27.5218 20.3139 27.9416 20.2077 28.6763 18.6135C30.0408 15.5315 29.0962 12.7683 24.8979 14.3624C24.4781 16.8068 25.0029 19.0386 26.8921 20.6328ZM24.1632 2.24683C24.793 4.37237 25.1078 4.79748 26.8921 5.75397C28.9912 5.01003 29.2011 4.58492 29.7259 2.24683L39.5918 2.77821C38.5422 3.41587 36.758 4.15981 35.4985 5.01003C34.1341 6.0728 34.1341 6.92302 33.0845 8.51718C31.0903 9.57995 29.8309 9.15484 28.6763 11.2804C31.5102 13.0871 30.8804 12.2369 32.4548 15.744C34.0291 19.4637 34.8688 17.9758 36.4431 19.57C32.0349 22.7583 29.2011 23.5023 26.8921 25.8404C25.1078 22.9709 19.1253 22.1207 17.6559 19.0386C20.1749 18.2947 20.6997 17.3382 21.7492 15.2126C23.2186 12.0243 22.7988 13.0871 25.3177 11.2804C24.4781 9.47367 23.7434 9.57995 21.9591 8.94229C18.8105 7.77324 21.2244 6.71047 18.0758 4.79748C16.1865 3.62843 15.2419 3.84098 14.2973 2.24683H24.1632Z" fill="#FCFBFC"/>
<path fill-rule="evenodd" clip-rule="evenodd" d="M233.971 14.1499C233.656 15.8503 233.551 16.488 234.181 18.2947C234.286 18.6135 234.706 19.57 235.021 19.7826C235.965 20.739 234.811 19.9951 236.595 20.739C238.169 18.0821 240.583 12.4494 233.971 14.1499ZM233.236 2.3531C233.971 4.37237 234.601 5.01003 236.175 5.64769C237.855 4.6912 238.064 4.37237 238.904 2.24683L248.665 2.3531C246.566 5.22259 243.102 3.41587 242.473 8.72973C239.954 8.94229 239.009 9.26112 237.75 10.8553C238.484 12.3432 238.484 11.3867 239.954 12.9808C240.478 13.7248 240.898 14.575 241.423 15.6377C242.997 19.1449 242.787 17.4445 245.411 19.3574C244.047 20.3139 242.578 21.5893 240.583 22.652C238.379 23.7148 237.435 24.9901 235.441 25.7341C233.866 23.5023 230.927 22.652 226.624 19.6763C227.254 19.0386 226.729 19.4637 227.464 19.0386C229.458 17.7633 229.248 18.7198 230.718 15.4252C232.292 11.918 231.662 13.0871 234.286 11.2804C233.132 9.04856 232.187 9.57995 229.983 8.51718C228.828 7.0293 229.038 6.0728 227.254 4.90375C225.68 3.84098 224.525 3.94726 223.476 2.24683L233.236 2.3531Z" fill="#FCFBFC"/>
<path fill-rule="evenodd" clip-rule="evenodd" d="M212.035 15.0001C209.621 12.5557 207.417 14.1499 207.627 16.5942C207.732 17.657 208.362 19.4637 209.096 20.1014C210.356 21.1642 207.837 19.6763 210.461 20.739C211.195 19.2512 212.35 17.5507 212.035 15.0001ZM206.892 2.24683C207.837 4.58492 207.837 5.43514 210.881 5.6477C212.14 4.15981 212.035 4.47865 212.77 2.24683L222.531 2.3531C221.376 3.62843 220.117 3.94726 218.542 4.90375C215.604 6.60419 216.548 9.7925 216.023 8.4109C216.023 8.30462 215.919 8.62346 215.919 8.72973C213.085 9.15484 212.245 9.3674 211.51 11.7055C214.554 12.2369 214.029 12.7683 215.289 15.6377C215.709 16.8068 216.023 17.4445 216.863 18.0821C217.283 18.401 217.703 18.5072 218.018 18.7198C218.962 19.3574 218.542 18.9323 219.277 19.7826C216.968 21.3767 211.72 23.6085 210.146 25.8404C207.522 23.7148 204.163 22.0144 200.49 19.6763C201.12 19.0386 200.595 19.4637 201.33 18.9323C203.324 17.5507 203.009 19.0386 204.583 15.3189C205.843 12.5557 207.522 12.4494 208.257 10.749C206.997 9.3674 206.263 8.94229 203.639 8.72973C201.749 2.24683 199.65 5.96653 197.341 2.3531L206.892 2.24683Z" fill="#FCFBFC"/>
<path fill-rule="evenodd" clip-rule="evenodd" d="M118.834 18.5071C121.458 23.9272 127.965 24.0335 129.54 27.6469H107.394C108.128 25.5214 111.172 24.4586 113.376 23.1833C117.155 21.0577 116.735 19.7824 118.834 18.5071Z" fill="#FAAF04"/>
<path fill-rule="evenodd" clip-rule="evenodd" d="M171.102 18.5071C172.886 23.2895 180.653 24.246 181.703 27.6469H159.662C160.606 25.4151 163.125 24.5649 165.539 23.1833C167.429 22.1205 170.682 19.0385 170.787 18.7196C170.787 18.5071 170.997 18.5071 171.102 18.5071Z" fill="#FAAF04"/>
<path fill-rule="evenodd" clip-rule="evenodd" d="M197.236 18.5071C199.65 23.8209 206.787 24.246 207.837 27.6469H185.796C186.741 25.4151 189.26 24.5649 191.674 23.1833C195.872 20.8452 195.242 19.7824 197.236 18.5071Z" fill="#FAAF04"/>
<path fill-rule="evenodd" clip-rule="evenodd" d="M145.807 19.995C150.006 24.9901 154.519 24.2461 155.568 27.647H133.528C134.682 24.3524 142.449 23.3959 144.233 18.4009L145.807 19.995Z" fill="#FAAF04"/>
<path fill-rule="evenodd" clip-rule="evenodd" d="M39.8019 18.5071C40.2218 18.8259 40.1168 18.8259 40.5366 19.3573C40.9564 19.7824 40.7465 19.5699 41.1664 20.1012C41.901 21.0577 41.4812 20.7389 42.5308 21.4828C45.9943 24.3523 50.4025 24.8837 51.0322 27.6469H28.9915C29.5162 25.6276 31.7203 24.8837 34.764 23.3958C37.3879 22.0142 38.7524 20.9515 39.8019 18.5071Z" fill="#FAAF04"/>
<path fill-rule="evenodd" clip-rule="evenodd" d="M13.8775 18.6135C15.137 19.7826 14.8221 20.314 16.3965 21.483C19.6501 24.2462 23.5335 24.7776 25.0029 27.5408C24.2682 27.6471 3.59178 28.0722 3.27691 27.4345C3.17195 27.222 3.06699 27.3282 2.96204 27.3282C3.90665 25.4153 6.53056 24.565 8.94456 23.1834C12.4081 21.2705 11.7784 21.1642 13.8775 18.6135Z" fill="#FAAF04"/>
<path fill-rule="evenodd" clip-rule="evenodd" d="M390.67 27.3283C388.886 28.0722 369.784 27.6471 368.525 27.5408C369.784 25.5215 371.988 24.6713 374.402 23.2897C379.125 20.6328 377.761 20.5265 379.65 18.6135C384.058 24.9902 388.886 23.7148 390.67 27.3283Z" fill="#FAAF04"/>
<path fill-rule="evenodd" clip-rule="evenodd" d="M301.353 18.6135C306.81 25.9466 311.114 23.6086 312.268 27.6471H290.227C291.907 24.1399 296.735 24.3525 300.303 19.7826L301.353 18.6135Z" fill="#FAAF04"/>
<path fill-rule="evenodd" clip-rule="evenodd" d="M223.055 18.6135C227.044 25.0964 232.606 23.7148 233.971 27.6471H211.93C212.665 25.6278 215.498 24.565 217.807 23.1834C222.006 20.8453 220.641 20.9516 222.635 19.0386L223.055 18.6135Z" fill="#FAAF04"/>
<path fill-rule="evenodd" clip-rule="evenodd" d="M249.399 18.5071C251.289 24.0335 259.16 24.0335 260.105 27.6469H238.064C238.904 25.5214 241.528 24.6712 243.837 23.2895C245.621 22.1205 248.875 19.4636 249.085 18.7196C249.085 18.5071 249.295 18.5071 249.399 18.5071Z" fill="#FAAF04"/>
<path fill-rule="evenodd" clip-rule="evenodd" d="M91.965 18.5071C92.6997 19.0385 92.175 18.6134 92.8047 19.251C93.3295 19.7824 92.9096 19.4636 93.4344 20.1012C94.1691 20.8452 93.8542 20.7389 94.7989 21.4828C98.1574 24.3523 102.146 24.7774 103.3 27.6469H81.2595C82.3091 23.6084 89.2362 24.7774 91.965 18.5071Z" fill="#FAAF04"/>
<path fill-rule="evenodd" clip-rule="evenodd" d="M353.621 18.6135C359.604 26.0529 363.697 24.0337 364.432 27.6471L342.496 27.5408C343.755 25.0964 348.583 23.6086 351.312 21.2705C352.677 20.2077 352.362 19.6763 353.621 18.6135Z" fill="#FAAF04"/>
<path fill-rule="evenodd" clip-rule="evenodd" d="M66.0412 18.6135C67.3007 19.7826 67.3007 20.4202 68.5601 21.483C71.3939 23.8211 75.9071 24.7776 77.2715 27.6471L55.0208 27.5408C55.7555 25.5215 58.3794 24.6713 60.7934 23.396C64.3619 21.3767 63.8371 21.483 66.0412 18.6135Z" fill="#FAAF04"/>
<path fill-rule="evenodd" clip-rule="evenodd" d="M275.534 18.5071C277.633 24.246 285.085 23.8209 286.239 27.6469L264.093 27.5406C265.248 25.4151 267.557 24.6712 269.971 23.2895C274.799 20.4201 273.435 20.3138 275.534 18.5071Z" fill="#FAAF04"/>
<path fill-rule="evenodd" clip-rule="evenodd" d="M327.487 18.6135C332.42 25.4153 335.569 23.2897 338.612 27.6471L316.362 27.5408C318.041 24.0337 321.924 25.309 327.067 19.0386L327.487 18.6135Z" fill="#FAAF04"/>
<path fill-rule="evenodd" clip-rule="evenodd" d="M305.341 8.62353C304.187 10.324 302.822 10.2177 301.668 12.4495L301.038 11.9181C300.933 11.8118 300.828 11.7056 300.723 11.5993L299.359 10.2177C297.889 9.15492 298.204 10.0051 297.26 8.62353C298.204 5.01011 303.452 3.73478 305.341 8.62353Z" fill="#FAAF04"/>
<path fill-rule="evenodd" clip-rule="evenodd" d="M331.475 8.62336C330.426 10.2175 328.956 10.4301 327.802 12.4493L327.172 11.9179C324.968 9.7924 324.023 9.57985 323.393 8.62336C324.128 6.17898 325.388 6.28526 327.487 5.11621C329.271 6.39154 330.74 6.39154 331.475 8.62336Z" fill="#FAAF04"/>
<path fill-rule="evenodd" clip-rule="evenodd" d="M174.67 8.09214C172.781 11.8118 172.361 9.04863 171.102 12.5558L166.589 8.62352C167.219 6.49798 168.373 6.28543 170.472 5.22266C172.466 5.75404 174.041 6.49798 174.67 8.09214Z" fill="#FAAF04"/>
<path fill-rule="evenodd" clip-rule="evenodd" d="M200.91 8.62336C199.545 10.4301 198.391 9.89868 197.236 12.4493L192.723 8.62336C193.248 6.60409 194.297 6.07271 197.026 5.11621C198.811 6.07271 200.175 6.81665 200.91 8.62336Z" fill="#FAAF04"/>
<path fill-rule="evenodd" clip-rule="evenodd" d="M148.642 8.62336C147.802 9.89868 147.382 9.68613 146.333 10.5363L144.443 12.2368C144.443 12.2368 144.233 12.4493 144.128 12.5556C143.079 9.47357 142.029 10.8552 140.56 8.62336C141.085 6.60409 142.764 5.75387 144.863 5.11621C146.333 6.17898 147.907 6.60409 148.642 8.62336Z" fill="#FAAF04"/>
<path fill-rule="evenodd" clip-rule="evenodd" d="M226.938 8.62336C226.099 10.005 224.524 10.2175 223.055 12.5556C220.011 8.62336 220.221 10.6426 218.857 8.62336C219.486 6.39154 221.061 6.07271 223.055 5.11621C224.839 6.49781 226.309 6.28526 226.938 8.62336Z" fill="#FAAF04"/>
<path fill-rule="evenodd" clip-rule="evenodd" d="M117.994 12.5557C117.05 9.68623 115.895 10.6427 114.321 8.62345C116.315 3.94726 121.563 4.90375 122.507 8.62345L117.994 12.5557Z" fill="#FAAF04"/>
<path fill-rule="evenodd" clip-rule="evenodd" d="M70.2388 8.62347C68.9793 10.4302 68.7694 8.83602 66.0406 12.4494C63.5216 8.30464 63.6266 10.8553 62.0523 8.62347C63.4167 4.26611 68.9793 4.58494 70.2388 8.62347Z" fill="#FAAF04"/>
<path fill-rule="evenodd" clip-rule="evenodd" d="M17.9707 8.6234C17.4459 9.26107 17.9707 8.72968 17.236 9.26107C13.4576 12.3431 16.8162 9.26106 13.8774 12.5557C11.6734 8.6234 11.2536 10.6427 9.78418 8.6234C10.6238 6.17903 13.6675 5.32881 13.8774 5.32881C14.1923 5.22253 17.1311 5.96647 17.9707 8.6234Z" fill="#FAAF04"/>
<path fill-rule="evenodd" clip-rule="evenodd" d="M96.373 8.62336C95.7433 9.3673 96.373 8.72963 95.6384 9.3673C92.9095 11.4928 94.9037 9.3673 92.1748 12.5556C90.3905 9.15474 89.5509 10.5363 88.1865 8.62336C89.0261 6.28526 90.2856 6.39154 92.1748 5.11621C94.2739 6.39154 95.6384 6.28526 96.373 8.62336Z" fill="#FAAF04"/>
<path fill-rule="evenodd" clip-rule="evenodd" d="M249.189 12.5556C246.67 8.83591 246.775 10.9615 244.991 8.62336C245.726 6.07271 246.775 6.60409 248.77 5.11621C251.708 6.28526 252.968 6.92292 253.073 9.04847C250.344 10.6426 250.344 9.89868 249.189 12.5556Z" fill="#FAAF04"/>
<path fill-rule="evenodd" clip-rule="evenodd" d="M353.621 12.5556C352.571 11.4928 353.096 11.3866 351.837 10.4301C350.787 9.57985 350.367 9.89868 349.423 8.62336C350.052 6.71037 349.843 7.24175 351.312 6.28526C352.152 5.86015 352.886 5.43504 353.621 5.11621C355.615 6.28526 356.77 6.39154 357.609 8.62336C356.245 10.5363 355.825 8.72963 353.621 12.5556Z" fill="#FAAF04"/>
<path fill-rule="evenodd" clip-rule="evenodd" d="M275.219 12.5556C274.274 11.4928 274.694 11.2803 273.539 10.4301C272.28 9.47357 272.28 10.2175 271.125 8.62336C271.755 6.49781 273.434 5.75387 275.324 5.11621C277.108 6.39154 278.997 6.39154 279.207 9.04847C276.478 10.5363 276.478 10.005 275.219 12.5556Z" fill="#FAAF04"/>
<path fill-rule="evenodd" clip-rule="evenodd" d="M44.105 8.62336C44 8.62336 41.7959 10.3238 41.691 10.3238C40.8513 11.174 41.586 10.4301 40.8513 11.2803C40.7464 11.3866 40.4315 11.7054 40.4315 11.8117L35.9184 8.62336C36.863 6.17898 37.9126 6.49781 39.9067 5.11621C41.7959 5.96643 43.4752 6.39154 44.105 8.62336Z" fill="#FAAF04"/>
<path fill-rule="evenodd" clip-rule="evenodd" d="M236.595 20.739C234.81 19.9951 235.965 20.739 235.02 19.7825C234.705 19.57 234.285 18.6135 234.181 18.2947C233.551 16.4879 233.656 15.8503 233.971 14.1498C240.583 12.4494 238.169 18.0821 236.595 20.739Z" fill="#259CB6"/>
<path fill-rule="evenodd" clip-rule="evenodd" d="M81.2596 14.1499C81.6794 16.488 81.3645 19.3574 79.0554 20.6328C75.8018 17.5507 76.2216 11.5992 81.2596 14.1499Z" fill="#259CB6"/>
<path fill-rule="evenodd" clip-rule="evenodd" d="M287.604 20.7389C286.659 18.4008 285.399 17.4443 286.239 14.1497C288.443 13.6183 290.647 13.2995 290.542 16.2753C290.437 18.4008 289.388 19.995 287.604 20.7389Z" fill="#259CB6"/>
<path fill-rule="evenodd" clip-rule="evenodd" d="M2.85689 14.2562C3.17176 15.4252 3.27671 16.488 2.85689 17.8696C2.64698 18.5072 2.43707 18.8261 2.01725 19.4637C2.01725 19.57 1.70238 19.8888 1.70238 19.9951C1.07265 20.6328 1.49247 20.2077 0.757785 20.6328C-1.13141 19.1449 -1.65619 16.8068 -1.23637 14.2562C-0.0818574 13.9373 1.70238 13.5122 2.85689 14.2562Z" fill="#259CB6"/>
<path fill-rule="evenodd" clip-rule="evenodd" d="M261.574 20.739C261.049 19.4637 257.586 12.9808 262.729 13.831C265.877 14.3624 263.988 18.6134 263.463 19.3574C262.414 20.739 262.938 20.1013 261.574 20.739Z" fill="#259CB6"/>
<path fill-rule="evenodd" clip-rule="evenodd" d="M316.361 14.3625C316.991 17.3382 316.046 18.9324 314.472 20.6328C314.262 20.5266 313.423 20.7391 312.478 18.2947C311.323 14.8939 312.373 12.9809 316.361 14.3625Z" fill="#259CB6"/>
<path fill-rule="evenodd" clip-rule="evenodd" d="M366.636 20.6327C365.901 20.1013 366.426 20.6327 365.796 19.8888C365.796 19.8888 365.271 19.1448 365.271 19.0386C364.117 17.0193 363.592 13.831 366.636 13.831C369.994 13.7247 369.05 17.2318 368 19.0386C367.895 19.1448 367.475 19.8888 367.37 19.8888C366.95 20.4202 367.16 20.2076 366.636 20.6327Z" fill="#259CB6"/>
<path fill-rule="evenodd" clip-rule="evenodd" d="M26.8922 20.6328C25.003 19.0386 24.4782 16.8068 24.898 14.3624C29.0963 12.7683 30.0409 15.5315 28.6765 18.6135C27.9418 20.2077 27.522 20.314 26.8922 20.6328Z" fill="#259CB6"/>
<path fill-rule="evenodd" clip-rule="evenodd" d="M212.035 15.0002C212.35 17.5508 211.195 19.2512 210.46 20.7391C207.836 19.6764 210.355 21.1642 209.096 20.1015C208.361 19.4638 207.731 17.6571 207.627 16.5943C207.417 14.1499 209.621 12.5558 212.035 15.0002Z" fill="#259CB6"/>
<path fill-rule="evenodd" clip-rule="evenodd" d="M53.0259 20.6327L52.0813 19.5699C50.7169 17.8695 50.7169 16.2753 51.0318 14.2561C57.3291 12.5556 55.7548 18.9323 53.0259 20.6327Z" fill="#259CB6"/>
<path fill-rule="evenodd" clip-rule="evenodd" d="M183.907 20.739C182.437 19.4636 181.073 16.913 181.808 14.1498C188.525 12.4494 186.006 18.1883 183.907 20.739Z" fill="#259CB6"/>
<path fill-rule="evenodd" clip-rule="evenodd" d="M340.816 20.4203C340.816 20.314 340.606 20.5265 340.501 20.6328C339.662 20.1014 340.396 20.7391 339.662 19.9952L338.612 18.1884C337.353 14.575 339.137 13.0871 342.496 14.3625C343.02 16.7006 342.601 18.2947 341.026 20.1014C341.026 20.2077 340.816 20.4203 340.816 20.4203Z" fill="#259CB6"/>
<path fill-rule="evenodd" clip-rule="evenodd" d="M105.295 20.739C103.93 18.9323 102.671 17.4444 103.3 14.3624C109.598 12.2369 108.023 18.5072 105.295 20.739Z" fill="#259CB6"/>
<path fill-rule="evenodd" clip-rule="evenodd" d="M133.527 14.4686C134.052 17.1256 132.898 19.5699 131.428 20.739C129.959 18.9323 128.804 17.4444 129.539 14.4686C131.428 13.5121 131.638 13.6184 133.527 14.4686Z" fill="#259CB6"/>
<path fill-rule="evenodd" clip-rule="evenodd" d="M159.662 14.4687C160.292 17.2319 158.822 19.1449 157.773 20.7391C156.198 19.4638 154.939 17.5508 155.569 14.4687C156.933 13.8311 158.297 13.6185 159.662 14.4687Z" fill="#259CB6"/>
<path fill-rule="evenodd" clip-rule="evenodd" d="M308.91 11.0678C307.545 12.6619 307.65 12.4494 306.916 14.5749C304.397 21.9081 299.359 10.3238 308.91 11.0678Z" fill="#FAAF04"/>
<path fill-rule="evenodd" clip-rule="evenodd" d="M84.6181 11.0677C92.3849 10.4301 91.1255 18.9322 87.6619 16.3816C86.2974 15.4251 87.452 14.3623 84.6181 11.0677Z" fill="#FAAF04"/>
<path fill-rule="evenodd" clip-rule="evenodd" d="M11.3585 16.5943C7.99993 17.2319 9.67921 15.8503 6.4256 11.0679C8.20984 10.9616 9.88912 11.493 10.9387 12.4495C12.0932 13.6185 12.513 15.1064 11.3585 16.5943Z" fill="#FAAF04"/>
<path fill-rule="evenodd" clip-rule="evenodd" d="M282.775 11.0678C280.361 13.9373 281.096 17.4444 277.318 16.5942C276.478 12.9808 278.892 10.6427 282.775 11.0678Z" fill="#FAAF04"/>
<path fill-rule="evenodd" clip-rule="evenodd" d="M215.499 10.9614C221.586 11.0677 221.796 15.3188 220.536 16.3816C218.962 17.7632 217.808 15.6376 217.388 14.4686C216.548 12.343 216.338 12.5556 215.499 10.9614Z" fill="#FAAF04"/>
<path fill-rule="evenodd" clip-rule="evenodd" d="M256.641 11.1742C255.801 11.8118 255.277 12.9809 254.647 14.575C254.227 15.8504 253.073 17.8696 251.498 16.3817C249.189 14.0436 253.073 10.6428 256.641 11.1742Z" fill="#FAAF04"/>
<path fill-rule="evenodd" clip-rule="evenodd" d="M178.344 11.1742C177.4 11.9181 176.98 12.8746 176.245 14.575C175.825 15.6378 174.776 17.8696 173.096 16.3817C170.682 14.0436 174.671 10.6428 178.344 11.1742Z" fill="#FAAF04"/>
<path fill-rule="evenodd" clip-rule="evenodd" d="M334.939 11.0678C332.84 13.6185 333.155 17.3382 329.586 16.5942C328.747 12.8745 331.056 10.749 334.939 11.0678Z" fill="#FAAF04"/>
<path fill-rule="evenodd" clip-rule="evenodd" d="M63.9416 16.5941C61.6325 17.0192 61.3176 16.7003 60.5829 14.6811C59.7432 12.4493 59.5333 12.4493 58.5887 11.0677C62.3672 10.9614 64.7812 12.7681 63.9416 16.5941Z" fill="#FAAF04"/>
<path fill-rule="evenodd" clip-rule="evenodd" d="M110.857 11.1742C114.425 10.6428 118.414 14.0436 116 16.3817C114.425 17.9759 113.271 15.6378 112.851 14.4688C112.326 12.7683 111.907 11.9181 110.857 11.1742Z" fill="#FAAF04"/>
<path fill-rule="evenodd" clip-rule="evenodd" d="M21.4346 11.0679C20.6999 12.5557 20.385 12.4495 19.4404 14.6813C19.0206 15.8503 17.7611 17.657 16.3967 16.488C13.8777 14.3625 17.7611 10.9616 21.4346 11.0679Z" fill="#FAAF04"/>
<path fill-rule="evenodd" clip-rule="evenodd" d="M361.073 11.0679C360.023 12.4495 359.918 12.6621 359.079 14.575C358.659 15.7441 357.294 17.7634 355.93 16.3818C353.726 14.0437 357.609 10.7491 361.073 11.0679Z" fill="#FAAF04"/>
<path fill-rule="evenodd" clip-rule="evenodd" d="M99.7319 11.0678C99.2072 12.2368 98.6824 12.5557 97.8427 14.4687C97.108 16.1691 97.0031 16.7005 94.799 16.7005C92.9098 13.4059 95.9535 10.9615 99.7319 11.0678Z" fill="#FAAF04"/>
<path fill-rule="evenodd" clip-rule="evenodd" d="M320.14 10.9614C323.184 11.174 327.802 13.9372 324.968 16.4878C322.974 18.1883 320.35 11.4928 320.35 11.4928C320.245 11.174 320.14 11.174 320.14 10.9614Z" fill="#FAAF04"/>
<path fill-rule="evenodd" clip-rule="evenodd" d="M204.478 11.1739C202.799 12.4493 201.749 18.7196 199.23 16.3815C197.026 14.1497 201.014 10.6425 204.478 11.1739Z" fill="#FAAF04"/>
<path fill-rule="evenodd" clip-rule="evenodd" d="M136.991 11.174C140.455 10.6426 144.443 14.2561 142.134 16.3816C139.615 18.826 138.775 12.2368 136.991 11.174Z" fill="#FAAF04"/>
<path fill-rule="evenodd" clip-rule="evenodd" d="M32.4545 11.0677C35.7081 10.8552 39.8014 14.0435 37.7023 16.2753C36.023 17.9757 34.8685 15.7439 34.4486 14.5749C33.8189 12.6619 33.3991 12.2368 32.4545 11.0677Z" fill="#FAAF04"/>
<path fill-rule="evenodd" clip-rule="evenodd" d="M73.5977 11.068C72.4431 12.0244 72.3382 13.1935 71.7085 14.6814C71.1837 15.9567 69.7143 17.7634 68.4548 16.2755C66.3557 13.9374 70.344 10.9617 73.5977 11.068Z" fill="#FAAF04"/>
<path fill-rule="evenodd" clip-rule="evenodd" d="M230.507 11.174C229.143 12.2368 229.248 12.7682 228.618 14.5749C228.093 15.7439 226.939 17.9758 225.365 16.3816C223.265 14.2561 227.149 10.6426 230.507 11.174Z" fill="#FAAF04"/>
<path fill-rule="evenodd" clip-rule="evenodd" d="M377.236 16.5943C375.137 16.9131 374.717 16.0629 373.982 14.3624C373.353 12.7683 372.933 12.2369 372.093 11.0678C375.662 10.9616 378.915 13.1934 377.236 16.5943Z" fill="#FAAF04"/>
<path fill-rule="evenodd" clip-rule="evenodd" d="M168.583 16.7005C163.86 17.1256 166.064 13.2996 163.125 11.1741C166.904 10.6427 169.317 13.0871 168.583 16.7005Z" fill="#FAAF04"/>
<path fill-rule="evenodd" clip-rule="evenodd" d="M272.594 16.7005C270.495 16.7005 270.285 16.2754 269.551 14.3624C269.026 12.9808 268.186 12.0243 267.766 11.0678C271.545 10.8553 274.379 13.5122 272.594 16.7005Z" fill="#FAAF04"/>
<path fill-rule="evenodd" clip-rule="evenodd" d="M152 10.9614C150.006 13.1932 150.741 17.1255 146.752 16.5941C145.913 12.8744 148.327 11.0677 152 10.9614Z" fill="#FAAF04"/>
<path fill-rule="evenodd" clip-rule="evenodd" d="M346.274 10.9614C355.615 11.5991 351.102 23.7147 346.274 10.9614V10.9614Z" fill="#FAAF04"/>
<path fill-rule="evenodd" clip-rule="evenodd" d="M298.729 16.7006C294.216 16.5943 296.315 11.9181 293.586 11.1741C297.26 10.4302 300.408 13.2997 298.729 16.7006Z" fill="#FAAF04"/>
<path fill-rule="evenodd" clip-rule="evenodd" d="M126.076 11.174C123.347 12.4493 125.341 17.2318 120.618 16.5941C120.198 14.5749 120.618 13.2995 121.877 12.343C123.032 11.3865 124.291 10.8552 126.076 11.174Z" fill="#FAAF04"/>
<path fill-rule="evenodd" clip-rule="evenodd" d="M47.5684 10.9614C45.4692 12.343 46.2039 17.338 42.4255 16.4878C40.7462 13.087 43.9998 11.0677 47.5684 10.9614Z" fill="#FAAF04"/>
<path fill-rule="evenodd" clip-rule="evenodd" d="M194.297 16.7005C189.889 16.7005 191.883 12.2369 189.154 11.1741C192.828 10.5365 195.872 13.2997 194.297 16.7005Z" fill="#FAAF04"/>
<path fill-rule="evenodd" clip-rule="evenodd" d="M246.461 16.7004C243.627 16.7004 244.256 15.6376 242.787 12.8744L241.842 10.9614C245.516 11.2803 248.35 13.5121 246.461 16.7004Z" fill="#FAAF04"/>
<path fill-rule="evenodd" clip-rule="evenodd" d="M154.624 2.24683H160.606C159.662 4.47865 159.977 4.05354 158.612 5.54142L156.618 5.64769C155.254 4.15981 155.569 4.26609 154.624 2.24683Z" fill="#259CB6"/>
<path fill-rule="evenodd" clip-rule="evenodd" d="M180.758 2.24683H186.74C185.901 4.26609 185.901 4.26609 184.746 5.64769C181.492 5.43514 181.807 4.6912 180.758 2.24683Z" fill="#259CB6"/>
<path fill-rule="evenodd" clip-rule="evenodd" d="M206.892 2.24683H212.77C212.035 4.47865 212.14 4.15981 210.881 5.64769C207.837 5.43514 207.837 4.58492 206.892 2.24683Z" fill="#259CB6"/>
<path fill-rule="evenodd" clip-rule="evenodd" d="M24.1629 2.24683H29.7256C29.2008 4.58492 28.9909 5.01003 26.8918 5.75397C25.1075 4.79748 24.7926 4.37237 24.1629 2.24683Z" fill="#259CB6"/>
<path fill-rule="evenodd" clip-rule="evenodd" d="M337.668 2.24683H343.335C342.601 4.37237 342.391 4.79748 340.502 5.75397C338.612 5.01003 338.193 4.47865 337.668 2.24683Z" fill="#259CB6"/>
<path fill-rule="evenodd" clip-rule="evenodd" d="M311.534 2.24683H317.201C316.466 4.47865 316.047 5.22259 314.052 5.75397C312.478 4.79748 312.163 4.58492 311.534 2.24683Z" fill="#259CB6"/>
<path fill-rule="evenodd" clip-rule="evenodd" d="M76.3265 2.14062L81.9941 2.2469C81.4694 4.47872 81.1545 4.79755 79.5801 5.64777C77.376 5.22266 76.9562 4.26617 76.3265 2.14062Z" fill="#259CB6"/>
<path fill-rule="evenodd" clip-rule="evenodd" d="M-1.97083 2.24683H3.69678C3.06704 4.47865 2.75218 5.01003 0.75802 5.75397C-1.02623 4.90375 -1.34109 4.37237 -1.97083 2.24683Z" fill="#259CB6"/>
<path fill-rule="evenodd" clip-rule="evenodd" d="M363.802 2.24683H369.469C368.735 4.47865 368.42 5.01003 366.635 5.64769C364.746 5.01003 364.536 4.58492 363.802 2.24683Z" fill="#259CB6"/>
<path fill-rule="evenodd" clip-rule="evenodd" d="M50.1928 2.24683H55.8604C55.1257 4.58492 54.9158 5.01003 53.0266 5.64769C51.3473 4.90375 50.9275 4.37237 50.1928 2.24683Z" fill="#259CB6"/>
<path fill-rule="evenodd" clip-rule="evenodd" d="M102.461 2.24683H108.338C107.604 4.05354 106.974 5.01003 105.19 5.75397C103.51 4.58492 103.3 4.58492 102.461 2.24683Z" fill="#259CB6"/>
<path fill-rule="evenodd" clip-rule="evenodd" d="M259.161 2.14062L265.038 2.2469C264.198 4.47872 263.989 4.69128 262.204 5.64777C260.315 4.79755 260.105 4.05361 259.161 2.14062Z" fill="#259CB6"/>
<path fill-rule="evenodd" clip-rule="evenodd" d="M285.294 2.14062L291.067 2.2469C290.332 4.26617 289.912 4.79755 288.338 5.64777C286.554 4.90383 286.134 4.05361 285.294 2.14062Z" fill="#259CB6"/>
<path fill-rule="evenodd" clip-rule="evenodd" d="M233.236 2.3531L238.904 2.24683C238.064 4.37237 237.854 4.6912 236.175 5.64769C234.601 5.01003 233.971 4.37237 233.236 2.3531Z" fill="#259CB6"/>
<path fill-rule="evenodd" clip-rule="evenodd" d="M128.595 2.24683L134.367 2.3531C133.528 4.37237 133.003 5.11631 131.323 5.64769C129.854 4.58492 129.434 4.26609 128.595 2.24683Z" fill="#259CB6"/>
</g>
<defs>
<clipPath id="clip0">
<rect width="375" height="30" fill="white" transform="matrix(-1 0 0 1 375 0)"/>
</clipPath>
</defs>
</svg>
