<svg width="14" height="16" viewBox="0 0 14 16" fill="none" xmlns="http://www.w3.org/2000/svg">
<path fill-rule="evenodd" clip-rule="evenodd" d="M10.6977 4.25C10.7216 4.19685 10.7328 4.13892 10.7304 4.08074H10.75C10.6661 2.07943 9.01367 0.5 7.00371 0.5C4.99375 0.5 3.34129 2.07943 3.25742 4.08074C3.24753 4.13673 3.24753 4.19401 3.25742 4.25H3.19878C2.23766 4.25 1.21026 4.88448 0.911979 6.59005L0.328678 11.2361C-0.148568 14.6472 1.60796 15.5 3.9014 15.5H10.1189C12.4057 15.5 14.1092 14.2652 13.6849 11.2361L13.1083 6.59005C12.757 4.93223 11.7627 4.25 10.8148 4.25H10.6977ZM9.61991 4.25C9.59903 4.19596 9.58797 4.13865 9.58724 4.08074C9.58724 2.64262 8.41739 1.47679 6.97431 1.47679C5.53123 1.47679 4.36138 2.64262 4.36138 4.08074C4.37127 4.13673 4.37127 4.19401 4.36138 4.25H9.61991ZM4.82275 8.11143C4.45667 8.11143 4.1599 7.80599 4.1599 7.4292C4.1599 7.05241 4.45667 6.74697 4.82275 6.74697C5.18882 6.74697 5.48559 7.05241 5.48559 7.4292C5.48559 7.80599 5.18882 8.11143 4.82275 8.11143ZM8.50152 7.4292C8.50152 7.80599 8.79828 8.11143 9.16436 8.11143C9.53044 8.11143 9.8272 7.80599 9.8272 7.4292C9.8272 7.05241 9.53044 6.74697 9.16436 6.74697C8.79828 6.74697 8.50152 7.05241 8.50152 7.4292Z" fill="#FAAF04"/>
</svg>
