<svg width="15" height="14" viewBox="0 0 15 14" fill="none" xmlns="http://www.w3.org/2000/svg">
<path fill-rule="evenodd" clip-rule="evenodd" d="M5.59755 6.48665C5.30588 6.48665 5.07526 6.71331 5.07526 6.99998C5.07526 7.27998 5.30588 7.51331 5.59755 7.51331H9.66732V6.48679H12.4273L11.3607 5.42679C11.1607 5.22679 11.1607 4.90012 11.3607 4.70012C11.5607 4.49346 11.8873 4.49346 12.0873 4.69346L14.034 6.63346C14.134 6.73346 14.1873 6.86012 14.1873 7.00012C14.1873 7.13346 14.134 7.26679 14.034 7.36012L12.0873 9.30012C11.9873 9.40012 11.854 9.45346 11.7273 9.45346C11.594 9.45346 11.4607 9.40012 11.3607 9.30012C11.1607 9.10012 11.1607 8.77346 11.3607 8.57346L12.4273 7.51346H9.66732V10.7C9.66732 12.3333 8.31751 13.6666 6.64891 13.6666H3.34561C1.68379 13.6666 0.333984 12.34 0.333984 10.7066V3.29998C0.333984 1.65998 1.69057 0.333313 3.3524 0.333313H6.66247C8.31751 0.333313 9.66732 1.65998 9.66732 3.29331V6.48665H5.59755Z" fill="#979696"/>
</svg>
