<svg width="21" height="21" viewBox="0 0 21 21" fill="none" xmlns="http://www.w3.org/2000/svg">
<path d="M20.5295 9.81351C20.5295 9.1274 19.9505 8.56592 19.2429 8.56592H1.75712C1.04956 8.56592 0.470703 9.1274 0.470703 9.81351C0.470703 10.3967 0.890431 10.8861 1.45042 11.0209L3.22439 19.1589C3.22439 19.9128 3.86039 20.5295 4.6379 20.5295H16.5936C17.3711 20.5295 18.0071 19.9128 18.0071 19.1589L19.8004 10.932C20.2296 10.7293 20.5295 10.3054 20.5295 9.81351ZM6.24953 17.5685C6.24953 17.8041 6.0507 17.9967 5.80773 17.9967H5.68597C5.443 17.9967 5.24417 17.8039 5.24417 17.5685V12.5552C5.24417 12.3196 5.443 12.1269 5.68597 12.1269H5.80773C6.0507 12.1269 6.24953 12.3196 6.24953 12.5552V17.5685ZM9.48364 17.5685C9.48364 17.8041 9.28481 17.9967 9.04184 17.9967H8.92008C8.67711 17.9967 8.47828 17.8039 8.47828 17.5685V12.5552C8.47828 12.3196 8.67693 12.1269 8.92008 12.1269H9.04184C9.28481 12.1269 9.48364 12.3196 9.48364 12.5552V17.5685ZM12.7176 17.5685C12.7176 17.8041 12.5189 17.9967 12.2758 17.9967H12.1542C11.9112 17.9967 11.7126 17.8039 11.7126 17.5685V12.5552C11.7126 12.3196 11.9112 12.1269 12.1542 12.1269H12.2759C12.5189 12.1269 12.7178 12.3196 12.7178 12.5552V17.5685H12.7176ZM15.9517 17.5685C15.9517 17.8041 15.7529 17.9967 15.5101 17.9967H15.3883C15.1453 17.9967 14.9465 17.8039 14.9465 17.5685V12.5552C14.9465 12.3196 15.1453 12.1269 15.3883 12.1269H15.5101C15.753 12.1269 15.9517 12.3196 15.9517 12.5552V17.5685Z" fill="white"/>
<path d="M4.83107 6.48885C5.23157 3.78448 7.62391 1.70372 10.5237 1.70372C13.4236 1.70372 15.8161 3.78448 16.2166 6.48885C16.275 7.41229 17.5018 7.26454 17.5018 6.48885C17.0932 3.10096 14.1274 0.470459 10.5237 0.470459C6.92027 0.470459 3.95423 3.10096 3.5459 6.48885C3.5459 7.4494 4.84673 7.48634 4.83107 6.48885Z" fill="white"/>
</svg>
