<svg width="260" height="260" viewBox="0 0 260 260" fill="none" xmlns="http://www.w3.org/2000/svg">
<rect width="260" height="260" fill="#C4C4C4"/>
<path fill-rule="evenodd" clip-rule="evenodd" d="M184.182 130C184.182 152.213 170.748 171.291 151.55 179.585C149.714 180.378 147.821 181.074 145.885 181.662C140.888 183.183 135.585 184 130.091 184C127.037 184 124.044 183.747 121.127 183.26C116.919 182.563 112.876 181.377 109.056 179.767C100.278 176.062 92.6826 170.113 86.9943 162.639C80.0937 153.573 76 142.265 76 130C76 100.175 100.216 76 130.091 76C159.963 76 184.182 100.175 184.182 130L184.182 130Z" fill="#B3B3B3"/>
<path fill-rule="evenodd" clip-rule="evenodd" d="M97.6919 152.63C97.9126 152.563 98.0773 152.357 98.0773 152.113C98.0832 151.778 98.1745 151.358 98.2776 150.894C98.357 150.535 98.4393 150.153 98.4983 149.745C98.7336 149.475 99.0956 149.254 99.6695 149.14C100.567 149.14 100.434 149.484 101.406 149.184C101.435 149.281 101.468 149.369 101.497 149.451C101.409 150.782 102.98 150.577 102.106 152.322C101.92 152.883 101.544 153.071 101.17 153.632C100.243 155.021 100.758 156.402 97.7948 153.444C97.5948 153.044 97.6096 152.859 97.6917 152.63L97.6919 152.63Z" fill="#393939"/>
<path fill-rule="evenodd" clip-rule="evenodd" d="M176.087 113.454C150.225 110.856 139.721 118.628 129.544 133.872C128.082 135.837 126.764 137.982 124.963 139.9L117.703 138.529L116.008 138.044L116.432 136.88L116.44 136.848L119.283 126.645L119.336 126.448C119.406 126.152 119.227 125.855 118.93 125.781L117.305 125.379C117.379 123.164 117.729 122.476 118.229 120.32C118.468 119.453 118.621 118.59 118.7 117.723V117.711C118.921 115.211 118.5 112.711 117.668 110.211C117.194 109.03 116.023 106.389 115.407 104.667C114.593 101.16 114.551 97.6872 114.951 94.8667C116.258 94.2147 117.261 92.6369 117.358 91.0622C117.526 88.283 115.896 87.3312 113.451 87.0874C112.088 86.9491 112.153 84.9575 110.346 85.1424C108.618 85.26 108.251 86.8876 106.132 87.205C102.948 88.1451 102.012 90.9534 104.078 93.383C105.7 95.807 106.091 95.8451 105.067 100.225C104.708 101.773 104.284 103.051 103.834 104.109C102.889 105.722 101.571 107.379 100.794 108.154C97.4907 111.098 96.3107 115.379 95.3028 119.612L89.5762 118.111C89.2817 118.034 88.9789 118.21 88.9022 118.504C86.651 127.086 84.5911 135.45 82.0455 143.816C80.6535 143.91 79.2647 144.049 77.8816 144.228C82.5224 161.243 95.2938 174.916 111.773 180.83C115.199 180.853 118.63 180.607 121.897 180.107C121.652 181.141 121.39 182.193 121.111 183.26C124.027 183.747 127.02 184 130.074 184C131.593 181.365 132.97 178.803 133.979 176.394C134.647 176.15 135.242 176.024 135.663 176.153C136.051 176.272 142.431 181.358 143.711 182.267C147.051 181.403 150.268 180.228 153.322 178.771C151.471 176.218 149.514 173.662 147.454 171.044C154.52 166.476 152.13 155.286 152.916 144.974C152.919 144.948 152.919 144.921 152.925 144.895L167.07 146.285L168.441 146.544C170.03 150.358 170.275 150.888 173.139 150.516C177.126 149.999 177.611 146.614 177.639 142.913C177.716 132.983 170.509 119.381 176.087 113.453L176.087 113.454ZM120.048 143.57C119.933 143.39 119.833 143.214 119.733 143.032L117.997 140.567L121.437 141.052L123.391 141.396C122.432 142.204 121.337 142.938 120.048 143.57H120.048ZM153.29 142.744C154.243 138.878 156.618 134.989 157.418 133.74C159.89 136.657 164.348 140.689 166.369 144.564C162.432 144.552 157.18 143.846 153.29 142.744Z" fill="#313131"/>
<path fill-rule="evenodd" clip-rule="evenodd" d="M114.951 93.9327C116.879 93.3871 116.697 89.9594 116.258 89.252C115.895 87.9886 113.566 87.5625 111.76 88.7031L111.767 92.0724C113.009 92.2371 114.949 92.2262 114.951 93.9327Z" fill="#FEFEFE"/>
<path fill-rule="evenodd" clip-rule="evenodd" d="M111.139 88.6961C109.285 87.906 106.347 87.2476 104.822 89.0776C103.325 90.9507 105.015 93.7557 106.328 94.3159C108.192 92.0781 106.9 92.0699 111.145 92.065L111.141 88.8473L111.139 88.6959L111.139 88.6961Z" fill="#FEFEFE"/>
<path fill-rule="evenodd" clip-rule="evenodd" d="M114.472 163.308L116.495 164.691C117.373 165.29 117.506 165.192 116.781 166.195C116.416 166.699 115.942 167.217 115.604 167.667C114.479 169.164 113.542 171.036 112.98 172.907C112.687 173.784 112.28 174.319 111.937 174.956C111.815 175.183 111.693 175.751 111.22 175.307C111.136 175.228 111.086 175.032 110.919 174.684C110.608 174.035 110.152 173.711 109.301 173.96C108.603 174.165 108.667 174.129 108.669 173.45C108.67 173.201 108.713 172.959 108.754 172.725C108.951 171.594 109.418 170.645 109.869 169.964C111.009 168.238 110.843 169.013 111.607 166.725L111.855 165.982C112.147 165.4 112.657 164.144 113.172 163.382C113.728 162.56 113.75 162.815 114.472 163.308V163.308Z" fill="#FEFEFE"/>
<path fill-rule="evenodd" clip-rule="evenodd" d="M117.388 163.768C116.704 163.435 115.85 162.942 115.316 162.585C114.494 162.038 114.375 162.126 114.946 161.045C115.07 160.811 115.211 160.566 115.344 160.332C115.971 159.222 115.631 159.276 117.096 159.788C117.777 160.025 118.595 160.355 119.263 160.686C120.76 161.429 120.709 161.478 119.6 162.709C119.427 162.901 119.244 163.094 119.065 163.277C118.239 164.123 118.42 164.271 117.388 163.769V163.768Z" fill="#878787"/>
<path fill-rule="evenodd" clip-rule="evenodd" d="M114.465 174.296C115.339 174.849 117.287 175.849 117.307 176.45C117.326 177.05 114.542 177.131 113.843 176.843C113.145 176.555 112.989 175.93 112.989 175.93L114.465 174.297V174.296Z" fill="#FEFEFE"/>
<path fill-rule="evenodd" clip-rule="evenodd" d="M115.699 140.158L114.096 146.425C113.323 149.304 113.565 148.562 112.728 151.683C112.728 151.881 115.309 154.754 115.809 155.754C116.559 157.251 115.417 157.374 116.916 158.31C121.416 161.117 121.416 160.93 122.916 158.684C125.915 154.941 124.228 154.567 121.603 149.701C120.103 146.894 118.502 142.89 116.252 140.644C116.046 140.48 115.863 140.318 115.699 140.158V140.158Z" fill="#878787"/>
<path fill-rule="evenodd" clip-rule="evenodd" d="M104.207 122.125L115.995 125.025C116.83 120.335 118.492 114.921 116.172 110.368C115.346 108.745 114.218 107.412 113.801 107.309C113.758 112.57 112.646 118.288 112.327 123.747C112.319 123.872 111.186 123.486 111.09 123.55C112.651 115.586 109.798 112.707 105.39 106.42C100.728 109.695 99.0472 110.465 97.5286 116.438C96.9455 118.73 96.9527 118.666 99.2451 119.256C101.387 119.808 103.937 120.354 104.207 122.125Z" fill="#878787"/>
<path d="M118.123 126.718L103.794 123.158C102.833 124.235 102.155 129.683 101.885 135.378C101.605 141.272 101.791 147.36 102.571 149.163C102.62 149.28 102.669 149.367 102.715 149.419C104.368 151.304 103.7 152.26 103.168 152.968L110.718 154.955L118.123 126.717V126.718Z" fill="#C4C4C4"/>
<path d="M94.8083 120.622L89.8305 119.316L82.4524 147.451L96.8606 151.898C96.9012 151.657 97.1399 150.92 97.1967 150.661C97.3653 149.892 97.5608 149.004 97.4334 148.032C97.3856 147.664 97.4478 147.046 97.2294 146.584C96.8743 145.835 96.4832 145.01 96.4709 143.973C96.4502 142.252 95.8648 140.491 95.5444 138.531C94.3599 131.295 94.964 130.007 95.8761 123.681C95.9267 123.329 95.9536 123.079 95.9239 123.074C94.6649 122.893 94.5812 122.063 94.7104 121.17C94.7322 121.016 94.7619 120.863 94.7908 120.714L94.8083 120.622V120.622Z" fill="#C4C4C4"/>
<path fill-rule="evenodd" clip-rule="evenodd" d="M96.9607 123.9C96.3654 127.708 95.671 130.963 96.124 134.903C96.4518 137.756 97.4857 146.057 98.92 148.203H101.171C100.651 145.458 100.546 140.305 100.782 135.326C100.959 131.598 101.338 127.94 101.891 125.416C100.257 124.444 98.7131 124.337 96.9607 123.9V123.9Z" fill="#E0E0E0"/>
<path fill-rule="evenodd" clip-rule="evenodd" d="M97.2663 122.169C98.2699 122.426 99.2535 122.824 100.183 123.149C100.634 123.307 101.072 123.447 101.493 123.545C102.753 123.838 103.525 122.421 101.681 121.692C101.375 121.57 101.062 121.436 100.746 121.299C99.6796 120.835 98.5779 120.337 97.5684 120.185C96.0703 119.958 95.6644 121.759 97.2663 122.169V122.169Z" fill="#878787"/>
<path fill-rule="evenodd" clip-rule="evenodd" d="M157.757 132.224C149.229 139.855 151.798 149.608 151.133 159.524C150.705 165.902 148.84 169.143 145.781 170.914C144.645 172.06 146.437 173.549 148.453 176.052C149.53 177.392 150.751 178.878 151.908 180.28C150.071 181.073 148.179 181.769 146.243 182.357C144.397 180.914 141.457 178.252 139.751 177.075C133.018 171.857 135.555 176.787 127.056 178.018C123.91 178.541 120.079 178.068 117.242 174.354C117.913 173.907 120.02 173.111 120.935 171.64C122.197 169.61 122.168 169.642 122.927 167.148C123.213 166.208 123.001 165.179 123.433 164.433C124.084 163.314 125.449 162.518 126.232 161.09C129.478 155.17 124.809 146.273 124.105 144.046C127.85 141.523 131.409 136.576 131.347 135.089C131.342 134.975 133.022 134.824 132.506 138.552C136.504 134.086 136.415 129.727 137.102 127.405C136.931 128.734 139.738 129.651 139.249 132.669C142.663 129.306 141.767 125.57 144.118 121.815C144.713 125.782 145.189 125.658 145.113 127.212C147.947 123.915 149.522 122.345 149.302 118.819C151.535 121.888 151.587 125.438 151.267 126.074C152.437 125.538 156.21 120.413 156.494 116.007C157.516 119.414 156.744 122.394 156.62 122.394C158.518 121.631 159.786 120.536 163.583 115.692C161.871 127.655 155.185 128.16 157.757 132.223L157.757 132.224Z" fill="#E0E0E0"/>
<path fill-rule="evenodd" clip-rule="evenodd" d="M165.826 118.606C166.363 114.888 169.774 114.929 173.148 114.712C172.577 115.264 170.475 116.277 169.131 117.465C167.384 119.01 168.258 119.979 169.099 119.272C170.04 118.481 171.369 119.586 169.574 120.596C167.997 121.484 165.525 120.689 165.826 118.606Z" fill="#E0E0E0"/>
<path fill-rule="evenodd" clip-rule="evenodd" d="M173.014 144.811C173.158 144.271 173.562 143.902 174.167 143.812C175.443 143.56 175.546 144.128 175.6 145.073C175.643 145.815 175.799 146.08 175.051 145.436C174.841 145.255 174.821 145.165 174.775 145.066C174.527 144.526 174.154 144.734 174.143 145.24C174.136 145.611 174.258 145.986 174.363 146.362C174.733 147.053 175.187 146.757 175.439 146.496C175.657 146.272 175.825 146.232 175.93 146.511C176.618 148.353 175.609 148.939 173.626 146.754C172.759 145.906 172.752 145.792 173.014 144.811V144.811Z" fill="#E0E0E0"/>
<path fill-rule="evenodd" clip-rule="evenodd" d="M171.081 148.754C170.236 147.896 170.428 146.603 171.031 145.632C171.401 145.036 172.145 144.465 172.131 145.675C172.125 146.223 172.127 146.859 172.082 147.45C172.048 147.893 171.987 148.31 171.876 148.646C171.667 149.279 171.539 149.22 171.081 148.755V148.754Z" fill="#E0E0E0"/>
<path fill-rule="evenodd" clip-rule="evenodd" d="M164.937 127.02C162.167 125.109 162.176 122.909 164.725 123.27C165.021 121.925 165.719 121.562 166.503 121.833C168.602 122.557 168.053 124.595 167.34 126.237C166.859 127.347 166.085 128.044 164.937 127.02L164.937 127.02Z" fill="#E0E0E0"/>
<path fill-rule="evenodd" clip-rule="evenodd" d="M172.44 139.406C171.118 136.574 168.794 131.185 168.259 128.823C167.951 127.464 168.324 127.981 168.866 126.928C168.99 126.687 169.096 126.418 169.183 126.134C169.592 124.797 169.481 125.152 171.179 125.032C171.941 124.978 172.637 125.017 173.566 125.479C174.382 127.408 173.882 129.502 173.619 131.526C173.291 134.037 173.712 135.069 174.308 137.406C174.675 138.843 174.928 140.291 174.253 140.806C173.157 141.644 172.767 140.107 172.44 139.406Z" fill="#E0E0E0"/>
<path fill-rule="evenodd" clip-rule="evenodd" d="M162.908 127.334C164.443 128.393 164.915 129.021 165.507 130.787L167.707 136.317C168.181 137.507 170.71 142.621 170.424 143.139C169.749 144.356 168.657 143.265 168.185 142.589C167.07 140.994 165.545 138.029 164.41 136.521C157.897 135.598 160.388 128.539 162.908 127.334H162.908Z" fill="#E0E0E0"/>
<path fill-rule="evenodd" clip-rule="evenodd" d="M167.316 128.978C167.667 129.598 167.932 130.358 168.246 131.236C168.66 132.391 168.999 133.62 169.388 134.841C169.619 135.565 171.74 140.18 172.436 142.009C172.637 142.538 171.975 142.948 171.661 142.414C170.444 140.332 169.113 137.422 168.28 135.129C167.706 133.545 167.208 131.769 166.564 130.405C166.417 130.093 166.294 129.892 166.202 129.747C165.721 128.993 166.823 128.106 167.316 128.978L167.316 128.978Z" fill="#E0E0E0"/>
<path d="M172.436 130.59C172.578 130.263 172.703 128.984 171.915 128.049C170.961 126.916 169.615 127.211 169.677 128.984C169.695 129.487 169.841 130.002 170.091 130.455C170.757 131.665 171.682 131.864 172.436 130.589V130.59Z" fill="#313131"/>
<path fill-rule="evenodd" clip-rule="evenodd" d="M111.938 179.764C110.946 179.796 109.978 179.796 109.039 179.767C100.261 176.062 92.6659 170.113 86.9773 162.639C87.6954 162.26 88.4869 162.014 89.464 161.958C90.6116 161.893 90.6557 161.925 91.5973 162.46C92.5802 163.012 93.578 163.382 94.5784 163.432C96.509 163.529 95.7821 162.639 96.394 164.942C97.1504 167.786 98.7898 171.517 100.435 172.889C102.665 174.749 104.446 174.581 106.77 174.943C107.209 177.143 110.022 177.695 110.761 177.619L111.938 179.763V179.764Z" fill="#E0E0E0"/>
<path fill-rule="evenodd" clip-rule="evenodd" d="M101.504 149.12C99.8892 149.422 100.399 148.728 98.5347 149.694C98.3669 150.547 98.2305 151.104 98.0553 151.662C97.5403 153.305 97.1516 152.927 98.4186 154.06C100.142 155.37 100.08 155.848 101.053 154.016L101.788 153.023C102.591 151.586 102.728 151.475 101.758 150.135L101.504 149.12Z" fill="#E0E0E0"/>
<path d="M152.124 142.413C152.516 142.524 152.904 142.636 153.289 142.745C153.11 143.467 152.981 144.19 152.925 144.895L151.63 144.719C146.136 144.59 138.573 143.611 133.026 142.88L128.091 142.228L123.391 141.396C123.959 140.92 124.48 140.418 124.963 139.901L125.095 139.927L133.373 141.484C139.915 142.433 145.491 142.492 152.124 142.413V142.413Z" fill="#313131"/>
<path fill-rule="evenodd" clip-rule="evenodd" d="M111.879 99.4704C112.041 99.4704 112.141 99.5409 112.276 99.5644C112.459 99.532 112.635 99.4114 112.924 99.4997C113.315 99.6173 113.721 99.8611 114.039 100.081C114.098 99.5349 114.101 98.9005 114.083 98.2952C114.039 96.641 114.024 96.0066 114.021 95.8158C113.992 95.8949 113.957 95.9742 113.827 96.0595C113.704 96.1242 113.021 96.2769 112.815 95.6689C112.75 95.6865 112.685 95.707 112.618 95.7304L112.544 95.522C113.165 95.2986 113.736 95.3781 114.016 95.4427C114.024 95.2634 114.119 94.9843 113.192 94.9843C112.229 95.0782 112.306 95.754 112.515 96.5678C112.606 96.9262 112.665 97.2024 112.7 97.4844C112.838 98.6038 112.956 98.7743 111.853 98.8888C111.164 98.9562 110.758 98.5393 111.638 98.5333C112.609 98.5304 112.459 98.5362 112.291 97.5698C112.238 97.2672 112.173 96.9586 112.112 96.6443C112.021 96.1744 111.965 95.716 112.035 95.3634C112.194 94.4087 113.371 94.6143 113.869 94.2176C113.957 94.1471 114.124 94.0061 113.886 93.6918C112.892 92.2258 111.7 93.4039 111.514 93.592L111.199 93.0192C110.264 93.0219 109.139 92.8338 108.763 93.2102C108.669 93.3041 108.042 94.3089 108.316 94.2176C109.095 93.9561 110.437 93.6684 111.591 94.6995C110.873 95.6955 110.62 94.0061 108.204 95.0814C108.019 97.3289 107.645 98.8241 107.648 101.072C107.651 103.877 106.392 105.915 106.392 105.915C107.324 107.409 111.408 113.821 112.046 114.764C112.185 113.717 113.426 105.519 113.086 103.498C111.494 103.677 109.278 102.978 108.148 101.277C108.886 101.871 109.711 102.567 111.399 102.752C112.515 102.908 113.362 102.117 113.818 101.072C113.889 100.907 113.942 100.71 113.983 100.487C113.613 100.44 113.177 100.363 112.924 100.252C112.774 100.184 112.462 100.029 112.306 99.9933C112.153 100.023 111.832 100.187 111.679 100.255C111.182 100.478 109.958 100.555 109.958 100.555C109.958 100.555 110.852 99.7525 111.679 99.5031C111.756 99.4796 111.82 99.4706 111.879 99.4706L111.879 99.4704ZM111.055 95.5808L111.043 95.5779L111.052 95.5869C110.976 95.7132 110.991 95.8367 110.734 95.9746C110.561 96.0451 109.602 96.2185 109.337 95.5076C109.178 95.5339 109.019 95.5751 108.863 95.631L108.786 95.4226C109.857 95.0405 111.105 95.3667 111.108 95.3667L111.055 95.5812L111.055 95.5808Z" fill="#E0E0E0"/>
<path fill-rule="evenodd" clip-rule="evenodd" d="M113.274 100.768C112.653 101.342 111.437 101.15 111.138 100.773C111.994 100.612 112.411 100.447 113.274 100.768Z" fill="#313131"/>
</svg>
