<svg width="16" height="16" viewBox="0 0 16 16" fill="none" xmlns="http://www.w3.org/2000/svg">
<path fill-rule="evenodd" clip-rule="evenodd" d="M11.499 0.507751C12.5779 0.440321 13.6418 0.814934 14.4434 1.54917C15.1777 2.35084 15.5523 3.41474 15.4924 4.50112V11.4989C15.5598 12.5853 15.1777 13.6492 14.4509 14.4508C13.6493 15.1851 12.5779 15.5597 11.499 15.4922H4.50115C3.41477 15.5597 2.35086 15.1851 1.54918 14.4508C0.814936 13.6492 0.440321 12.5853 0.507752 11.4989V4.50112C0.440321 3.41474 0.814936 2.35084 1.54918 1.54917C2.35086 0.814934 3.41477 0.440321 4.50115 0.507751H11.499ZM7.23585 11.6337L12.2782 6.57648C12.7352 6.11196 12.7352 5.36273 12.2782 4.9057L11.3042 3.93171C10.8396 3.46719 10.0904 3.46719 9.62589 3.93171L9.12391 4.44118C9.04898 4.51611 9.04898 4.64347 9.12391 4.7184C9.12391 4.7184 10.3152 5.90217 10.3377 5.93214C10.4201 6.02205 10.4725 6.14192 10.4725 6.27679C10.4725 6.54651 10.2552 6.77127 9.97803 6.77127C9.85066 6.77127 9.73078 6.71883 9.64837 6.63641L8.39715 5.3927C8.33722 5.33276 8.23232 5.33276 8.17238 5.3927L4.59855 8.9665C4.35131 9.21375 4.20895 9.54341 4.20146 9.89554L4.15651 11.6712C4.15651 11.7686 4.18648 11.8585 4.25391 11.9259C4.32134 11.9934 4.41125 12.0308 4.50865 12.0308H6.26934C6.62897 12.0308 6.97362 11.8885 7.23585 11.6337Z" fill="#979696"/>
</svg>
