<svg width="14" height="14" viewBox="0 0 14 14" fill="none" xmlns="http://www.w3.org/2000/svg">
<path fill-rule="evenodd" clip-rule="evenodd" d="M12.6001 5.09734L13.0803 5.57734C13.4604 5.95067 13.6672 6.45734 13.6672 6.99067C13.6738 7.52401 13.4671 8.03134 13.0936 8.41068C13.0892 8.41556 13.0847 8.41985 13.0803 8.42415C13.0781 8.4263 13.0758 8.42845 13.0736 8.43067L12.6001 8.90401C12.4134 9.09067 12.3067 9.34401 12.3067 9.61134V10.2973C12.3067 11.404 11.4063 12.3047 10.2993 12.3047H9.61236C9.34559 12.3047 9.09217 12.4107 8.90543 12.5973L8.42526 13.0773C8.03178 13.4713 7.51827 13.664 7.00475 13.664C6.49123 13.664 5.97771 13.4713 5.58423 13.0847L5.09739 12.5973C4.91065 12.4107 4.65723 12.3047 4.39047 12.3047H3.70355C2.59648 12.3047 1.69616 11.404 1.69616 10.2973V9.61134C1.69616 9.34401 1.58945 9.09067 1.40272 8.89734L0.922542 8.42401C0.142259 7.64467 0.13559 6.37067 0.915873 5.58467L1.40272 5.09734C1.58945 4.91067 1.69616 4.65734 1.69616 4.38401V3.70401C1.69616 2.59734 2.59648 1.69801 3.70355 1.69801H4.39047C4.65723 1.69801 4.91065 1.59067 5.09739 1.40401L5.57756 0.924008C6.35784 0.138008 7.63164 0.138008 8.41859 0.918008L8.90543 1.40401C9.09217 1.59067 9.34559 1.69801 9.61236 1.69801H10.2993C11.4063 1.69801 12.3067 2.59734 12.3067 3.70401V4.39134C12.3067 4.65734 12.4134 4.91067 12.6001 5.09734ZM5.28413 9.29733C5.44419 9.29733 5.59091 9.23734 5.69761 9.124L9.12552 5.698C9.35227 5.47133 9.35227 5.09733 9.12552 4.87067C8.89877 4.64467 8.53197 4.64467 8.30522 4.87067L4.87731 8.29733C4.65057 8.524 4.65057 8.89734 4.87731 9.124C4.98402 9.23734 5.13074 9.29733 5.28413 9.29733ZM8.13183 8.71068C8.13183 9.03734 8.39193 9.29734 8.71871 9.29734C9.03883 9.29734 9.29892 9.03734 9.29892 8.71068C9.29892 8.39134 9.03883 8.13068 8.71871 8.13068C8.39193 8.13068 8.13183 8.39134 8.13183 8.71068ZM5.2908 4.70401C5.61091 4.70401 5.87101 4.96401 5.87101 5.28401C5.87101 5.61135 5.61091 5.87068 5.2908 5.87068C4.97068 5.87068 4.70392 5.61135 4.70392 5.28401C4.70392 4.96401 4.97068 4.70401 5.2908 4.70401Z" fill="#979696"/>
</svg>
