<svg width="375" height="30" viewBox="0 0 375 30" fill="none" xmlns="http://www.w3.org/2000/svg">
<g clip-path="url(#clip0)">
<path fill-rule="evenodd" clip-rule="evenodd" d="M-142.507 18.4016C-144.816 20.6334 -143.767 20.8459 -148.07 23.2903C-150.379 24.5656 -153.003 25.4159 -153.948 27.6477H-131.802C-132.327 26.0535 -132.641 26.1598 -134.321 25.097C-135.475 24.4594 -136.42 23.928 -137.574 23.3966C-140.198 22.1213 -141.668 21.0585 -142.507 18.4016ZM-105.668 27.3288C-107.872 23.5029 -110.915 26.0535 -116.688 18.6141C-117.843 19.5706 -117.633 20.102 -118.997 21.2711C-119.942 22.2275 -120.676 22.6527 -121.936 23.2903C-124.35 24.5656 -126.869 25.5221 -127.813 27.6477L-105.668 27.3288ZM-90.554 18.6141C-92.2332 20.102 -91.2886 20.7397 -95.8018 23.3966C-97.9009 24.5656 -100.63 25.4159 -101.679 27.5414L-79.6385 27.6477C-80.0583 25.841 -80.4781 26.0535 -82.0525 25.097C-83.207 24.4594 -84.1516 24.0343 -85.3062 23.3966C-89.5044 21.1648 -88.8746 20.6334 -90.554 18.6141ZM-64.4199 18.6141C-66.8338 21.0585 -66.0991 21.2711 -69.6677 23.2903C-72.1866 24.6719 -74.3907 25.4159 -75.5452 27.5414L-53.3994 27.6477C-54.1341 25.4159 -56.6531 24.7782 -58.9621 23.5029C-62.7405 21.3773 -62.1108 21.3773 -64.4199 18.6141ZM-38.3907 18.6141C-40.5948 21.0585 -40.0699 21.3773 -43.6385 23.3966C-45.7376 24.5656 -48.7814 25.4159 -49.4111 27.6477H-27.2653C-29.4694 23.6091 -31.6735 26.2661 -38.3907 18.6141ZM-12.2566 18.6141C-13.726 20.3146 -13.5161 21.2711 -17.5044 23.3966C-20.0233 24.7782 -22.0175 25.5221 -23.382 27.5414L-1.13123 27.6477C-2.39069 25.097 -6.79883 23.7154 -9.73761 21.4836C-11.312 20.3146 -10.8922 19.8895 -12.2566 18.6141ZM13.8776 18.6141C11.7784 21.1648 12.4081 21.2711 8.94458 23.184C6.53058 24.5656 3.90668 25.4159 2.9621 27.3288C3.06708 27.3288 3.172 27.2226 3.27698 27.4351C3.59186 28.0728 24.2682 27.6477 25.0029 27.5414C23.5335 24.7782 19.6501 24.2468 16.3965 21.4836C14.8221 20.3146 15.137 19.7832 13.8776 18.6141ZM39.8018 18.5078C38.7522 20.9522 37.3878 22.015 34.7639 23.3966C31.7201 24.8845 29.5161 25.6284 28.9913 27.6477H51.0321C50.4023 24.8845 45.9942 24.3531 42.5306 21.4836C41.481 20.7397 41.9009 21.0585 41.1662 20.102C40.7463 19.5706 40.9563 19.7832 40.5364 19.3581C40.1166 18.8267 40.2216 18.8267 39.8018 18.5078ZM66.0408 18.6141C63.8367 21.4836 64.3615 21.3773 60.793 23.3966C58.379 24.6719 55.7551 25.5221 55.0204 27.5414L77.2711 27.6477C75.9067 24.7782 71.3936 23.8217 68.5598 21.4836C67.3003 20.4208 67.3003 19.7832 66.0408 18.6141ZM91.965 18.5078C89.2361 24.7782 82.309 23.6091 81.2595 27.6477H103.3C102.146 24.7782 98.1574 24.3531 94.7988 21.4836C93.8542 20.7397 94.1691 20.8459 93.4344 20.102C92.9096 19.4643 93.3294 19.7832 92.8047 19.2518C92.1749 18.6141 92.6997 19.0392 91.965 18.5078ZM118.834 18.5078C116.735 19.7832 117.155 21.0585 113.376 23.184C111.172 24.4594 108.128 25.5221 107.394 27.6477H129.539C127.965 24.0343 121.458 23.928 118.834 18.5078ZM144.233 18.4016C142.449 23.3966 134.682 24.3531 133.528 27.6477H155.569C154.519 24.2468 150.006 24.9908 145.808 19.9957L144.233 18.4016ZM171.102 18.5078C170.997 18.5078 170.787 18.5078 170.787 18.7204C170.682 19.0392 167.429 22.1213 165.539 23.184C163.125 24.5656 160.606 25.4159 159.662 27.6477H181.703C180.653 24.2468 172.886 23.2903 171.102 18.5078ZM197.236 18.5078C195.242 19.7832 195.872 20.8459 191.673 23.184C189.259 24.5656 186.741 25.4159 185.796 27.6477H207.837C206.787 24.2468 199.65 23.8217 197.236 18.5078ZM223.055 18.6141L222.636 19.0392C220.641 20.9522 222.006 20.8459 217.808 23.184C215.499 24.5656 212.665 25.6284 211.93 27.6477H233.971C232.606 23.7154 227.044 25.097 223.055 18.6141ZM249.399 18.5078C249.294 18.5078 249.085 18.5078 249.085 18.7204C248.875 19.4643 245.621 22.1213 243.837 23.2903C241.528 24.6719 238.904 25.5221 238.064 27.6477H260.105C259.16 24.0343 251.289 24.0343 249.399 18.5078ZM275.534 18.5078C273.434 20.3146 274.799 20.4208 269.971 23.2903C267.557 24.6719 265.248 25.4159 264.093 27.5414L286.239 27.6477C285.085 23.8217 277.633 24.2468 275.534 18.5078ZM301.353 18.6141L300.303 19.7832C296.735 24.3531 291.907 24.1405 290.227 27.6477H312.268C311.114 23.6091 306.81 25.9472 301.353 18.6141ZM327.487 18.6141L327.067 19.0392C321.924 25.3096 318.041 24.0343 316.362 27.5414L338.612 27.6477C335.569 23.2903 332.42 25.4159 327.487 18.6141ZM353.621 18.6141C352.362 19.6769 352.676 20.2083 351.312 21.2711C348.583 23.6091 343.755 25.097 342.496 27.5414L364.431 27.6477C363.697 24.0343 359.604 26.0535 353.621 18.6141ZM390.671 27.3288C388.886 23.7154 384.058 24.9908 379.65 18.6141C377.761 20.5271 379.125 20.6334 374.402 23.2903C371.988 24.6719 369.784 25.5221 368.525 27.5414C369.784 27.6477 388.886 28.0728 390.671 27.3288ZM405.784 18.6141C403.895 20.5271 405.259 20.6334 400.536 23.2903C398.227 24.5656 395.708 25.7347 394.659 27.5414L416.91 27.6477C415.965 25.7347 413.551 24.6719 411.347 23.5029C406.204 20.6334 407.883 20.6334 405.784 18.6141ZM431.918 18.6141C430.344 20.7397 429.609 21.6962 426.985 23.184C424.571 24.5656 422.052 25.2033 421.003 27.3288L431.918 27.6477C435.487 27.6477 439.475 27.8602 443.044 27.5414C441.469 24.8845 437.376 23.928 434.437 21.5899C432.863 20.3146 433.073 19.7832 431.918 18.6141ZM458.052 18.6141C455.743 21.2711 457.738 20.4208 452.805 23.3966C449.446 25.3096 447.662 25.3096 447.137 27.6477H469.178C468.233 25.7347 465.819 24.7782 463.615 23.5029C460.257 21.5899 460.257 20.5271 458.052 18.6141ZM484.082 18.6141C479.044 25.5221 475.37 23.6091 473.166 27.3288L495.207 27.5414C493.318 24.1405 489.224 24.8845 484.082 18.6141ZM510.216 18.6141C507.907 21.3773 508.746 21.1648 505.283 23.184C502.974 24.4594 500.35 25.5221 499.3 27.3288L521.341 27.6477C520.082 25.097 515.883 23.928 512.735 21.4836C511.16 20.3146 511.58 19.7832 510.216 18.6141ZM536.035 18.5078C533.621 24.3531 526.379 23.8217 525.434 27.6477H547.475C545.796 24.1405 542.962 25.7347 536.665 19.0392L536.035 18.5078ZM47.5685 10.9622C44 11.0684 40.7463 13.0877 42.4257 16.4886C46.2041 17.3388 45.4694 12.3438 47.5685 10.9622ZM73.5977 11.0684C70.344 10.9622 66.3557 13.9379 68.4548 16.276C69.7143 17.7639 71.1837 15.9572 71.7084 14.6819C72.3382 13.194 72.4431 12.0249 73.5977 11.0684ZM152 10.9622C148.327 11.0684 145.913 12.8752 146.752 16.5949C150.741 17.1262 150.006 13.194 152 10.9622ZM215.499 10.9622C216.338 12.5563 216.548 12.3438 217.388 14.4693C217.808 15.6384 218.962 17.7639 220.536 16.3823C221.796 15.3195 221.586 11.0684 215.499 10.9622ZM246.461 16.7011C248.35 13.5128 245.516 11.281 241.843 10.9622L242.787 12.8752C244.257 15.6384 243.627 16.7011 246.461 16.7011ZM320.14 10.9622C320.14 11.1747 320.245 11.1747 320.35 11.4936C320.35 11.4936 322.974 18.189 324.968 16.4886C327.802 13.9379 323.184 11.1747 320.14 10.9622ZM346.274 10.9622C351.102 23.7154 355.615 11.5998 346.274 10.9622V10.9622ZM439.16 11.0684C435.592 11.0684 432.758 13.3003 434.437 16.5949C436.117 16.9137 436.746 16.3823 437.376 15.0007C438.006 13.5128 438.741 12.2375 439.16 11.0684ZM465.294 10.9622C456.268 11.4936 460.781 20.6334 463.405 15.0007L465.294 10.9622ZM534.251 16.4886C535.09 12.8752 532.676 10.7496 528.793 11.0684C530.262 12.7689 529.948 11.8124 530.787 14.5756C531.522 16.7011 531.942 17.1262 534.251 16.4886ZM-161.399 11.0684C-164.653 10.8559 -169.166 13.7254 -166.542 16.3823C-164.968 17.8702 -163.813 15.8509 -163.394 14.5756C-162.554 12.3438 -162.659 12.5563 -161.399 11.0684ZM-145.446 16.7011C-143.662 13.5128 -146.391 11.0684 -150.379 10.9622C-149.854 12.1312 -149.12 12.8752 -148.49 14.363C-147.755 16.1698 -147.65 16.7011 -145.446 16.7011ZM-135.265 11.0684C-144.711 10.112 -139.883 22.1213 -137.259 14.5756C-136.63 12.7689 -136.21 12.0249 -135.265 11.0684ZM-119.207 16.4886C-117.423 13.3003 -120.781 10.8559 -124.245 11.0684C-123.51 12.4501 -123.09 12.4501 -122.356 14.363C-121.726 16.1698 -121.201 17.02 -119.207 16.4886ZM-109.131 11.0684C-113.12 10.7496 -115.219 12.9814 -114.589 16.5949C-110.915 17.1262 -111.23 13.7254 -109.131 11.0684ZM-98.1108 11.0684C-97.4811 12.3438 -96.9563 12.7689 -96.1166 14.6819C-95.5919 15.7446 -94.2274 17.8702 -92.863 16.276C-90.7639 13.9379 -94.7522 10.9622 -98.1108 11.0684ZM-82.9971 11.0684C-86.0408 10.8559 -89.1895 12.6626 -88.6647 15.3195C-88.3499 16.7011 -88.2449 16.276 -88.035 16.5949C-85.2012 17.1262 -84.6764 13.3003 -82.9971 11.0684ZM-71.9767 11.0684C-71.242 12.3438 -70.8221 12.7689 -69.9825 14.6819C-69.4577 15.8509 -68.0933 17.8702 -66.7289 16.276C-64.6298 13.9379 -68.723 10.9622 -71.9767 11.0684ZM-56.863 11.0684C-60.4315 10.9622 -63.7901 13.0877 -62.0059 16.5949C-60.0117 16.9137 -59.5919 16.0635 -58.9621 14.6819C-58.0175 12.6626 -57.7026 12.3438 -56.863 11.0684ZM-40.8047 16.5949C-39.0204 13.0877 -42.274 10.9622 -45.8426 10.9622C-45.2128 12.2375 -44.688 12.4501 -44.0583 14.363C-43.2187 16.3823 -43.3236 17.02 -40.8047 16.5949ZM-30.8338 11.0684C-34.5073 10.8559 -37.551 13.194 -35.8717 16.5949C-33.8776 16.9137 -33.4577 16.0635 -32.828 14.6819C-31.9883 12.7689 -31.5685 12.3438 -30.8338 11.0684ZM-19.8134 11.0684C-18.554 12.7689 -18.6589 12.2375 -17.7143 14.6819C-17.2945 15.8509 -15.8251 17.7639 -14.4606 16.3823C-12.3615 14.0442 -16.14 10.8559 -19.8134 11.0684ZM-4.69971 11.0684C-8.05829 10.9622 -12.0466 13.9379 -9.94751 16.276C-8.47815 17.8702 -7.11371 15.7446 -6.69391 14.6819C-5.95917 12.9814 -5.32947 12.1312 -4.69971 11.0684ZM11.3586 16.5949C12.5131 15.107 12.0933 13.6191 10.9388 12.4501C9.88922 11.4936 8.2099 10.9622 6.42566 11.0684C9.67932 15.8509 8 17.2325 11.3586 16.5949ZM21.4344 11.0684C17.7609 10.9622 13.8776 14.363 16.3965 16.4886C17.7609 17.6576 19.0204 15.8509 19.4402 14.6819C20.3848 12.4501 20.6997 12.5563 21.4344 11.0684ZM32.4548 11.0684C33.3994 12.2375 33.8192 12.6626 34.449 14.5756C34.8688 15.7446 36.0233 17.9765 37.7026 16.276C39.8018 14.0442 35.7084 10.8559 32.4548 11.0684ZM63.9417 16.5949C64.7813 12.7689 62.3673 10.9622 58.5889 11.0684C59.5335 12.4501 59.7434 12.4501 60.5831 14.6819C61.3178 16.7011 61.6327 17.02 63.9417 16.5949ZM84.6181 11.0684C87.4519 14.363 86.2974 15.4258 87.6618 16.3823C91.1254 18.933 92.3848 10.4308 84.6181 11.0684ZM99.7318 11.0684C95.9533 10.9622 92.9096 13.4065 94.7988 16.7011C97.0029 16.7011 97.1079 16.1698 97.8426 14.4693C98.6822 12.5563 99.207 12.2375 99.7318 11.0684ZM110.857 11.1747C111.907 11.9187 112.327 12.7689 112.851 14.4693C113.271 15.6384 114.426 17.9765 116 16.3823C118.414 14.0442 114.426 10.6433 110.857 11.1747ZM126.076 11.1747C124.292 10.8559 123.032 11.3873 121.878 12.3438C120.618 13.3003 120.198 14.5756 120.618 16.5949C125.341 17.2325 123.347 12.4501 126.076 11.1747ZM136.991 11.1747C138.776 12.2375 139.615 18.8267 142.134 16.3823C144.443 14.2568 140.455 10.6433 136.991 11.1747ZM168.583 16.7011C169.318 13.0877 166.904 10.6433 163.125 11.1747C166.064 13.3003 163.86 17.1262 168.583 16.7011ZM178.344 11.1747C174.671 10.6433 170.682 14.0442 173.096 16.3823C174.776 17.8702 175.825 15.6384 176.245 14.5756C176.98 12.8752 177.399 11.9187 178.344 11.1747ZM194.297 16.7011C195.872 13.3003 192.828 10.5371 189.155 11.1747C191.883 12.2375 189.889 16.7011 194.297 16.7011ZM204.478 11.1747C201.015 10.6433 197.026 14.1505 199.23 16.3823C201.749 18.7204 202.799 12.4501 204.478 11.1747ZM230.507 11.1747C227.149 10.6433 223.265 14.2568 225.364 16.3823C226.939 17.9765 228.093 15.7446 228.618 14.5756C229.248 12.7689 229.143 12.2375 230.507 11.1747ZM256.641 11.1747C253.073 10.6433 249.19 14.0442 251.499 16.3823C253.073 17.8702 254.227 15.8509 254.647 14.5756C255.277 12.9814 255.802 11.8124 256.641 11.1747ZM272.595 16.7011C274.379 13.5128 271.545 10.8559 267.767 11.0684C268.187 12.0249 269.026 12.9814 269.551 14.363C270.286 16.276 270.496 16.7011 272.595 16.7011ZM282.776 11.0684C278.892 10.6433 276.478 12.9814 277.318 16.5949C281.096 17.4451 280.362 13.9379 282.776 11.0684ZM298.729 16.7011C300.408 13.3003 297.259 10.4308 293.586 11.1747C296.315 11.9187 294.216 16.5949 298.729 16.7011ZM308.91 11.0684C299.359 10.3245 304.396 21.9087 306.915 14.5756C307.65 12.4501 307.545 12.6626 308.91 11.0684ZM334.939 11.0684C331.055 10.7496 328.746 12.8752 329.586 16.5949C333.155 17.3388 332.84 13.6191 334.939 11.0684ZM361.073 11.0684C357.609 10.7496 353.726 14.0442 355.93 16.3823C357.294 17.7639 358.659 15.7446 359.079 14.5756C359.918 12.6626 360.023 12.4501 361.073 11.0684ZM377.236 16.5949C378.915 13.194 375.662 10.9622 372.093 11.0684C372.933 12.2375 373.353 12.7689 373.982 14.363C374.717 16.0635 375.137 16.9137 377.236 16.5949ZM387.207 11.0684C383.848 10.8559 379.755 13.9379 381.959 16.3823C383.324 17.8702 384.688 15.8509 385.213 14.6819C386.157 12.5563 386.367 12.5563 387.207 11.0684ZM403.265 16.5949C405.05 13.194 401.901 10.9622 398.227 11.0684C398.962 12.2375 399.382 12.5563 400.117 14.363C400.851 16.0635 401.271 16.9137 403.265 16.5949ZM413.341 11.0684C409.773 10.8559 406.414 13.194 408.303 16.5949C410.192 16.9137 410.717 16.1698 411.347 14.6819C412.187 12.7689 412.606 12.4501 413.341 11.0684ZM424.362 11.0684C426.251 14.1505 427.72 18.4016 429.609 16.3823C430.974 14.8944 429.504 10.7496 424.362 11.0684ZM450.496 11.0684C451.545 12.4501 451.755 12.6626 452.49 14.6819C453.015 15.8509 454.274 17.7639 455.743 16.3823C457.948 14.0442 454.064 10.7496 450.496 11.0684ZM481.983 16.4886C482.822 12.7689 480.408 10.7496 476.63 11.1747C478.939 13.8317 478.204 17.4451 481.983 16.4886ZM491.638 11.0684C488.28 10.9622 484.396 13.9379 486.391 16.276C487.755 17.7639 489.12 15.9572 489.644 14.6819C490.379 12.9814 491.114 12.2375 491.638 11.0684ZM508.117 16.4886C508.851 12.8752 506.647 10.8559 502.764 11.0684C504.023 12.9814 503.708 12.2375 504.653 14.5756C505.388 16.3823 506.227 16.9137 508.117 16.4886ZM517.773 11.0684C514.519 11.0684 510.426 13.8317 512.525 16.276C513.994 17.8702 515.254 15.7446 515.778 14.6819C516.513 12.9814 517.248 12.1312 517.773 11.0684ZM544.117 11.1747C540.128 10.4308 537.294 13.7254 538.974 16.7011C543.487 16.5949 541.388 11.9187 544.117 11.1747ZM44.1049 8.62407C43.4752 6.39225 41.7959 5.96714 39.9067 5.11693C37.9125 6.49853 36.863 6.1797 35.9183 8.62407L40.4315 11.8124C40.4315 11.7061 40.7463 11.3873 40.8513 11.281C41.586 10.4308 40.8513 11.1747 41.6909 10.3245C41.7959 10.3245 44 8.62407 44.1049 8.62407ZM-142.822 12.6626C-141.563 10.112 -141.563 10.5371 -138.834 9.04918C-139.044 6.28598 -140.828 6.60481 -142.717 5.11693C-144.606 5.86087 -146.286 6.39225 -146.915 8.62407C-145.551 10.6433 -146.391 8.19897 -142.822 12.6626ZM-116.688 12.5563C-115.219 9.8994 -115.429 10.5371 -112.805 9.04918C-112.91 6.81736 -115.534 4.26671 -118.892 6.28598C-120.676 7.34875 -120.257 6.92364 -120.781 8.62407C-119.522 10.2182 -119.312 8.9429 -116.688 12.5563ZM-86.5656 8.62407C-87.1953 6.49853 -88.6647 6.28598 -90.554 5.11693C-92.3382 6.1797 -94.0175 6.28598 -94.6472 8.62407L-93.7026 9.47429C-93.1779 9.8994 -93.0729 9.79312 -92.5481 10.2182C-92.0233 10.6433 -92.0233 10.5371 -91.6035 11.0684C-91.6035 11.1747 -91.4985 11.281 -91.3936 11.281C-91.3936 11.3873 -91.2886 11.4936 -91.1837 11.5998L-90.7639 12.1312C-90.7639 12.1312 -90.6589 12.3438 -90.554 12.3438C-88.035 8.62407 -87.9301 10.6433 -86.5656 8.62407ZM-60.4315 8.62407C-61.0612 6.39225 -62.5306 6.1797 -64.4199 5.11693C-66.519 6.28598 -67.7784 6.28598 -68.5131 8.62407L-68.0933 9.04918C-66.414 10.4308 -66.6239 9.58057 -65.0496 11.5998L-64.4199 12.3438C-64.3149 12.3438 -64.3149 12.0249 -64.2099 12.1312L-63.6851 11.281C-62.5306 9.79312 -62.7405 10.4308 -61.586 9.68684C-60.5364 9.04918 -61.1662 9.68684 -60.4315 8.62407ZM-34.2974 8.62407C-35.0321 6.28598 -36.2916 6.28598 -38.3907 5.11693C-40.1749 6.07342 -41.7493 6.49853 -42.379 8.62407C-41.5394 9.58057 -40.3848 9.8994 -39.3353 10.9622L-38.3907 12.3438C-38.2857 12.2375 -38.1808 12.0249 -38.1808 12.1312C-38.0758 12.1312 -37.9708 11.9187 -37.9708 11.8124C-36.1866 9.58057 -36.6064 10.5371 -34.9271 9.26174C-34.2974 8.73035 -34.8221 9.26174 -34.2974 8.62407ZM-8.16327 8.62407C-9.00293 6.07342 -11.7318 5.2232 -12.2566 5.32948C-12.5714 5.32948 -15.4053 6.1797 -16.3499 8.62407L-15.6152 9.26174C-15.5102 9.26174 -15.4053 9.36801 -15.3003 9.47429C-13.8309 10.5371 -14.0408 9.8994 -12.6764 11.8124H-11.8367C-9.52771 8.9429 -9.31781 10.112 -8.16327 8.62407ZM17.9708 8.62407C17.1312 5.96714 14.1924 5.2232 13.8776 5.32948C13.6677 5.32948 10.6239 6.1797 9.78424 8.62407C11.2537 10.6433 11.6735 8.62407 13.8776 12.5563C16.8163 9.26174 13.4577 12.3438 17.2361 9.26174C17.9708 8.73035 17.446 9.26174 17.9708 8.62407ZM70.2391 8.62407C68.9796 4.58554 63.4169 4.26671 62.0525 8.62407C63.6268 10.8559 63.5219 8.30524 66.0408 12.4501C68.7697 8.83663 68.9796 10.4308 70.2391 8.62407ZM96.3732 8.62407C95.6385 6.28598 94.274 6.39225 92.1749 5.11693C90.2857 6.39225 89.0262 6.28598 88.1866 8.62407C89.551 10.5371 90.3907 9.15546 92.1749 12.5563C94.9038 9.36801 92.9096 11.4936 95.6385 9.36801C96.3732 8.73035 95.7434 9.36801 96.3732 8.62407ZM122.507 8.62407C121.563 4.90437 116.315 3.94788 114.321 8.62407C115.895 10.6433 117.05 9.68684 117.994 12.5563L122.507 8.62407ZM148.641 8.62407C147.907 6.60481 146.332 6.1797 144.863 5.11693C142.764 5.75459 141.085 6.60481 140.56 8.62407C142.029 10.8559 143.079 9.47429 144.128 12.5563C144.233 12.4501 144.443 12.2375 144.443 12.2375L146.332 10.5371C147.382 9.68684 147.802 9.8994 148.641 8.62407ZM174.671 8.09269C174.041 6.49853 172.466 5.75459 170.472 5.2232C168.373 6.28598 167.219 6.49853 166.589 8.62407L171.102 12.5563C172.362 9.04918 172.781 11.8124 174.671 8.09269ZM200.91 8.62407C200.175 6.81736 198.81 6.07342 197.026 5.11693C194.297 6.07342 193.248 6.60481 192.723 8.62407L197.236 12.4501C198.391 9.8994 199.545 10.4308 200.91 8.62407ZM226.939 8.62407C226.309 6.28598 224.84 6.49853 223.055 5.11693C221.061 6.07342 219.487 6.39225 218.857 8.62407C220.222 10.6433 220.012 8.62407 223.055 12.5563C224.525 10.2182 226.099 10.0057 226.939 8.62407ZM249.19 12.5563C250.344 9.8994 250.344 10.6433 253.073 9.04918C252.968 6.92364 251.708 6.28598 248.77 5.11693C246.776 6.60481 245.726 6.07342 244.991 8.62407C246.776 10.9622 246.671 8.83663 249.19 12.5563ZM275.219 12.5563C276.478 10.0057 276.478 10.5371 279.207 9.04918C278.997 6.39225 277.108 6.39225 275.324 5.11693C273.434 5.75459 271.755 6.49853 271.125 8.62407C272.28 10.2182 272.28 9.47429 273.539 10.4308C274.694 11.281 274.274 11.4936 275.219 12.5563ZM305.341 8.62407C303.452 3.73532 298.204 5.01065 297.259 8.62407C298.204 10.0057 297.889 9.15546 299.359 10.2182L300.723 11.5998C300.828 11.7061 300.933 11.8124 301.038 11.9187L301.668 12.4501C302.822 10.2182 304.187 10.3245 305.341 8.62407ZM331.475 8.62407C330.741 6.39225 329.271 6.39225 327.487 5.11693C325.388 6.28598 324.128 6.1797 323.394 8.62407C324.023 9.58057 324.968 9.79312 327.172 11.9187L327.802 12.4501C328.956 10.4308 330.426 10.2182 331.475 8.62407ZM357.609 8.62407C356.77 6.39225 355.615 6.28598 353.621 5.11693C352.886 5.43576 352.152 5.86087 351.312 6.28598C349.843 7.24247 350.052 6.71108 349.423 8.62407C350.367 9.8994 350.787 9.58057 351.837 10.4308C353.096 11.3873 352.571 11.4936 353.621 12.5563C355.825 8.73035 356.245 10.5371 357.609 8.62407ZM379.65 5.11693C377.761 6.07342 376.292 6.49853 375.662 8.62407L380.07 11.8124C381.329 10.2182 381.434 10.112 383.743 9.15546C383.324 6.49853 381.854 6.28598 379.65 5.11693ZM409.878 8.62407C409.143 6.49853 407.673 6.07342 405.784 5.11693C404 6.07342 402.426 6.60481 401.691 8.62407C402.95 10.3245 403.265 9.04918 405.155 11.4936C405.259 11.5998 405.364 11.7061 405.364 11.8124H406.204C408.408 9.04918 408.723 10.112 409.878 8.62407ZM436.012 8.62407C435.382 6.49853 433.808 6.07342 431.918 5.11693C429.714 6.28598 428.245 6.49853 427.825 9.15546C430.029 10.0057 430.659 10.7496 431.918 12.3438L435.382 9.36801C435.907 8.73035 435.487 9.26174 436.012 8.62407ZM462.146 8.62407C461.516 6.81736 461.831 7.34875 460.571 6.49853C459.627 5.86087 458.787 5.43576 458.052 5.11693C456.058 6.39225 454.274 6.49853 454.064 9.04918C456.898 10.6433 456.373 9.8994 458.052 12.5563C458.997 11.4936 458.472 11.3873 459.732 10.4308L461.411 9.36801C462.146 8.73035 461.516 9.47429 462.146 8.62407ZM483.767 12.4501C483.977 12.3438 484.082 12.0249 484.082 12.1312L485.866 10.4308C486.915 9.58057 487.335 9.8994 488.175 8.62407C487.65 6.60481 486.181 5.96714 484.082 5.2232C482.192 6.07342 480.723 6.81736 480.093 8.62407C481.248 10.2182 482.612 10.3245 483.767 12.4501ZM514.309 8.62407C513.889 7.13619 513.994 7.24247 512.735 6.39225C510.321 4.90437 510.006 5.11693 508.012 6.39225C506.752 7.24247 506.752 7.02992 506.227 8.62407C507.172 10.0057 507.277 9.26174 508.536 10.3245C509.586 11.0684 509.481 11.3873 510.216 12.5563L514.309 8.62407ZM540.443 8.62407C539.813 6.49853 538.449 5.96714 536.35 5.2232C534.356 6.07342 532.991 6.71108 532.362 8.62407C533.201 10.2182 534.671 9.8994 536.035 12.4501L537.19 11.3873C538.029 10.4308 537.085 11.1747 538.134 10.4308C539.079 9.58057 539.603 9.8994 540.443 8.62407ZM-153.003 2.14117L-158.671 2.35372L-168.536 2.24744C-166.857 5.64831 -163.708 2.46 -162.239 8.73035C-159.615 9.04918 -158.776 9.36801 -157.516 10.6433C-158.88 13.6191 -158.356 9.58057 -161.19 15.4258C-162.764 18.7204 -164.128 18.2953 -165.388 19.6769C-161.504 22.2275 -159.405 23.0778 -155.627 25.841C-153.738 23.6091 -149.015 21.4836 -146.496 19.3581C-148.805 17.6576 -149.12 18.7204 -150.484 15.5321C-151.848 12.5563 -151.743 12.9814 -154.262 11.281C-153.633 9.58057 -151.953 9.04918 -149.434 8.73035C-148.7 3.52277 -145.236 5.2232 -143.242 2.24744L-153.003 2.14117ZM-126.974 2.24744H-132.536H-142.402C-141.563 3.94788 -140.513 3.73532 -138.624 4.90437C-136.945 5.96714 -136.945 6.81736 -135.895 8.5178C-133.901 9.58057 -132.641 9.15546 -131.487 11.281C-138.204 15.6384 -132.117 15.0007 -138.309 19.0392C-139.149 19.4643 -138.624 18.933 -139.254 19.6769C-137.994 20.5271 -136.63 21.6962 -134.531 22.6527C-132.117 23.8217 -131.172 24.5656 -129.598 25.841C-126.869 22.9715 -122.566 22.015 -120.362 19.1455C-122.671 18.5078 -123.405 17.6576 -124.35 15.5321C-125.924 12.2375 -125.504 13.194 -128.128 11.281C-127.289 9.47429 -125.819 8.9429 -123.3 8.83663C-122.776 3.73532 -118.997 5.11693 -117.108 2.24744H-126.974ZM-100.84 2.24744H-106.507C-108.082 2.24744 -109.656 2.24744 -111.23 2.24744C-112.07 2.24744 -113.224 2.14117 -113.959 2.24744L-116.268 2.88511C-107.767 7.45502 -112.175 6.39225 -109.761 8.5178C-107.872 9.47429 -106.297 9.36801 -105.353 11.281C-108.082 13.0877 -107.557 12.1312 -108.921 15.4258C-109.971 17.9765 -110.076 17.7639 -111.65 18.6141L-112.28 18.933C-112.91 19.4643 -112.595 19.0392 -113.12 19.5706C-110.496 21.4836 -105.668 23.8217 -103.569 25.841C-101.889 23.2903 -99.2653 23.3966 -94.2274 19.4643C-96.3265 17.5514 -96.7463 18.8267 -98.3207 15.5321C-100 12.1312 -99.2653 13.3003 -101.994 11.281C-101.469 10.3245 -101.469 10.2182 -100.42 9.58057C-98.9504 8.73035 -98.1108 9.04918 -97.4811 8.30524C-96.2216 6.71108 -97.1662 6.07342 -94.7522 4.7981C-92.968 3.73532 -91.9184 3.73532 -90.9738 2.24744H-100.84ZM-74.7056 2.24744H-80.3732H-90.2391C-89.2945 3.8416 -88.2449 3.62905 -86.3557 4.7981C-84.7814 5.86087 -84.6764 6.92364 -83.6268 8.5178C-81.8426 9.58057 -80.1633 9.36801 -79.2187 11.281C-81.9475 12.9814 -81.5277 12.1312 -82.8922 15.4258C-83.312 16.5949 -83.6268 17.4451 -84.3615 18.0827C-85.2012 18.8267 -86.0408 18.7204 -86.9854 19.5706C-84.5714 21.2711 -79.2187 23.928 -77.5394 25.841C-76.2799 24.0343 -75.3353 23.928 -73.0262 22.7589C-70.9271 21.6962 -69.4577 20.4208 -68.0933 19.4643C-69.9825 17.6576 -70.7172 18.6141 -72.1866 15.5321C-73.8659 12.1312 -72.9213 13.4065 -75.86 11.281C-75.0204 9.58057 -73.7609 8.83663 -71.0321 8.83663C-70.5073 3.52277 -66.7289 5.2232 -64.8397 2.24744H-74.7056ZM-48.5714 2.24744H-54.2391H-64.105C-63.1603 3.8416 -61.9009 3.8416 -60.2216 4.69182C-57.9125 5.86087 -58.8572 6.49853 -57.5977 8.41152C-55.8134 9.58057 -54.1341 9.36801 -53.0845 11.281C-56.0233 13.194 -55.0787 12.2375 -56.758 15.4258C-57.2828 16.5949 -57.7026 17.2325 -58.4373 17.8702L-60.8513 19.5706C-56.6531 22.5464 -52.9796 23.8217 -51.4053 25.841C-49.3062 23.184 -43.2187 21.8024 -42.1691 19.0392C-46.4723 17.5514 -45.6326 14.7881 -47.5219 12.8752C-48.6764 11.4936 -48.8863 12.4501 -49.621 10.8559C-47.7318 9.04918 -46.9971 9.58057 -45.2128 8.41152C-44.0583 6.81736 -44.3732 5.96714 -42.4839 4.7981C-40.6997 3.73532 -39.6501 3.8416 -38.7056 2.24744H-48.5714ZM-22.4373 2.24744H-28.105H-37.9708C-37.0262 3.73532 -35.9767 3.73532 -34.1924 4.7981C-32.3032 5.96714 -32.6181 6.60481 -31.4636 8.41152C-29.7842 9.58057 -28.7347 9.04918 -27.0554 10.8559C-28.2099 13.3003 -28 10.112 -30.6239 15.5321C-31.5685 17.4451 -31.8834 17.6576 -33.3528 18.6141C-33.4577 18.7204 -33.7726 18.933 -33.8776 18.933C-34.5073 19.3581 -34.1924 19.0392 -34.7172 19.5706C-33.0379 20.7397 -32.6181 21.3773 -30.0991 22.5464C-27.5802 23.8217 -26.6356 24.0343 -25.2711 25.841C-23.9067 24.0343 -19.6035 22.2275 -15.8251 19.5706C-17.1895 18.0827 -18.449 18.6141 -19.8134 15.8509C-21.5977 12.3438 -20.3382 13.3003 -23.5919 11.281C-22.4373 9.04918 -20.863 9.68684 -19.1837 8.41152C-17.9242 6.81736 -18.1341 5.96714 -16.4548 4.7981C-14.5656 3.62905 -13.5161 3.8416 -12.5714 2.24744H-22.4373ZM3.69678 2.24744H-1.97083H-11.8367C-10.8922 3.73532 -9.84259 3.73532 -8.05829 4.7981C-4.90961 6.71108 -7.32361 7.66758 -4.06995 8.9429C-3.54517 9.15546 -3.33527 9.15546 -2.70557 9.47429C-1.55103 10.0057 -1.34113 10.4308 -0.816345 11.281C-3.75513 13.4065 -2.70557 11.9187 -4.48981 15.5321C-5.95917 18.5078 -6.58893 17.6576 -8.58307 19.4643C-7.00873 20.6334 -6.37903 21.3773 -3.96503 22.5464C-1.44604 23.8217 -0.606445 23.8217 0.757996 25.841C2.7522 23.7154 5.90088 22.7589 10.309 19.5706C8.83966 18.0827 7.7901 19.4643 6.32068 15.7446C4.85132 12.3438 5.3761 13.194 2.5423 11.281C3.48688 9.36801 5.1662 9.58057 6.95044 8.5178C8.10498 6.81736 8 5.96714 9.67932 4.90437C11.4636 3.73532 12.723 3.8416 13.4577 2.24744H3.69678ZM29.726 2.24744H24.1633H14.2974C15.242 3.8416 16.1866 3.62905 18.0758 4.7981C21.2245 6.71108 18.8105 7.77386 21.9592 8.9429C23.7434 9.58057 24.4781 9.47429 25.3177 11.281C22.7988 13.0877 23.2186 12.0249 21.7493 15.2133C20.6997 17.3388 20.1749 18.2953 17.6559 19.0392C19.1254 22.1213 25.1078 22.9715 26.8922 25.841C29.2012 23.5029 32.035 22.7589 36.4431 19.5706C34.8688 17.9765 34.0292 19.4643 32.4548 15.7446C30.8804 12.2375 31.5102 13.0877 28.6764 11.281C29.8309 9.15546 31.0904 9.58057 33.0845 8.5178C34.1341 6.92364 34.1341 6.07342 35.4985 5.01065C36.758 4.16043 38.5423 3.41649 39.5918 2.77883L29.726 2.24744ZM55.86 2.24744H50.1924H40.3265C41.2711 3.73532 42.4257 3.73532 44.2099 4.7981C46.0991 5.96714 45.6793 6.60481 46.8338 8.41152C48.3032 9.47429 49.7726 9.15546 51.3469 10.8559C50.1924 13.0877 50.0875 10.6433 47.8834 15.2133C46.7289 17.5514 46.309 18.2953 43.7901 19.0392C45.0496 22.015 51.242 23.0778 53.0262 25.7347C55.6501 23.184 57.9592 22.9715 62.4723 19.6769C62.3673 19.5706 62.2624 19.3581 62.1574 19.3581C62.1574 19.4643 59.5335 18.189 58.4839 15.7446C57.1195 12.3438 57.5394 13.0877 54.8105 11.281C55.7551 9.47429 57.2245 9.47429 59.2187 8.5178C60.2682 6.92364 60.3732 5.86087 61.9475 4.90437C63.7318 3.73532 64.8863 3.8416 65.726 2.24744H55.86ZM81.9942 2.24744L76.3265 2.14117L66.4606 2.24744C68.6647 5.2232 71.0787 2.99138 72.9679 8.83663C75.5918 8.9429 76.7463 9.58057 77.481 11.281C74.9621 13.194 75.3819 12.2375 73.8076 15.5321C72.2332 18.8267 71.8134 17.5514 69.8192 19.4643C71.1837 20.4208 72.1283 21.4836 74.3324 22.5464C76.7463 23.7154 77.9009 23.8217 79.0554 25.841C80.3148 24.6719 81.7842 23.7154 83.9883 22.6527C86.0875 21.6962 87.8717 20.8459 88.3965 19.0392C82.0991 17.02 87.5569 15.5321 80.9446 11.281C82.0991 8.9429 83.2536 9.58057 85.2478 8.5178C87.4519 6.60481 83.3586 7.45502 91.86 2.88511C90.4956 1.82234 84.1982 2.24744 81.9942 2.24744ZM108.338 2.24744H102.461H92.5948C93.5394 3.62905 94.6939 3.73532 96.3732 4.69182C100.047 6.92364 97.0029 7.66758 100.257 8.9429C102.146 9.58057 102.88 9.36801 103.615 11.281C101.096 12.9814 101.306 12.4501 99.9417 15.5321C98.4723 18.8267 98.1574 17.6576 95.9533 19.3581C97.2128 20.3146 98.3673 21.4836 100.466 22.5464C102.776 23.7154 103.93 24.0343 105.19 25.841C107.079 24.3531 107.079 24.0343 109.808 22.8652C112.222 21.6962 113.061 20.9522 114.741 19.6769C112.956 17.5514 112.431 19.5706 110.647 15.4258C108.233 9.79312 108.233 13.5128 106.974 10.7496C108.233 9.36801 108.968 9.04918 111.487 8.73035C113.901 4.16043 110.122 7.13619 117.994 2.88511L113.271 2.24744C111.592 2.35372 110.017 2.35372 108.338 2.24744ZM134.367 2.35372L128.595 2.24744L118.834 2.35372C121.983 5.43576 124.187 3.62905 125.026 8.62407C127.755 9.04918 128.49 9.26174 129.854 10.7496C128.7 13.5128 128.91 9.58057 126.286 15.3195C125.761 16.3823 125.341 17.3388 124.711 17.8702L123.032 18.933C122.297 19.5706 122.822 18.933 122.192 19.7832C123.977 21.0585 124.501 21.4836 126.915 22.6527C129.015 23.6091 130.274 24.2468 131.324 25.841L140.875 19.7832C138.985 17.5514 138.671 19.5706 136.781 15.3195C136.362 14.4693 135.837 13.194 135.417 12.6626C133.948 11.1747 134.052 12.6626 133.108 10.7496C134.472 9.26174 135.312 9.04918 137.936 8.62407C138.671 3.8416 140.98 5.32948 144.233 2.35372H134.367ZM160.606 2.24744H154.624L144.968 2.35372C150.006 6.81736 149.271 2.67255 151.37 8.73035C153.994 8.9429 154.834 9.47429 156.093 10.7496C154.729 13.4065 154.729 9.79312 152.42 15.3195C150.636 19.4643 150.006 17.6576 148.327 19.7832L157.878 25.841C159.032 23.928 164.91 21.2711 167.009 19.7832C166.064 18.6141 167.219 19.6769 165.854 18.8267C164.385 17.8702 164.07 18.0827 163.02 15.6384C161.341 11.7061 162.391 13.4065 159.347 11.281C159.872 9.47429 161.236 9.04918 163.755 8.73035C164.805 6.81736 164.385 5.86087 166.379 4.90437C168.373 3.8416 168.793 3.8416 170.367 2.35372L160.606 2.24744ZM186.741 2.24744H180.758L171.207 2.35372C173.411 5.86087 176.56 2.99138 177.294 8.62407C180.023 9.04918 180.653 9.15546 182.122 10.7496C180.968 13.5128 180.968 9.79312 178.554 15.4258C176.77 19.5706 176.245 17.6576 174.356 19.6769C178.344 22.4401 180.338 23.0778 184.012 25.841C185.796 23.2903 189.155 22.4401 193.143 19.7832C191.464 17.7639 190.624 19.0392 189.155 15.6384C187.475 11.5998 188.42 13.3003 185.481 11.281C186.111 9.26174 187.58 9.04918 190.204 8.73035C191.044 3.41649 193.668 5.43576 196.396 2.35372L186.741 2.24744ZM212.77 2.24744H206.892L197.341 2.35372C199.65 5.96714 201.749 2.24744 203.638 8.73035C206.262 8.9429 206.997 9.36801 208.257 10.7496C207.522 12.4501 205.843 12.5563 204.583 15.3195C203.009 19.0392 203.324 17.5514 201.329 18.933C200.595 19.4643 201.12 19.0392 200.49 19.6769C204.163 22.015 207.522 23.7154 210.146 25.841C211.72 23.6091 216.968 21.3773 219.277 19.7832C218.542 18.933 218.962 19.3581 218.017 18.7204C217.703 18.5078 217.283 18.4016 216.863 18.0827C216.023 17.4451 215.708 16.8074 215.289 15.6384C214.029 12.7689 214.554 12.2375 211.51 11.7061C212.245 9.36801 213.085 9.15546 215.918 8.73035C215.918 8.62407 216.023 8.30524 216.023 8.41152C216.548 9.79312 215.603 6.60481 218.542 4.90437C220.117 3.94788 221.376 3.62905 222.531 2.35372L212.77 2.24744ZM238.904 2.24744L233.236 2.35372L223.475 2.24744C224.525 3.94788 225.679 3.8416 227.254 4.90437C229.038 6.07342 228.828 7.02992 229.983 8.5178C232.187 9.58057 233.131 9.04918 234.286 11.281C231.662 13.0877 232.292 11.9187 230.717 15.4258C229.248 18.7204 229.458 17.7639 227.464 19.0392C226.729 19.4643 227.254 19.0392 226.624 19.6769C230.927 22.6527 233.866 23.5029 235.44 25.7347C237.434 24.9908 238.379 23.7154 240.583 22.6527C242.577 21.5899 244.047 20.3146 245.411 19.3581C242.787 17.4451 242.997 19.1455 241.423 15.6384C240.898 14.5756 240.478 13.7254 239.953 12.9814C238.484 11.3873 238.484 12.3438 237.749 10.8559C239.009 9.26174 239.953 8.9429 242.472 8.73035C243.102 3.41649 246.566 5.2232 248.665 2.35372L238.904 2.24744ZM265.038 2.24744L259.16 2.14117L249.399 2.35372C249.924 2.67255 252.023 4.05416 253.073 4.69182C254.857 5.75459 254.857 6.92364 256.117 8.5178C257.901 9.47429 259.475 9.47429 260.525 11.281C257.796 13.0877 258.216 12.0249 256.851 15.4258C255.802 17.9765 255.802 17.7639 254.227 18.6141L252.758 19.6769C256.746 22.5464 259.265 23.184 262.204 25.7347C263.359 23.7154 267.662 22.4401 271.545 19.8895C270.601 18.7204 271.545 19.6769 270.286 18.7204C265.038 14.8944 270.076 15.8509 263.778 11.281C264.618 9.36801 265.878 8.9429 268.606 8.73035C269.341 3.52277 272.49 5.2232 274.799 2.35372L265.038 2.24744ZM291.067 2.24744L285.294 2.14117C281.726 2.56628 277.213 1.60978 275.638 2.88511C278.787 4.69182 280.676 4.47926 281.936 8.73035C284.56 9.04918 285.294 9.36801 286.659 10.6433C285.399 13.3003 285.19 10.112 282.985 15.4258C281.936 17.8702 282.146 17.5514 280.257 18.6141L279.627 18.933C278.997 19.4643 279.417 19.0392 278.787 19.6769C280.152 20.6334 281.306 21.5899 283.51 22.6527C286.239 24.0343 286.554 24.4594 288.338 25.7347C289.388 24.0343 290.542 23.8217 292.851 22.6527C294.845 21.6962 296.315 20.4208 297.574 19.3581C295.37 17.6576 295.16 18.8267 293.586 15.5321C292.222 12.6626 292.431 12.9814 289.913 11.281C291.172 8.41152 293.481 9.47429 294.426 8.30524C295.79 6.28598 294.426 6.39225 297.155 4.7981C298.939 3.73532 299.988 3.62905 300.933 2.35372L291.067 2.24744ZM317.201 2.24744H311.534H304.082C303.557 2.24744 303.347 2.24744 302.822 2.35372C301.668 2.67255 302.402 2.35372 301.773 2.88511C309.959 7.24247 306.076 6.49853 308.28 8.5178C310.274 9.58057 311.009 8.9429 312.688 10.6433C311.743 12.7689 310.799 11.1747 309.015 15.4258C307.23 19.6769 306.706 17.7639 304.921 19.6769C308.175 21.8024 312.583 24.1405 314.577 25.841C316.991 23.2903 322.554 21.3773 323.708 19.0392C318.041 17.2325 322.134 15.5321 316.047 11.281C316.781 9.58057 318.146 8.9429 320.875 8.83663C321.504 3.62905 324.863 5.2232 327.067 2.35372L317.201 2.24744ZM343.335 2.24744H337.668H327.802C328.641 3.73532 329.796 3.62905 331.685 4.90437C333.364 5.96714 333.259 6.81736 334.309 8.5178C336.408 9.58057 337.668 9.15546 338.717 11.281C332.735 15.2133 337.038 16.276 332.525 18.7204L331.055 19.5706C335.044 22.3338 338.507 23.8217 340.501 25.841C342.286 22.9715 348.478 22.1213 349.843 19.0392C345.434 17.6576 346.169 14.8944 344.385 12.8752C343.23 11.4936 343.02 12.4501 342.286 10.8559C343.02 10.112 342.915 10.0057 344.07 9.36801C344.7 9.15546 344.91 9.15546 345.434 8.9429C345.539 8.83663 345.749 8.83663 345.749 8.83663C348.058 7.77386 346.694 6.39225 349.423 4.7981C351.207 3.73532 352.152 3.73532 353.201 2.24744H343.335ZM369.469 2.24744H363.802H353.936C354.776 3.73532 355.93 3.8416 357.819 4.7981C359.918 5.75459 359.289 6.60481 360.443 8.5178C362.227 9.58057 363.907 9.36801 364.956 11.281C359.604 14.6819 362.227 16.0635 359.813 18.0827C358.974 18.6141 359.289 18.2953 358.659 18.6141L357.189 19.5706C358.764 20.7397 359.499 21.4836 361.808 22.6527C364.327 23.928 365.166 24.1405 366.636 25.7347C368 23.8217 371.464 22.9715 375.977 19.4643C374.087 17.6576 373.458 18.5078 371.988 15.5321C370.309 12.0249 371.044 13.3003 368.315 11.281C369.469 9.15546 370.939 9.79312 372.828 8.41152C373.982 6.71108 373.668 5.86087 375.452 4.7981C377.446 3.62905 378.286 4.05416 379.335 2.24744H369.469ZM395.604 2.24744H389.831H380.07C380.91 3.8416 381.959 3.62905 383.848 4.7981C385.633 5.96714 385.423 6.71108 386.577 8.41152C388.257 9.58057 390.041 9.36801 390.985 11.281C385.213 15.0007 389.411 15.5321 384.688 18.6141C383.638 19.3581 384.268 18.6141 383.324 19.5706C384.583 20.5271 385.843 21.5899 387.942 22.6527C390.356 23.8217 391.405 24.1405 392.77 25.841C394.134 24.0343 394.869 23.928 397.283 22.7589C399.802 21.4836 400.431 20.8459 402.111 19.4643C400.327 17.6576 399.487 18.4016 398.122 15.5321C397.598 14.5756 397.283 13.6191 396.653 12.8752C395.079 11.1747 395.394 12.7689 394.344 10.5371C395.813 9.36801 397.493 9.47429 398.962 8.41152C400.012 6.71108 399.802 5.96714 401.586 4.7981C403.37 3.73532 404.525 3.8416 405.469 2.24744H395.604ZM421.738 2.24744H416.07H406.204C407.044 3.8416 408.198 3.62905 409.983 4.7981C413.866 7.24247 409.458 7.34875 415.02 9.26174C416.385 9.68684 416.385 9.79312 417.224 10.5371C415.755 13.7254 416.28 9.68684 413.551 15.5321C412.292 18.189 411.137 17.7639 409.458 19.5706C414.391 23.2903 416.91 23.3966 418.904 25.841C420.478 23.928 424.362 22.4401 428.245 19.5706L427.72 19.1455C426.251 18.0827 425.411 17.9765 424.362 15.8509C422.577 12.3438 423.732 13.3003 420.583 11.281C421.528 9.36801 423.312 9.58057 424.991 8.41152C426.251 6.71108 425.936 5.96714 427.72 4.7981C429.714 3.62905 430.554 4.05416 431.499 2.24744H421.738ZM447.872 2.24744H442.204H432.338C433.388 3.94788 434.122 3.62905 436.117 4.7981C438.006 5.96714 437.586 6.60481 438.845 8.41152C440.735 9.79312 442.204 9.15546 443.359 11.281C440.63 13.194 441.259 12.0249 439.58 15.5321C438.216 18.5078 437.481 17.6576 435.592 19.4643C440.525 23.3966 443.254 23.3966 444.933 25.7347C446.507 24.1405 451.02 21.9087 454.379 19.5706L452.07 18.189C449.341 16.3823 452.07 14.6819 446.717 11.281C447.662 9.36801 449.341 9.58057 451.125 8.41152C452.49 6.49853 451.44 5.86087 453.749 4.69182C455.429 3.8416 456.793 3.8416 457.633 2.24744H447.872ZM473.901 2.24744H468.233H458.472C459.417 3.73532 460.466 3.73532 462.251 4.7981C465.19 6.60481 463.195 7.77386 466.134 8.9429C467.918 9.58057 468.548 9.47429 469.388 11.281C466.974 13.0877 467.394 12.0249 465.924 15.2133C464.77 17.5514 464.455 18.189 461.831 19.0392C463.3 22.2275 469.283 22.9715 471.067 25.841C472.956 23.928 476.735 22.2275 480.513 19.5706C479.044 18.0827 477.994 19.3581 476.525 15.7446C475.055 12.1312 475.895 13.194 472.851 11.281C473.691 9.58057 475.055 9.04918 477.469 8.73035C478.729 2.56628 481.983 5.75459 483.767 2.24744H473.901ZM500.035 2.24744H494.367H484.501C485.446 3.73532 486.601 3.73532 488.28 4.7981C491.324 6.60481 489.224 7.77386 492.268 8.9429C493.948 9.58057 494.682 9.47429 495.522 11.281C492.583 13.4065 493.633 12.0249 491.848 15.5321C490.379 18.6141 489.749 17.7639 487.755 19.4643C490.484 21.3773 494.682 23.7154 496.991 25.841C500.665 22.7589 502.134 23.0778 506.647 19.5706C504.968 17.8702 504.233 19.4643 502.659 15.7446C501.19 12.2375 501.819 13.0877 498.88 11.281C500.14 8.83663 501.294 9.68684 503.394 8.5178C504.443 6.92364 504.548 5.86087 506.017 4.90437C507.907 3.62905 508.956 3.94788 509.901 2.24744H500.035ZM526.169 2.24744H520.501H510.636C511.685 3.94788 512.525 3.62905 514.414 4.7981C515.778 5.54204 517.353 8.5178 517.353 8.5178L517.983 8.83663C518.087 8.83663 518.192 8.83663 518.297 8.9429C520.082 9.58057 520.921 9.47429 521.656 11.281C519.032 13.0877 519.452 12.3438 517.983 15.5321C516.408 18.933 516.093 17.5514 513.994 19.4643C515.254 20.4208 516.408 21.4836 518.507 22.5464C520.921 23.8217 522.076 23.928 523.23 25.7347C526.064 23.2903 528.583 22.7589 532.781 19.5706L530.577 18.0827C527.534 15.6384 530.262 14.5756 525.015 11.281C526.274 8.9429 527.324 9.58057 529.423 8.5178C531.942 6.28598 526.694 7.5613 536.035 2.88511C534.566 1.82234 528.688 2.24744 526.169 2.24744ZM548 4.37299C545.481 1.5035 548.525 2.24744 536.77 2.24744C537.714 3.62905 538.764 3.73532 540.548 4.7981C543.697 6.71108 541.388 7.77386 544.431 8.9429C546.95 9.8994 545.796 9.15546 548 11.0684V11.4936C545.481 12.2375 545.166 13.194 544.117 15.5321C542.437 18.933 542.332 17.5514 540.023 19.3581C542.122 21.0585 544.746 22.7589 548 24.2468V29.9858H-172V27.6477H-157.936C-158.671 25.4159 -161.294 24.6719 -163.604 23.3966C-166.857 21.6962 -166.962 21.4836 -168.851 18.6141C-170.426 19.8895 -169.901 20.5271 -172 21.6962V16.7011C-170.006 15.9572 -170.741 13.8317 -172 12.7689V9.68684C-169.691 10.6433 -170.216 11.281 -168.536 12.4501C-167.277 9.68684 -166.227 10.5371 -164.863 8.62407C-165.703 6.39225 -166.962 6.39225 -168.851 5.2232C-170.006 5.64831 -170.426 6.1797 -172 6.71108V4.05416C-170.636 3.52277 -170.006 3.20394 -169.376 2.35372H-172V0.015625H548V4.37299Z" fill="#13354A"/>
<path fill-rule="evenodd" clip-rule="evenodd" d="M53.0264 20.6325C55.7552 18.9321 57.3296 12.5555 51.0322 14.2559C50.7173 16.2752 50.7173 17.8693 52.0818 19.5698L53.0264 20.6325ZM50.1925 2.24658C50.9272 4.37212 51.3471 4.90351 53.0264 5.64745C54.9156 5.00979 55.1255 4.58468 55.8602 2.24658H65.7261C64.8864 3.84074 63.7319 3.73446 61.9476 4.90351C60.3733 5.86 60.2683 6.92278 59.2188 8.51693C57.2246 9.47343 55.7552 9.47343 54.8106 11.2801C57.5395 13.0869 57.1197 12.3429 58.4841 15.7438C59.5337 18.1882 62.1576 19.4635 62.1576 19.3572C62.2625 19.3572 62.3675 19.5698 62.4724 19.676C57.9593 22.9706 55.6503 23.1832 53.0264 25.7338C51.2421 23.0769 45.0497 22.0141 43.7902 19.0384C46.3092 18.2944 46.729 17.5505 47.8835 15.2124C50.0876 10.6425 50.1925 13.0869 51.3471 10.855C49.7727 9.1546 48.3033 9.47343 46.8339 8.41066C45.6794 6.60394 46.0993 5.96628 44.21 4.79723C42.4258 3.73446 41.2713 3.73446 40.3267 2.24658H50.1925Z" fill="#FCFBFC"/>
<path fill-rule="evenodd" clip-rule="evenodd" d="M81.2596 14.1495C76.2217 11.5988 75.8018 17.5503 79.0555 20.6324C81.3646 19.357 81.6794 16.4875 81.2596 14.1495ZM76.3266 2.14014C76.9564 4.26568 77.3762 5.22217 79.5803 5.64728C81.1546 4.79706 81.4695 4.47823 81.9943 2.24641C84.1984 2.24641 90.4958 1.82131 91.8602 2.88408C83.3587 7.45399 87.452 6.60378 85.248 8.51676C83.2538 9.57954 82.0993 8.94187 80.9447 11.28C87.557 15.5311 82.0993 17.0189 88.3967 19.0382C87.8719 20.8449 86.0876 21.6951 83.9885 22.6516C81.7844 23.7144 80.315 24.6709 79.0555 25.8399C77.901 23.8207 76.7465 23.7144 74.3325 22.5453C72.1284 21.4826 71.1837 20.4198 69.8193 19.4633C71.8135 17.5503 72.2333 18.8256 73.8077 15.5311C75.382 12.2365 74.9622 13.193 77.4812 11.28C76.7465 9.57954 75.5919 8.94187 72.968 8.8356C71.0788 2.99035 68.6648 5.22217 66.4607 2.24641L76.3266 2.14014Z" fill="#FCFBFC"/>
<path fill-rule="evenodd" clip-rule="evenodd" d="M316.361 14.3622C312.373 12.9806 311.323 14.8936 312.478 18.2944C313.423 20.7388 314.262 20.5263 314.472 20.6325C316.046 18.9321 316.991 17.3379 316.361 14.3622ZM311.533 2.24658C312.163 4.58468 312.478 4.79723 314.052 5.75373C316.046 5.22234 316.466 4.4784 317.201 2.24658L327.067 2.35286C324.863 5.22234 321.504 3.62819 320.874 8.83577C318.146 8.94204 316.781 9.57971 316.046 11.2801C322.134 15.5312 318.041 17.2317 323.708 19.0384C322.554 21.3765 316.991 23.2895 314.577 25.8401C312.583 24.1397 308.175 21.8016 304.921 19.676C306.705 17.763 307.23 19.676 309.014 15.4249C310.799 11.1739 311.743 12.768 312.688 10.6425C311.009 8.94204 310.274 9.57971 308.28 8.51693C306.076 6.49767 309.959 7.24161 301.772 2.88424C302.402 2.35286 301.667 2.67169 302.822 2.35286C303.347 2.24658 303.557 2.24658 304.081 2.24658H311.533Z" fill="#FCFBFC"/>
<path fill-rule="evenodd" clip-rule="evenodd" d="M366.636 13.8308C363.592 13.8308 364.117 17.0191 365.271 19.0384C365.271 19.1446 365.796 19.8886 365.796 19.8886C366.426 20.6325 365.901 20.1011 366.636 20.6325C367.161 20.2074 366.951 20.42 367.37 19.8886C367.475 19.8886 367.895 19.1446 368 19.0384C369.05 17.2317 369.994 13.7245 366.636 13.8308ZM363.802 2.24658C364.537 4.58468 364.747 5.00979 366.636 5.64745C368.42 5.00979 368.735 4.4784 369.47 2.24658H379.335C378.286 4.05329 377.446 3.62818 375.452 4.79723C373.668 5.86 373.983 6.71022 372.828 8.41066C370.939 9.79226 369.47 9.1546 368.315 11.2801C371.044 13.2994 370.309 12.0241 371.989 15.5312C373.458 18.507 374.088 17.6568 375.977 19.4635C371.464 22.9706 368 23.8208 366.636 25.7338C365.166 24.1397 364.327 23.9271 361.808 22.6518C359.499 21.4827 358.764 20.7388 357.19 19.5698L358.659 18.6133C359.289 18.2944 358.974 18.6133 359.814 18.0819C362.228 16.0626 359.604 14.681 364.956 11.2801C363.907 9.36715 362.228 9.5797 360.443 8.51693C359.289 6.60394 359.919 5.75373 357.819 4.79723C355.93 3.84074 354.776 3.73446 353.936 2.24658H363.802Z" fill="#FCFBFC"/>
<path fill-rule="evenodd" clip-rule="evenodd" d="M342.496 14.3622C339.137 13.0869 337.353 14.5747 338.612 18.1882L339.662 19.9949C340.396 20.7388 339.662 20.1011 340.501 20.6325C340.606 20.5263 340.816 20.3137 340.816 20.42C340.816 20.42 341.026 20.2074 341.026 20.1011C342.6 18.2944 343.02 16.7003 342.496 14.3622ZM337.668 2.24658C338.192 4.4784 338.612 5.00979 340.501 5.75373C342.391 4.79723 342.6 4.37213 343.335 2.24658H353.201C352.151 3.73446 351.207 3.73446 349.423 4.79723C346.694 6.39139 348.058 7.77299 345.749 8.83577C345.749 8.83577 345.539 8.83577 345.434 8.94204C344.91 9.1546 344.7 9.1546 344.07 9.36715C342.915 10.0048 343.02 10.1111 342.286 10.855C343.02 12.4492 343.23 11.4927 344.385 12.8743C346.169 14.8936 345.434 17.6568 349.842 19.0384C348.478 22.1204 342.286 22.9706 340.501 25.8401C338.507 23.8208 335.044 22.333 331.055 19.5698L332.525 18.7195C337.038 16.2752 332.735 15.2124 338.717 11.2801C337.668 9.1546 336.408 9.57971 334.309 8.51693C333.259 6.8165 333.364 5.96628 331.685 4.90351C329.796 3.62819 328.641 3.73446 327.802 2.24658H337.668Z" fill="#FCFBFC"/>
<path fill-rule="evenodd" clip-rule="evenodd" d="M105.294 20.7388C108.023 18.507 109.598 12.2366 103.3 14.3622C102.671 17.4442 103.93 18.9321 105.294 20.7388ZM102.461 2.24658C103.3 4.58468 103.51 4.58468 105.189 5.75373C106.974 5.00979 107.603 4.05329 108.338 2.24658C110.017 2.35286 111.592 2.35286 113.271 2.24658L117.994 2.88424C110.122 7.13533 113.901 4.15957 111.487 8.72949C108.968 9.04832 108.233 9.36715 106.974 10.7488C108.233 13.512 108.233 9.79226 110.647 15.4249C112.431 19.5698 112.956 17.5505 114.74 19.676C113.061 20.9514 112.222 21.6953 109.808 22.8643C107.079 24.0334 107.079 24.3522 105.189 25.8401C103.93 24.0334 102.775 23.7146 100.466 22.5455C98.3673 21.4827 97.2128 20.3137 95.9533 19.3572C98.1574 17.6568 98.4723 18.8258 99.9416 15.5312C101.306 12.4492 101.096 12.9806 103.615 11.2801C102.88 9.36715 102.146 9.57971 100.257 8.94204C97.0029 7.66672 100.047 6.92278 96.3731 4.69096C94.6938 3.73446 93.5393 3.62819 92.5947 2.24658H102.461Z" fill="#FCFBFC"/>
<path fill-rule="evenodd" clip-rule="evenodd" d="M1.70262 19.9949C1.70262 19.8886 2.01749 19.5698 2.01749 19.4635C2.43731 18.8258 2.64723 18.507 2.85714 17.8693C3.27697 16.4877 3.17201 15.4249 2.85714 14.2559C1.70262 13.512 -0.081646 13.9371 -1.23617 14.2559C-1.656 16.8066 -1.13121 19.1446 0.758007 20.6325C1.4927 20.2074 1.07288 20.6325 1.70262 19.9949ZM-1.97087 2.24658C-1.34113 4.37213 -1.02626 4.90351 0.758007 5.75373C2.75218 5.00979 3.06705 4.4784 3.69679 2.24658H13.4578C12.7231 3.84074 11.4636 3.73446 9.67932 4.90351C8.00002 5.96628 8.10497 6.8165 6.95045 8.51693C5.16619 9.57971 3.48688 9.36715 2.54227 11.2801C5.3761 13.1931 4.85132 12.3429 6.32071 15.7438C7.7901 19.4635 8.83967 18.0819 10.3091 19.5698C5.90088 22.7581 2.75218 23.7146 0.758007 25.8401C-0.606429 23.8208 -1.44608 23.8208 -3.96504 22.5455C-6.37905 21.3765 -7.00879 20.6325 -8.58314 19.4635C-6.58896 17.6568 -5.95922 18.507 -4.48983 15.5312C-2.70556 11.9178 -3.75513 13.4057 -0.816342 11.2801C-1.34113 10.4299 -1.55104 10.0048 -2.70556 9.47343C-3.3353 9.1546 -3.54522 9.1546 -4.07 8.94204C-7.32366 7.66672 -4.90965 6.71022 -8.05835 4.79723C-9.84262 3.73446 -10.8922 3.73446 -11.8368 2.24658H-1.97087Z" fill="#FCFBFC"/>
<path fill-rule="evenodd" clip-rule="evenodd" d="M290.542 16.275C290.647 13.2992 288.443 13.6181 286.239 14.1495C285.399 17.444 286.659 18.4005 287.604 20.7386C289.388 19.9947 290.437 18.4005 290.542 16.275ZM285.294 2.14014C286.134 4.05313 286.554 4.90334 288.338 5.64728C289.913 4.79707 290.332 4.26568 291.067 2.24641L300.933 2.35269C299.988 3.62802 298.939 3.73429 297.155 4.79707C294.426 6.39122 295.79 6.28495 294.426 8.30421C293.481 9.47326 291.172 8.41049 289.913 11.28C292.432 12.9804 292.222 12.6616 293.586 15.5311C295.16 18.8256 295.37 17.6566 297.574 19.357C296.315 20.4198 294.846 21.6951 292.851 22.6516C290.542 23.8207 289.388 24.0332 288.338 25.7337C286.554 24.4583 286.239 24.0332 283.51 22.6516C281.306 21.5889 280.152 20.6324 278.787 19.6759C279.417 19.0382 278.997 19.4633 279.627 18.9319L280.257 18.6131C282.146 17.5503 281.936 17.8692 282.985 15.4248C285.19 10.1109 285.399 13.2992 286.659 10.6423C285.294 9.36698 284.56 9.04815 281.936 8.72932C280.676 4.47823 278.787 4.69079 275.638 2.88408C277.213 1.60875 281.726 2.56525 285.294 2.14014Z" fill="#FCFBFC"/>
<path fill-rule="evenodd" clip-rule="evenodd" d="M133.528 14.4685C131.638 13.6182 131.428 13.512 129.539 14.4685C128.805 17.4442 129.959 18.9321 131.428 20.7388C132.898 19.5698 134.052 17.1254 133.528 14.4685ZM128.595 2.24658C129.434 4.26585 129.854 4.58468 131.324 5.64745C133.003 5.11607 133.528 4.37213 134.367 2.35286H144.233C140.98 5.32862 138.67 3.84074 137.936 8.62321C135.312 9.04832 134.472 9.26087 133.108 10.7488C134.052 12.6617 133.947 11.1739 135.417 12.6617C135.837 13.1931 136.361 14.4685 136.781 15.3187C138.67 19.5698 138.985 17.5505 140.875 19.7823L131.324 25.8401C130.274 24.246 129.014 23.6083 126.915 22.6518C124.501 21.4827 123.977 21.0576 122.192 19.7823C122.822 18.9321 122.297 19.5698 123.032 18.9321L124.711 17.8693C125.341 17.3379 125.761 16.3814 126.286 15.3187C128.91 9.57971 128.7 13.512 129.854 10.7488C128.49 9.26087 127.755 9.04832 125.026 8.62321C124.187 3.62819 121.982 5.4349 118.834 2.35286L128.595 2.24658Z" fill="#FCFBFC"/>
<path fill-rule="evenodd" clip-rule="evenodd" d="M159.662 14.4685C158.297 13.6182 156.933 13.8308 155.568 14.4685C154.939 17.5505 156.198 19.4635 157.773 20.7388C158.822 19.1446 160.291 17.2317 159.662 14.4685ZM154.624 2.24658C155.568 4.26585 155.254 4.15957 156.618 5.64745L158.612 5.54117C159.977 4.05329 159.662 4.4784 160.606 2.24658L170.367 2.35286C168.793 3.84074 168.373 3.84074 166.379 4.90351C164.385 5.86001 164.805 6.8165 163.755 8.72949C161.236 9.04832 159.872 9.47343 159.347 11.2801C162.391 13.4057 161.341 11.7052 163.02 15.6375C164.07 18.0819 164.385 17.8693 165.854 18.8258C167.219 19.676 166.064 18.6133 167.009 19.7823C164.91 21.2702 159.032 23.9271 157.878 25.8401L148.326 19.7823C150.006 17.6568 150.636 19.4635 152.42 15.3187C154.729 9.79226 154.729 13.4057 156.093 10.7488C154.834 9.47343 153.994 8.94204 151.37 8.72949C149.271 2.67169 150.006 6.8165 144.968 2.35286L154.624 2.24658Z" fill="#FCFBFC"/>
<path fill-rule="evenodd" clip-rule="evenodd" d="M183.907 20.7388C186.006 18.1882 188.525 12.4492 181.807 14.1496C181.073 16.9128 182.437 19.4635 183.907 20.7388ZM180.758 2.24658C181.807 4.69096 181.493 5.4349 184.746 5.64745C185.901 4.26585 185.901 4.26585 186.74 2.24658L196.396 2.35286C193.667 5.4349 191.044 3.41563 190.204 8.72949C187.58 9.04832 186.111 9.26087 185.481 11.2801C188.42 13.2994 187.475 11.599 189.154 15.6375C190.624 19.0384 191.463 17.763 193.143 19.7823C189.154 22.4392 185.796 23.2895 184.012 25.8401C180.338 23.0769 178.344 22.4392 174.356 19.676C176.245 17.6568 176.77 19.5698 178.554 15.4249C180.968 9.79226 180.968 13.512 182.122 10.7488C180.653 9.1546 180.023 9.04832 177.294 8.62321C176.56 2.99052 173.411 5.86001 171.207 2.35286L180.758 2.24658Z" fill="#FCFBFC"/>
<path fill-rule="evenodd" clip-rule="evenodd" d="M261.574 20.7386C262.939 20.101 262.414 20.7386 263.464 19.357C263.988 18.6131 265.878 14.362 262.729 13.8306C257.586 12.9804 261.05 19.4633 261.574 20.7386ZM259.16 2.14014C260.105 4.05313 260.315 4.79707 262.204 5.64728C263.988 4.69079 264.198 4.47823 265.038 2.24641L274.799 2.35269C272.49 5.22217 269.341 3.52174 268.606 8.72932C265.878 8.94187 264.618 9.36698 263.778 11.28C270.076 15.8499 265.038 14.8934 270.286 18.7194C271.545 19.6759 270.601 18.7194 271.545 19.8884C267.662 22.4391 263.359 23.7144 262.204 25.7337C259.265 23.183 256.746 22.5453 252.758 19.6759L254.227 18.6131C255.802 17.7629 255.802 17.9754 256.851 15.4248C258.216 12.0239 257.796 13.0867 260.525 11.28C259.475 9.47326 257.901 9.47326 256.117 8.51676C254.857 6.92261 254.857 5.75356 253.073 4.69079C252.023 4.05313 249.924 2.67152 249.399 2.35269L259.16 2.14014Z" fill="#FCFBFC"/>
<path fill-rule="evenodd" clip-rule="evenodd" d="M26.8921 20.6325C27.5218 20.3137 27.9416 20.2074 28.6763 18.6133C30.0408 15.5312 29.0962 12.768 24.8979 14.3622C24.4781 16.8066 25.0029 19.0384 26.8921 20.6325ZM24.1632 2.24658C24.793 4.37213 25.1078 4.79723 26.8921 5.75373C28.9912 5.00979 29.2011 4.58468 29.7259 2.24658L39.5918 2.77797C38.5422 3.41563 36.758 4.15957 35.4985 5.00979C34.1341 6.07256 34.1341 6.92278 33.0845 8.51693C31.0903 9.57971 29.8309 9.1546 28.6763 11.2801C31.5102 13.0869 30.8804 12.2366 32.4548 15.7438C34.0291 19.4635 34.8688 17.9756 36.4431 19.5698C32.0349 22.7581 29.2011 23.502 26.8921 25.8401C25.1078 22.9706 19.1253 22.1204 17.6559 19.0384C20.1749 18.2944 20.6997 17.3379 21.7492 15.2124C23.2186 12.0241 22.7988 13.0869 25.3177 11.2801C24.4781 9.47343 23.7434 9.57971 21.9591 8.94204C18.8105 7.77299 21.2244 6.71022 18.0758 4.79723C16.1865 3.62819 15.2419 3.84074 14.2973 2.24658H24.1632Z" fill="#FCFBFC"/>
<path fill-rule="evenodd" clip-rule="evenodd" d="M233.971 14.1496C233.656 15.8501 233.551 16.4877 234.181 18.2944C234.286 18.6133 234.706 19.5698 235.02 19.7823C235.965 20.7388 234.811 19.9949 236.595 20.7388C238.169 18.0819 240.583 12.4492 233.971 14.1496ZM233.236 2.35286C233.971 4.37212 234.601 5.00979 236.175 5.64745C237.854 4.69096 238.064 4.37212 238.904 2.24658L248.665 2.35286C246.566 5.22234 243.102 3.41563 242.472 8.72949C239.953 8.94204 239.009 9.26087 237.749 10.855C238.484 12.3429 238.484 11.3864 239.953 12.9806C240.478 13.7245 240.898 14.5747 241.423 15.6375C242.997 19.1446 242.787 17.4442 245.411 19.3572C244.047 20.3137 242.577 21.589 240.583 22.6518C238.379 23.7146 237.434 24.9899 235.44 25.7338C233.866 23.502 230.927 22.6518 226.624 19.676C227.254 19.0384 226.729 19.4635 227.464 19.0384C229.458 17.763 229.248 18.7195 230.717 15.4249C232.292 11.9178 231.662 13.0869 234.286 11.2801C233.131 9.04832 232.187 9.5797 229.983 8.51693C228.828 7.02905 229.038 6.07256 227.254 4.90351C225.679 3.84074 224.525 3.94702 223.475 2.24658L233.236 2.35286Z" fill="#FCFBFC"/>
<path fill-rule="evenodd" clip-rule="evenodd" d="M212.035 14.9998C209.621 12.5555 207.417 14.1496 207.627 16.594C207.732 17.6568 208.362 19.4635 209.096 20.1011C210.356 21.1639 207.837 19.676 210.461 20.7388C211.195 19.2509 212.35 17.5505 212.035 14.9998ZM206.892 2.24658C207.837 4.58468 207.837 5.4349 210.881 5.64745C212.14 4.15957 212.035 4.4784 212.77 2.24658L222.531 2.35286C221.376 3.62819 220.117 3.94702 218.542 4.90351C215.604 6.60395 216.548 9.79226 216.023 8.41066C216.023 8.30438 215.918 8.62321 215.918 8.72949C213.085 9.1546 212.245 9.36715 211.51 11.7052C214.554 12.2366 214.029 12.768 215.289 15.6375C215.708 16.8066 216.023 17.4442 216.863 18.0819C217.283 18.4007 217.703 18.507 218.018 18.7195C218.962 19.3572 218.542 18.9321 219.277 19.7823C216.968 21.3765 211.72 23.6083 210.146 25.8401C207.522 23.7146 204.163 22.0141 200.49 19.676C201.12 19.0384 200.595 19.4635 201.329 18.9321C203.324 17.5505 203.009 19.0384 204.583 15.3187C205.843 12.5555 207.522 12.4492 208.257 10.7488C206.997 9.36715 206.262 8.94204 203.639 8.72949C201.749 2.24658 199.65 5.96628 197.341 2.35286L206.892 2.24658Z" fill="#FCFBFC"/>
<path fill-rule="evenodd" clip-rule="evenodd" d="M118.834 18.5068C121.458 23.927 127.965 24.0332 129.539 27.6467H107.394C108.128 25.5211 111.172 24.4584 113.376 23.183C117.154 21.0575 116.735 19.7822 118.834 18.5068Z" fill="#FAAF04"/>
<path fill-rule="evenodd" clip-rule="evenodd" d="M171.102 18.5068C172.886 23.2893 180.653 24.2458 181.703 27.6467H159.662C160.607 25.4148 163.126 24.5646 165.54 23.183C167.429 22.1203 170.682 19.0382 170.787 18.7194C170.787 18.5068 170.997 18.5068 171.102 18.5068Z" fill="#FAAF04"/>
<path fill-rule="evenodd" clip-rule="evenodd" d="M197.236 18.5068C199.65 23.8207 206.787 24.2458 207.837 27.6467H185.796C186.741 25.4148 189.26 24.5646 191.674 23.183C195.872 20.8449 195.242 19.7822 197.236 18.5068Z" fill="#FAAF04"/>
<path fill-rule="evenodd" clip-rule="evenodd" d="M145.807 19.995C150.006 24.9901 154.519 24.2461 155.568 27.647H133.528C134.682 24.3524 142.449 23.3959 144.233 18.4009L145.807 19.995Z" fill="#FAAF04"/>
<path fill-rule="evenodd" clip-rule="evenodd" d="M39.8019 18.5068C40.2218 18.8257 40.1168 18.8257 40.5366 19.3571C40.9564 19.7822 40.7465 19.5696 41.1664 20.101C41.901 21.0575 41.4812 20.7387 42.5308 21.4826C45.9943 24.3521 50.4025 24.8835 51.0322 27.6467H28.9915C29.5162 25.6274 31.7203 24.8835 34.764 23.3956C37.3879 22.014 38.7524 20.9512 39.8019 18.5068Z" fill="#FAAF04"/>
<path fill-rule="evenodd" clip-rule="evenodd" d="M13.8775 18.6133C15.137 19.7823 14.8221 20.3137 16.3965 21.4828C19.6501 24.246 23.5335 24.7774 25.0029 27.5406C24.2682 27.6468 3.59178 28.0719 3.27691 27.4343C3.17195 27.2217 3.06699 27.328 2.96204 27.328C3.90665 25.415 6.53056 24.5648 8.94456 23.1832C12.4081 21.2702 11.7784 21.1639 13.8775 18.6133Z" fill="#FAAF04"/>
<path fill-rule="evenodd" clip-rule="evenodd" d="M390.671 27.328C388.886 28.0719 369.784 27.6468 368.525 27.5406C369.784 25.5213 371.988 24.6711 374.402 23.2895C379.125 20.6325 377.761 20.5263 379.65 18.6133C384.058 24.9899 388.886 23.7146 390.671 27.328Z" fill="#FAAF04"/>
<path fill-rule="evenodd" clip-rule="evenodd" d="M301.353 18.6133C306.81 25.9464 311.114 23.6083 312.268 27.6468H290.227C291.907 24.1397 296.735 24.3522 300.303 19.7823L301.353 18.6133Z" fill="#FAAF04"/>
<path fill-rule="evenodd" clip-rule="evenodd" d="M223.056 18.6133C227.044 25.0962 232.607 23.7146 233.971 27.6468H211.93C212.665 25.6276 215.499 24.5648 217.808 23.1832C222.006 20.8451 220.642 20.9514 222.636 19.0384L223.056 18.6133Z" fill="#FAAF04"/>
<path fill-rule="evenodd" clip-rule="evenodd" d="M249.399 18.5068C251.289 24.0332 259.16 24.0332 260.105 27.6467H238.064C238.904 25.5211 241.528 24.6709 243.837 23.2893C245.621 22.1203 248.875 19.4633 249.084 18.7194C249.084 18.5068 249.294 18.5068 249.399 18.5068Z" fill="#FAAF04"/>
<path fill-rule="evenodd" clip-rule="evenodd" d="M91.965 18.5068C92.6997 19.0382 92.175 18.6131 92.8047 19.2508C93.3295 19.7822 92.9096 19.4633 93.4344 20.101C94.1691 20.8449 93.8542 20.7387 94.7989 21.4826C98.1574 24.3521 102.146 24.7772 103.3 27.6467H81.2595C82.3091 23.6081 89.2362 24.7772 91.965 18.5068Z" fill="#FAAF04"/>
<path fill-rule="evenodd" clip-rule="evenodd" d="M353.621 18.6133C359.604 26.0527 363.697 24.0334 364.432 27.6468L342.496 27.5406C343.755 25.0962 348.583 23.6083 351.312 21.2702C352.676 20.2074 352.362 19.6761 353.621 18.6133Z" fill="#FAAF04"/>
<path fill-rule="evenodd" clip-rule="evenodd" d="M66.0409 18.6133C67.3004 19.7823 67.3004 20.42 68.5599 21.4828C71.3937 23.8209 75.9068 24.7774 77.2712 27.6468L55.0205 27.5406C55.7552 25.5213 58.3791 24.6711 60.7931 23.3958C64.3616 21.3765 63.8369 21.4828 66.0409 18.6133Z" fill="#FAAF04"/>
<path fill-rule="evenodd" clip-rule="evenodd" d="M275.533 18.5068C277.633 24.2458 285.084 23.8207 286.239 27.6467L264.093 27.5404C265.248 25.4148 267.557 24.6709 269.971 23.2893C274.799 20.4198 273.434 20.3135 275.533 18.5068Z" fill="#FAAF04"/>
<path fill-rule="evenodd" clip-rule="evenodd" d="M327.487 18.6133C332.42 25.415 335.569 23.2895 338.612 27.6468L316.362 27.5406C318.041 24.0334 321.924 25.3087 327.067 19.0384L327.487 18.6133Z" fill="#FAAF04"/>
<path fill-rule="evenodd" clip-rule="evenodd" d="M305.341 8.62304C304.187 10.3235 302.822 10.2172 301.668 12.449L301.038 11.9176C300.933 11.8114 300.828 11.7051 300.723 11.5988L299.359 10.2172C297.889 9.15443 298.204 10.0046 297.26 8.62304C298.204 5.00962 303.452 3.7343 305.341 8.62304Z" fill="#FAAF04"/>
<path fill-rule="evenodd" clip-rule="evenodd" d="M331.475 8.62336C330.426 10.2175 328.956 10.4301 327.802 12.4493L327.172 11.9179C324.968 9.7924 324.023 9.57985 323.393 8.62336C324.128 6.17898 325.388 6.28526 327.487 5.11621C329.271 6.39154 330.74 6.39154 331.475 8.62336Z" fill="#FAAF04"/>
<path fill-rule="evenodd" clip-rule="evenodd" d="M174.671 8.09165C172.781 11.8113 172.361 9.04814 171.102 12.5553L166.589 8.62304C167.219 6.49749 168.373 6.28494 170.472 5.22217C172.466 5.75355 174.041 6.49749 174.671 8.09165Z" fill="#FAAF04"/>
<path fill-rule="evenodd" clip-rule="evenodd" d="M200.909 8.62336C199.545 10.4301 198.39 9.89868 197.236 12.4493L192.723 8.62336C193.248 6.60409 194.297 6.07271 197.026 5.11621C198.81 6.07271 200.175 6.81665 200.909 8.62336Z" fill="#FAAF04"/>
<path fill-rule="evenodd" clip-rule="evenodd" d="M148.641 8.62336C147.802 9.89868 147.382 9.68613 146.332 10.5363L144.443 12.2368C144.443 12.2368 144.233 12.4493 144.128 12.5556C143.079 9.47357 142.029 10.8552 140.56 8.62336C141.085 6.60409 142.764 5.75387 144.863 5.11621C146.332 6.17898 147.907 6.60409 148.641 8.62336Z" fill="#FAAF04"/>
<path fill-rule="evenodd" clip-rule="evenodd" d="M226.939 8.62336C226.099 10.005 224.525 10.2175 223.055 12.5556C220.011 8.62336 220.221 10.6426 218.857 8.62336C219.487 6.39154 221.061 6.07271 223.055 5.11621C224.839 6.49781 226.309 6.28526 226.939 8.62336Z" fill="#FAAF04"/>
<path fill-rule="evenodd" clip-rule="evenodd" d="M117.994 12.5557C117.05 9.68623 115.895 10.6427 114.321 8.62345C116.315 3.94726 121.563 4.90375 122.507 8.62345L117.994 12.5557Z" fill="#FAAF04"/>
<path fill-rule="evenodd" clip-rule="evenodd" d="M70.2388 8.62323C68.9793 10.4299 68.7694 8.83578 66.0406 12.4492C63.5216 8.3044 63.6266 10.855 62.0523 8.62323C63.4167 4.26587 68.9793 4.5847 70.2388 8.62323Z" fill="#FAAF04"/>
<path fill-rule="evenodd" clip-rule="evenodd" d="M17.9708 8.62316C17.446 9.26082 17.9708 8.72943 17.2361 9.26082C13.4577 12.3429 16.8163 9.26082 13.8776 12.5554C11.6735 8.62316 11.2537 10.6424 9.7843 8.62316C10.6239 6.17878 13.6677 5.32857 13.8776 5.32857C14.1924 5.22229 17.1312 5.96623 17.9708 8.62316Z" fill="#FAAF04"/>
<path fill-rule="evenodd" clip-rule="evenodd" d="M96.3733 8.62336C95.7436 9.3673 96.3733 8.72963 95.6386 9.3673C92.9097 11.4928 94.9039 9.3673 92.175 12.5556C90.3908 9.15474 89.5511 10.5363 88.1867 8.62336C89.0264 6.28526 90.2858 6.39154 92.175 5.11621C94.2742 6.39154 95.6386 6.28526 96.3733 8.62336Z" fill="#FAAF04"/>
<path fill-rule="evenodd" clip-rule="evenodd" d="M249.19 12.5556C246.671 8.83591 246.776 10.9615 244.991 8.62336C245.726 6.07271 246.776 6.60409 248.77 5.11621C251.709 6.28526 252.968 6.92292 253.073 9.04847C250.344 10.6426 250.344 9.89868 249.19 12.5556Z" fill="#FAAF04"/>
<path fill-rule="evenodd" clip-rule="evenodd" d="M353.621 12.5556C352.571 11.4928 353.096 11.3866 351.837 10.4301C350.787 9.57985 350.367 9.89868 349.423 8.62336C350.052 6.71037 349.842 7.24175 351.312 6.28526C352.152 5.86015 352.886 5.43504 353.621 5.11621C355.615 6.28526 356.77 6.39154 357.609 8.62336C356.245 10.5363 355.825 8.72963 353.621 12.5556Z" fill="#FAAF04"/>
<path fill-rule="evenodd" clip-rule="evenodd" d="M275.219 12.5556C274.274 11.4928 274.694 11.2803 273.539 10.4301C272.28 9.47357 272.28 10.2175 271.125 8.62336C271.755 6.49781 273.434 5.75387 275.324 5.11621C277.108 6.39154 278.997 6.39154 279.207 9.04847C276.478 10.5363 276.478 10.005 275.219 12.5556Z" fill="#FAAF04"/>
<path fill-rule="evenodd" clip-rule="evenodd" d="M44.1049 8.62336C43.9999 8.62336 41.7958 10.3238 41.6909 10.3238C40.8512 11.174 41.5859 10.4301 40.8512 11.2803C40.7463 11.3866 40.4314 11.7054 40.4314 11.8117L35.9183 8.62336C36.8629 6.17898 37.9124 6.49781 39.9066 5.11621C41.7958 5.96643 43.4751 6.39154 44.1049 8.62336Z" fill="#FAAF04"/>
<path fill-rule="evenodd" clip-rule="evenodd" d="M236.595 20.7388C234.811 19.9948 235.965 20.7388 235.02 19.7823C234.706 19.5697 234.286 18.6132 234.181 18.2944C233.551 16.4877 233.656 15.85 233.971 14.1496C240.583 12.4492 238.169 18.0819 236.595 20.7388Z" fill="#259CB6"/>
<path fill-rule="evenodd" clip-rule="evenodd" d="M81.2596 14.1494C81.6794 16.4875 81.3645 19.3569 79.0554 20.6323C75.8018 17.5502 76.2216 11.5987 81.2596 14.1494Z" fill="#259CB6"/>
<path fill-rule="evenodd" clip-rule="evenodd" d="M287.604 20.7387C286.659 18.4006 285.4 17.4441 286.239 14.1495C288.443 13.6181 290.647 13.2993 290.542 16.275C290.437 18.4006 289.388 19.9947 287.604 20.7387Z" fill="#259CB6"/>
<path fill-rule="evenodd" clip-rule="evenodd" d="M2.85713 14.2562C3.172 15.4252 3.27696 16.488 2.85713 17.8696C2.64722 18.5072 2.43731 18.8261 2.01749 19.4637C2.01749 19.57 1.70263 19.8888 1.70263 19.9951C1.07289 20.6328 1.49272 20.2077 0.758029 20.6328C-1.13117 19.1449 -1.65594 16.8068 -1.23612 14.2562C-0.0816133 13.9373 1.70263 13.5122 2.85713 14.2562Z" fill="#259CB6"/>
<path fill-rule="evenodd" clip-rule="evenodd" d="M261.574 20.739C261.05 19.4637 257.586 12.9808 262.729 13.831C265.877 14.3624 263.988 18.6134 263.464 19.3574C262.414 20.739 262.939 20.1013 261.574 20.739Z" fill="#259CB6"/>
<path fill-rule="evenodd" clip-rule="evenodd" d="M316.361 14.362C316.991 17.3378 316.046 18.9319 314.472 20.6323C314.262 20.5261 313.423 20.7386 312.478 18.2942C311.323 14.8934 312.373 12.9804 316.361 14.362Z" fill="#259CB6"/>
<path fill-rule="evenodd" clip-rule="evenodd" d="M366.636 20.6322C365.901 20.1008 366.426 20.6322 365.796 19.8883C365.796 19.8883 365.271 19.1443 365.271 19.0381C364.117 17.0188 363.592 13.8305 366.636 13.8305C369.994 13.7242 369.05 17.2314 368 19.0381C367.895 19.1443 367.475 19.8883 367.37 19.8883C366.951 20.4197 367.16 20.2071 366.636 20.6322Z" fill="#259CB6"/>
<path fill-rule="evenodd" clip-rule="evenodd" d="M26.8922 20.6323C25.003 19.0381 24.4782 16.8063 24.898 14.3619C29.0963 12.7678 30.0409 15.531 28.6765 18.613C27.9418 20.2072 27.522 20.3135 26.8922 20.6323Z" fill="#259CB6"/>
<path fill-rule="evenodd" clip-rule="evenodd" d="M212.035 14.9999C212.35 17.5506 211.195 19.251 210.46 20.7389C207.837 19.6761 210.356 21.164 209.096 20.1012C208.361 19.4636 207.732 17.6568 207.627 16.5941C207.417 14.1497 209.621 12.5555 212.035 14.9999Z" fill="#259CB6"/>
<path fill-rule="evenodd" clip-rule="evenodd" d="M53.0262 20.6324L52.0816 19.5697C50.7172 17.8692 50.7172 16.2751 51.032 14.2558C57.3294 12.5554 55.755 18.932 53.0262 20.6324Z" fill="#259CB6"/>
<path fill-rule="evenodd" clip-rule="evenodd" d="M183.907 20.7387C182.437 19.4634 181.073 16.9128 181.808 14.1495C188.525 12.4491 186.006 18.1881 183.907 20.7387Z" fill="#259CB6"/>
<path fill-rule="evenodd" clip-rule="evenodd" d="M340.816 20.42C340.816 20.3137 340.606 20.5263 340.501 20.6326C339.662 20.1012 340.396 20.7389 339.662 19.9949L338.612 18.1882C337.353 14.5748 339.137 13.0869 342.496 14.3622C343.02 16.7003 342.601 18.2945 341.026 20.1012C341.026 20.2075 340.816 20.42 340.816 20.42Z" fill="#259CB6"/>
<path fill-rule="evenodd" clip-rule="evenodd" d="M105.295 20.739C103.93 18.9323 102.671 17.4444 103.3 14.3624C109.598 12.2369 108.023 18.5072 105.295 20.739Z" fill="#259CB6"/>
<path fill-rule="evenodd" clip-rule="evenodd" d="M133.528 14.4686C134.052 17.1256 132.898 19.5699 131.428 20.739C129.959 18.9323 128.804 17.4444 129.539 14.4686C131.428 13.5121 131.638 13.6184 133.528 14.4686Z" fill="#259CB6"/>
<path fill-rule="evenodd" clip-rule="evenodd" d="M159.662 14.4685C160.291 17.2317 158.822 19.1447 157.773 20.7388C156.198 19.4635 154.939 17.5505 155.568 14.4685C156.933 13.8308 158.297 13.6183 159.662 14.4685Z" fill="#259CB6"/>
<path fill-rule="evenodd" clip-rule="evenodd" d="M308.91 11.0678C307.545 12.6619 307.65 12.4494 306.916 14.5749C304.397 21.9081 299.359 10.3238 308.91 11.0678Z" fill="#FAAF04"/>
<path fill-rule="evenodd" clip-rule="evenodd" d="M84.6181 11.0675C92.3849 10.4298 91.1255 18.932 87.6619 16.3813C86.2974 15.4248 87.452 14.3621 84.6181 11.0675Z" fill="#FAAF04"/>
<path fill-rule="evenodd" clip-rule="evenodd" d="M11.3585 16.594C7.99993 17.2317 9.67921 15.8501 6.4256 11.0676C8.20984 10.9613 9.88912 11.4927 10.9387 12.4492C12.0932 13.6183 12.513 15.1061 11.3585 16.594Z" fill="#FAAF04"/>
<path fill-rule="evenodd" clip-rule="evenodd" d="M282.775 11.0678C280.361 13.9373 281.096 17.4444 277.318 16.5942C276.478 12.9808 278.892 10.6427 282.775 11.0678Z" fill="#FAAF04"/>
<path fill-rule="evenodd" clip-rule="evenodd" d="M215.498 10.9614C221.586 11.0677 221.796 15.3188 220.536 16.3816C218.962 17.7632 217.807 15.6376 217.388 14.4686C216.548 12.343 216.338 12.5556 215.498 10.9614Z" fill="#FAAF04"/>
<path fill-rule="evenodd" clip-rule="evenodd" d="M256.641 11.1737C255.802 11.8113 255.277 12.9804 254.647 14.5745C254.227 15.8499 253.073 17.8691 251.498 16.3813C249.189 14.0432 253.073 10.6423 256.641 11.1737Z" fill="#FAAF04"/>
<path fill-rule="evenodd" clip-rule="evenodd" d="M178.344 11.1737C177.4 11.9176 176.98 12.8741 176.245 14.5745C175.825 15.6373 174.776 17.8691 173.096 16.3813C170.682 14.0432 174.671 10.6423 178.344 11.1737Z" fill="#FAAF04"/>
<path fill-rule="evenodd" clip-rule="evenodd" d="M334.939 11.0676C332.84 13.6182 333.155 17.3379 329.586 16.594C328.746 12.8743 331.055 10.7487 334.939 11.0676Z" fill="#FAAF04"/>
<path fill-rule="evenodd" clip-rule="evenodd" d="M63.9418 16.5938C61.6327 17.0189 61.3178 16.7001 60.5831 14.6808C59.7434 12.449 59.5335 12.449 58.5889 11.0674C62.3674 10.9611 64.7815 12.7678 63.9418 16.5938Z" fill="#FAAF04"/>
<path fill-rule="evenodd" clip-rule="evenodd" d="M110.857 11.1737C114.426 10.6423 118.414 14.0432 116 16.3813C114.426 17.9754 113.271 15.6373 112.851 14.4683C112.326 12.7678 111.907 11.9176 110.857 11.1737Z" fill="#FAAF04"/>
<path fill-rule="evenodd" clip-rule="evenodd" d="M21.4344 11.0674C20.6998 12.5553 20.3849 12.449 19.4403 14.6808C19.0205 15.8498 17.761 17.6566 16.3966 16.4875C13.8776 14.362 17.761 10.9611 21.4344 11.0674Z" fill="#FAAF04"/>
<path fill-rule="evenodd" clip-rule="evenodd" d="M361.073 11.0674C360.023 12.449 359.918 12.6616 359.079 14.5746C358.659 15.7436 357.294 17.7629 355.93 16.3813C353.726 14.0432 357.609 10.7486 361.073 11.0674Z" fill="#FAAF04"/>
<path fill-rule="evenodd" clip-rule="evenodd" d="M99.7317 11.0678C99.2069 12.2368 98.6821 12.5557 97.8425 14.4687C97.1078 16.1691 97.0028 16.7005 94.7988 16.7005C92.9096 13.4059 95.9533 10.9615 99.7317 11.0678Z" fill="#FAAF04"/>
<path fill-rule="evenodd" clip-rule="evenodd" d="M320.14 10.9614C323.184 11.174 327.802 13.9372 324.968 16.4878C322.974 18.1883 320.35 11.4928 320.35 11.4928C320.245 11.174 320.14 11.174 320.14 10.9614Z" fill="#FAAF04"/>
<path fill-rule="evenodd" clip-rule="evenodd" d="M204.478 11.1737C202.799 12.449 201.749 18.7194 199.23 16.3813C197.026 14.1494 201.015 10.6423 204.478 11.1737Z" fill="#FAAF04"/>
<path fill-rule="evenodd" clip-rule="evenodd" d="M136.991 11.1738C140.455 10.6424 144.443 14.2558 142.134 16.3814C139.615 18.8257 138.776 12.2366 136.991 11.1738Z" fill="#FAAF04"/>
<path fill-rule="evenodd" clip-rule="evenodd" d="M32.4547 11.0677C35.7084 10.8552 39.8016 14.0435 37.7025 16.2753C36.0232 17.9757 34.8687 15.7439 34.4489 14.5749C33.8191 12.6619 33.3993 12.2368 32.4547 11.0677Z" fill="#FAAF04"/>
<path fill-rule="evenodd" clip-rule="evenodd" d="M73.5977 11.0677C72.4431 12.0242 72.3382 13.1933 71.7085 14.6811C71.1837 15.9565 69.7143 17.7632 68.4548 16.2753C66.3557 13.9372 70.344 10.9614 73.5977 11.0677Z" fill="#FAAF04"/>
<path fill-rule="evenodd" clip-rule="evenodd" d="M230.507 11.1738C229.143 12.2366 229.248 12.7679 228.618 14.5746C228.093 15.7437 226.939 17.9755 225.365 16.3814C223.265 14.2558 227.149 10.6424 230.507 11.1738Z" fill="#FAAF04"/>
<path fill-rule="evenodd" clip-rule="evenodd" d="M377.236 16.594C375.137 16.9128 374.717 16.0626 373.983 14.3622C373.353 12.768 372.933 12.2366 372.094 11.0676C375.662 10.9613 378.916 13.1931 377.236 16.594Z" fill="#FAAF04"/>
<path fill-rule="evenodd" clip-rule="evenodd" d="M168.583 16.7C163.86 17.1251 166.064 13.2991 163.125 11.1736C166.904 10.6422 169.318 13.0866 168.583 16.7Z" fill="#FAAF04"/>
<path fill-rule="evenodd" clip-rule="evenodd" d="M272.595 16.7003C270.495 16.7003 270.286 16.2752 269.551 14.3622C269.026 12.9806 268.186 12.0241 267.767 11.0676C271.545 10.855 274.379 13.512 272.595 16.7003Z" fill="#FAAF04"/>
<path fill-rule="evenodd" clip-rule="evenodd" d="M152 10.9614C150.006 13.1932 150.741 17.1255 146.752 16.5941C145.913 12.8744 148.327 11.0677 152 10.9614Z" fill="#FAAF04"/>
<path fill-rule="evenodd" clip-rule="evenodd" d="M346.274 10.9614C355.615 11.5991 351.102 23.7147 346.274 10.9614V10.9614Z" fill="#FAAF04"/>
<path fill-rule="evenodd" clip-rule="evenodd" d="M298.729 16.7001C294.216 16.5938 296.315 11.9176 293.586 11.1737C297.259 10.4297 300.408 13.2992 298.729 16.7001Z" fill="#FAAF04"/>
<path fill-rule="evenodd" clip-rule="evenodd" d="M126.076 11.1737C123.347 12.4491 125.341 17.2315 120.618 16.5939C120.198 14.5746 120.618 13.2993 121.877 12.3428C123.032 11.3863 124.291 10.8549 126.076 11.1737Z" fill="#FAAF04"/>
<path fill-rule="evenodd" clip-rule="evenodd" d="M47.5686 10.9614C45.4695 12.343 46.2042 17.338 42.4257 16.4878C40.7464 13.087 44.0001 11.0677 47.5686 10.9614Z" fill="#FAAF04"/>
<path fill-rule="evenodd" clip-rule="evenodd" d="M194.297 16.7C189.889 16.7 191.883 12.2364 189.154 11.1736C192.828 10.536 195.872 13.2992 194.297 16.7Z" fill="#FAAF04"/>
<path fill-rule="evenodd" clip-rule="evenodd" d="M246.461 16.7004C243.627 16.7004 244.257 15.6376 242.787 12.8744L241.843 10.9614C245.516 11.2803 248.35 13.5121 246.461 16.7004Z" fill="#FAAF04"/>
<path fill-rule="evenodd" clip-rule="evenodd" d="M154.624 2.24658H160.606C159.662 4.4784 159.977 4.05329 158.612 5.54117L156.618 5.64745C155.254 4.15957 155.568 4.26585 154.624 2.24658Z" fill="#259CB6"/>
<path fill-rule="evenodd" clip-rule="evenodd" d="M180.758 2.24658H186.74C185.901 4.26585 185.901 4.26585 184.746 5.64745C181.493 5.4349 181.807 4.69096 180.758 2.24658Z" fill="#259CB6"/>
<path fill-rule="evenodd" clip-rule="evenodd" d="M206.892 2.24658H212.77C212.035 4.4784 212.14 4.15957 210.881 5.64745C207.837 5.4349 207.837 4.58468 206.892 2.24658Z" fill="#259CB6"/>
<path fill-rule="evenodd" clip-rule="evenodd" d="M24.1631 2.24658H29.7258C29.201 4.58468 28.9911 5.00979 26.892 5.75373C25.1078 4.79723 24.7929 4.37212 24.1631 2.24658Z" fill="#259CB6"/>
<path fill-rule="evenodd" clip-rule="evenodd" d="M337.668 2.24658H343.335C342.601 4.37212 342.391 4.79723 340.502 5.75373C338.612 5.00979 338.193 4.4784 337.668 2.24658Z" fill="#259CB6"/>
<path fill-rule="evenodd" clip-rule="evenodd" d="M311.533 2.24658H317.201C316.466 4.4784 316.047 5.22234 314.052 5.75373C312.478 4.79723 312.163 4.58468 311.533 2.24658Z" fill="#259CB6"/>
<path fill-rule="evenodd" clip-rule="evenodd" d="M76.3265 2.14014L81.9941 2.24641C81.4694 4.47823 81.1545 4.79707 79.5801 5.64728C77.376 5.22217 76.9562 4.26568 76.3265 2.14014Z" fill="#259CB6"/>
<path fill-rule="evenodd" clip-rule="evenodd" d="M-1.97095 2.24658H3.69666C3.06692 4.4784 2.75205 5.00979 0.757898 5.75373C-1.02635 4.90351 -1.34121 4.37212 -1.97095 2.24658Z" fill="#259CB6"/>
<path fill-rule="evenodd" clip-rule="evenodd" d="M363.802 2.24658H369.469C368.735 4.4784 368.42 5.00979 366.636 5.64745C364.746 5.00979 364.537 4.58468 363.802 2.24658Z" fill="#259CB6"/>
<path fill-rule="evenodd" clip-rule="evenodd" d="M50.1926 2.24658H55.8601C55.1254 4.58468 54.9155 5.00979 53.0263 5.64745C51.3471 4.90351 50.9272 4.37212 50.1926 2.24658Z" fill="#259CB6"/>
<path fill-rule="evenodd" clip-rule="evenodd" d="M102.461 2.24658H108.338C107.604 4.05329 106.974 5.00979 105.19 5.75373C103.51 4.58468 103.3 4.58468 102.461 2.24658Z" fill="#259CB6"/>
<path fill-rule="evenodd" clip-rule="evenodd" d="M259.16 2.14014L265.038 2.24641C264.198 4.47823 263.988 4.69079 262.204 5.64728C260.315 4.79707 260.105 4.05313 259.16 2.14014Z" fill="#259CB6"/>
<path fill-rule="evenodd" clip-rule="evenodd" d="M285.294 2.14014L291.067 2.24641C290.332 4.26568 289.912 4.79707 288.338 5.64728C286.554 4.90334 286.134 4.05313 285.294 2.14014Z" fill="#259CB6"/>
<path fill-rule="evenodd" clip-rule="evenodd" d="M233.236 2.35286L238.904 2.24658C238.064 4.37212 237.854 4.69096 236.175 5.64745C234.601 5.00979 233.971 4.37212 233.236 2.35286Z" fill="#259CB6"/>
<path fill-rule="evenodd" clip-rule="evenodd" d="M128.595 2.24658L134.367 2.35286C133.528 4.37212 133.003 5.11607 131.324 5.64745C129.854 4.58468 129.434 4.26585 128.595 2.24658Z" fill="#259CB6"/>
</g>
<defs>
<clipPath id="clip0">
<rect width="375" height="30" fill="white" transform="matrix(-1 0 0 1 375 0)"/>
</clipPath>
</defs>
</svg>
